G04 #@! TF.GenerationSoftware,KiCad,Pcbnew,(6.0.1)*
G04 #@! TF.CreationDate,2022-02-24T19:16:21+09:00*
G04 #@! TF.ProjectId,xipher_kbd_nohot,78697068-6572-45f6-9b62-645f6e6f686f,rev?*
G04 #@! TF.SameCoordinates,Original*
G04 #@! TF.FileFunction,Legend,Top*
G04 #@! TF.FilePolarity,Positive*
%FSLAX46Y46*%
G04 Gerber Fmt 4.6, Leading zero omitted, Abs format (unit mm)*
G04 Created by KiCad (PCBNEW (6.0.1)) date 2022-02-24 19:16:21*
%MOMM*%
%LPD*%
G01*
G04 APERTURE LIST*
%ADD10C,0.150000*%
%ADD11C,0.200000*%
%ADD12C,0.381000*%
%ADD13C,0.160000*%
%ADD14R,1.752600X1.752600*%
%ADD15C,1.752600*%
%ADD16O,2.500000X2.000000*%
G04 APERTURE END LIST*
D10*
G04 #@! TO.C,U1*
X36391904Y-124824848D02*
X36391904Y-124367705D01*
X37191904Y-124596276D02*
X36391904Y-124596276D01*
X36391904Y-124177229D02*
X37191904Y-123643895D01*
X36391904Y-123643895D02*
X37191904Y-124177229D01*
X36391904Y-123186752D02*
X36391904Y-123110562D01*
X36430000Y-123034372D01*
X36468095Y-122996276D01*
X36544285Y-122958181D01*
X36696666Y-122920086D01*
X36887142Y-122920086D01*
X37039523Y-122958181D01*
X37115714Y-122996276D01*
X37153809Y-123034372D01*
X37191904Y-123110562D01*
X37191904Y-123186752D01*
X37153809Y-123262943D01*
X37115714Y-123301038D01*
X37039523Y-123339133D01*
X36887142Y-123377229D01*
X36696666Y-123377229D01*
X36544285Y-123339133D01*
X36468095Y-123301038D01*
X36430000Y-123262943D01*
X36391904Y-123186752D01*
X36353809Y-122005800D02*
X37382380Y-122691514D01*
X37191904Y-121739133D02*
X36391904Y-121739133D01*
X36391904Y-121548657D01*
X36430000Y-121434372D01*
X36506190Y-121358181D01*
X36582380Y-121320086D01*
X36734761Y-121281991D01*
X36849047Y-121281991D01*
X37001428Y-121320086D01*
X37077619Y-121358181D01*
X37153809Y-121434372D01*
X37191904Y-121548657D01*
X37191904Y-121739133D01*
X36391904Y-121015324D02*
X36391904Y-120520086D01*
X36696666Y-120786752D01*
X36696666Y-120672467D01*
X36734761Y-120596276D01*
X36772857Y-120558181D01*
X36849047Y-120520086D01*
X37039523Y-120520086D01*
X37115714Y-120558181D01*
X37153809Y-120596276D01*
X37191904Y-120672467D01*
X37191904Y-120901038D01*
X37153809Y-120977229D01*
X37115714Y-121015324D01*
X64712857Y-113925309D02*
X64750952Y-113811023D01*
X64789047Y-113772928D01*
X64865238Y-113734833D01*
X64979523Y-113734833D01*
X65055714Y-113772928D01*
X65093809Y-113811023D01*
X65131904Y-113887214D01*
X65131904Y-114191976D01*
X64331904Y-114191976D01*
X64331904Y-113925309D01*
X64370000Y-113849119D01*
X64408095Y-113811023D01*
X64484285Y-113772928D01*
X64560476Y-113772928D01*
X64636666Y-113811023D01*
X64674761Y-113849119D01*
X64712857Y-113925309D01*
X64712857Y-114191976D01*
X64331904Y-113049119D02*
X64331904Y-113201500D01*
X64370000Y-113277690D01*
X64408095Y-113315785D01*
X64522380Y-113391976D01*
X64674761Y-113430071D01*
X64979523Y-113430071D01*
X65055714Y-113391976D01*
X65093809Y-113353880D01*
X65131904Y-113277690D01*
X65131904Y-113125309D01*
X65093809Y-113049119D01*
X65055714Y-113011023D01*
X64979523Y-112972928D01*
X64789047Y-112972928D01*
X64712857Y-113011023D01*
X64674761Y-113049119D01*
X64636666Y-113125309D01*
X64636666Y-113277690D01*
X64674761Y-113353880D01*
X64712857Y-113391976D01*
X64789047Y-113430071D01*
X46932857Y-113868166D02*
X46932857Y-114134833D01*
X47351904Y-114134833D02*
X46551904Y-114134833D01*
X46551904Y-113753880D01*
X46818571Y-113106261D02*
X47351904Y-113106261D01*
X46513809Y-113296738D02*
X47085238Y-113487214D01*
X47085238Y-112991976D01*
X41510000Y-125133023D02*
X41471904Y-125209214D01*
X41471904Y-125323500D01*
X41510000Y-125437785D01*
X41586190Y-125513976D01*
X41662380Y-125552071D01*
X41814761Y-125590166D01*
X41929047Y-125590166D01*
X42081428Y-125552071D01*
X42157619Y-125513976D01*
X42233809Y-125437785D01*
X42271904Y-125323500D01*
X42271904Y-125247309D01*
X42233809Y-125133023D01*
X42195714Y-125094928D01*
X41929047Y-125094928D01*
X41929047Y-125247309D01*
X42271904Y-124752071D02*
X41471904Y-124752071D01*
X42271904Y-124294928D01*
X41471904Y-124294928D01*
X42271904Y-123913976D02*
X41471904Y-123913976D01*
X41471904Y-123723500D01*
X41510000Y-123609214D01*
X41586190Y-123533023D01*
X41662380Y-123494928D01*
X41814761Y-123456833D01*
X41929047Y-123456833D01*
X42081428Y-123494928D01*
X42157619Y-123533023D01*
X42233809Y-123609214D01*
X42271904Y-123723500D01*
X42271904Y-123913976D01*
X52012857Y-113868166D02*
X52012857Y-114134833D01*
X52431904Y-114134833D02*
X51631904Y-114134833D01*
X51631904Y-113753880D01*
X51631904Y-113106261D02*
X51631904Y-113258642D01*
X51670000Y-113334833D01*
X51708095Y-113372928D01*
X51822380Y-113449119D01*
X51974761Y-113487214D01*
X52279523Y-113487214D01*
X52355714Y-113449119D01*
X52393809Y-113411023D01*
X52431904Y-113334833D01*
X52431904Y-113182452D01*
X52393809Y-113106261D01*
X52355714Y-113068166D01*
X52279523Y-113030071D01*
X52089047Y-113030071D01*
X52012857Y-113068166D01*
X51974761Y-113106261D01*
X51936666Y-113182452D01*
X51936666Y-113334833D01*
X51974761Y-113411023D01*
X52012857Y-113449119D01*
X52089047Y-113487214D01*
X37191904Y-114153880D02*
X36810952Y-114420547D01*
X37191904Y-114611023D02*
X36391904Y-114611023D01*
X36391904Y-114306261D01*
X36430000Y-114230071D01*
X36468095Y-114191976D01*
X36544285Y-114153880D01*
X36658571Y-114153880D01*
X36734761Y-114191976D01*
X36772857Y-114230071D01*
X36810952Y-114306261D01*
X36810952Y-114611023D01*
X36963333Y-113849119D02*
X36963333Y-113468166D01*
X37191904Y-113925309D02*
X36391904Y-113658642D01*
X37191904Y-113391976D01*
X36391904Y-113201500D02*
X37191904Y-113011023D01*
X36620476Y-112858642D01*
X37191904Y-112706261D01*
X36391904Y-112515785D01*
X57092857Y-113925309D02*
X57130952Y-113811023D01*
X57169047Y-113772928D01*
X57245238Y-113734833D01*
X57359523Y-113734833D01*
X57435714Y-113772928D01*
X57473809Y-113811023D01*
X57511904Y-113887214D01*
X57511904Y-114191976D01*
X56711904Y-114191976D01*
X56711904Y-113925309D01*
X56750000Y-113849119D01*
X56788095Y-113811023D01*
X56864285Y-113772928D01*
X56940476Y-113772928D01*
X57016666Y-113811023D01*
X57054761Y-113849119D01*
X57092857Y-113925309D01*
X57092857Y-114191976D01*
X57511904Y-112972928D02*
X57511904Y-113430071D01*
X57511904Y-113201500D02*
X56711904Y-113201500D01*
X56826190Y-113277690D01*
X56902380Y-113353880D01*
X56940476Y-113430071D01*
X57511904Y-125113976D02*
X56711904Y-125113976D01*
X56711904Y-124923500D01*
X56750000Y-124809214D01*
X56826190Y-124733023D01*
X56902380Y-124694928D01*
X57054761Y-124656833D01*
X57169047Y-124656833D01*
X57321428Y-124694928D01*
X57397619Y-124733023D01*
X57473809Y-124809214D01*
X57511904Y-124923500D01*
X57511904Y-125113976D01*
X56711904Y-124390166D02*
X56711904Y-123856833D01*
X57511904Y-124199690D01*
X54552857Y-113868166D02*
X54552857Y-114134833D01*
X54971904Y-114134833D02*
X54171904Y-114134833D01*
X54171904Y-113753880D01*
X54171904Y-113525309D02*
X54171904Y-112991976D01*
X54971904Y-113334833D01*
X49472857Y-113868166D02*
X49472857Y-114134833D01*
X49891904Y-114134833D02*
X49091904Y-114134833D01*
X49091904Y-113753880D01*
X49091904Y-113068166D02*
X49091904Y-113449119D01*
X49472857Y-113487214D01*
X49434761Y-113449119D01*
X49396666Y-113372928D01*
X49396666Y-113182452D01*
X49434761Y-113106261D01*
X49472857Y-113068166D01*
X49549047Y-113030071D01*
X49739523Y-113030071D01*
X49815714Y-113068166D01*
X49853809Y-113106261D01*
X49891904Y-113182452D01*
X49891904Y-113372928D01*
X49853809Y-113449119D01*
X49815714Y-113487214D01*
X44011904Y-114668166D02*
X44811904Y-114401500D01*
X44011904Y-114134833D01*
X44735714Y-113411023D02*
X44773809Y-113449119D01*
X44811904Y-113563404D01*
X44811904Y-113639595D01*
X44773809Y-113753880D01*
X44697619Y-113830071D01*
X44621428Y-113868166D01*
X44469047Y-113906261D01*
X44354761Y-113906261D01*
X44202380Y-113868166D01*
X44126190Y-113830071D01*
X44050000Y-113753880D01*
X44011904Y-113639595D01*
X44011904Y-113563404D01*
X44050000Y-113449119D01*
X44088095Y-113411023D01*
X44735714Y-112611023D02*
X44773809Y-112649119D01*
X44811904Y-112763404D01*
X44811904Y-112839595D01*
X44773809Y-112953880D01*
X44697619Y-113030071D01*
X44621428Y-113068166D01*
X44469047Y-113106261D01*
X44354761Y-113106261D01*
X44202380Y-113068166D01*
X44126190Y-113030071D01*
X44050000Y-112953880D01*
X44011904Y-112839595D01*
X44011904Y-112763404D01*
X44050000Y-112649119D01*
X44088095Y-112611023D01*
X49891904Y-125113976D02*
X49091904Y-125113976D01*
X49091904Y-124923500D01*
X49130000Y-124809214D01*
X49206190Y-124733023D01*
X49282380Y-124694928D01*
X49434761Y-124656833D01*
X49549047Y-124656833D01*
X49701428Y-124694928D01*
X49777619Y-124733023D01*
X49853809Y-124809214D01*
X49891904Y-124923500D01*
X49891904Y-125113976D01*
X49091904Y-124161595D02*
X49091904Y-124085404D01*
X49130000Y-124009214D01*
X49168095Y-123971119D01*
X49244285Y-123933023D01*
X49396666Y-123894928D01*
X49587142Y-123894928D01*
X49739523Y-123933023D01*
X49815714Y-123971119D01*
X49853809Y-124009214D01*
X49891904Y-124085404D01*
X49891904Y-124161595D01*
X49853809Y-124237785D01*
X49815714Y-124275880D01*
X49739523Y-124313976D01*
X49587142Y-124352071D01*
X49396666Y-124352071D01*
X49244285Y-124313976D01*
X49168095Y-124275880D01*
X49130000Y-124237785D01*
X49091904Y-124161595D01*
X52431904Y-125113976D02*
X51631904Y-125113976D01*
X51631904Y-124923500D01*
X51670000Y-124809214D01*
X51746190Y-124733023D01*
X51822380Y-124694928D01*
X51974761Y-124656833D01*
X52089047Y-124656833D01*
X52241428Y-124694928D01*
X52317619Y-124733023D01*
X52393809Y-124809214D01*
X52431904Y-124923500D01*
X52431904Y-125113976D01*
X51898571Y-123971119D02*
X52431904Y-123971119D01*
X51593809Y-124161595D02*
X52165238Y-124352071D01*
X52165238Y-123856833D01*
X38970000Y-114211023D02*
X38931904Y-114287214D01*
X38931904Y-114401500D01*
X38970000Y-114515785D01*
X39046190Y-114591976D01*
X39122380Y-114630071D01*
X39274761Y-114668166D01*
X39389047Y-114668166D01*
X39541428Y-114630071D01*
X39617619Y-114591976D01*
X39693809Y-114515785D01*
X39731904Y-114401500D01*
X39731904Y-114325309D01*
X39693809Y-114211023D01*
X39655714Y-114172928D01*
X39389047Y-114172928D01*
X39389047Y-114325309D01*
X39731904Y-113830071D02*
X38931904Y-113830071D01*
X39731904Y-113372928D01*
X38931904Y-113372928D01*
X39731904Y-112991976D02*
X38931904Y-112991976D01*
X38931904Y-112801500D01*
X38970000Y-112687214D01*
X39046190Y-112611023D01*
X39122380Y-112572928D01*
X39274761Y-112534833D01*
X39389047Y-112534833D01*
X39541428Y-112572928D01*
X39617619Y-112611023D01*
X39693809Y-112687214D01*
X39731904Y-112801500D01*
X39731904Y-112991976D01*
X59632857Y-113925309D02*
X59670952Y-113811023D01*
X59709047Y-113772928D01*
X59785238Y-113734833D01*
X59899523Y-113734833D01*
X59975714Y-113772928D01*
X60013809Y-113811023D01*
X60051904Y-113887214D01*
X60051904Y-114191976D01*
X59251904Y-114191976D01*
X59251904Y-113925309D01*
X59290000Y-113849119D01*
X59328095Y-113811023D01*
X59404285Y-113772928D01*
X59480476Y-113772928D01*
X59556666Y-113811023D01*
X59594761Y-113849119D01*
X59632857Y-113925309D01*
X59632857Y-114191976D01*
X59251904Y-113468166D02*
X59251904Y-112972928D01*
X59556666Y-113239595D01*
X59556666Y-113125309D01*
X59594761Y-113049119D01*
X59632857Y-113011023D01*
X59709047Y-112972928D01*
X59899523Y-112972928D01*
X59975714Y-113011023D01*
X60013809Y-113049119D01*
X60051904Y-113125309D01*
X60051904Y-113353880D01*
X60013809Y-113430071D01*
X59975714Y-113468166D01*
X42203809Y-113862713D02*
X42241904Y-113748427D01*
X42241904Y-113557951D01*
X42203809Y-113481760D01*
X42165714Y-113443665D01*
X42089523Y-113405570D01*
X42013333Y-113405570D01*
X41937142Y-113443665D01*
X41899047Y-113481760D01*
X41860952Y-113557951D01*
X41822857Y-113710332D01*
X41784761Y-113786522D01*
X41746666Y-113824618D01*
X41670476Y-113862713D01*
X41594285Y-113862713D01*
X41518095Y-113824618D01*
X41480000Y-113786522D01*
X41441904Y-113710332D01*
X41441904Y-113519856D01*
X41480000Y-113405570D01*
X41441904Y-113176999D02*
X41441904Y-112719856D01*
X42241904Y-112948427D02*
X41441904Y-112948427D01*
X47351904Y-125113976D02*
X46551904Y-125113976D01*
X46551904Y-124923500D01*
X46590000Y-124809214D01*
X46666190Y-124733023D01*
X46742380Y-124694928D01*
X46894761Y-124656833D01*
X47009047Y-124656833D01*
X47161428Y-124694928D01*
X47237619Y-124733023D01*
X47313809Y-124809214D01*
X47351904Y-124923500D01*
X47351904Y-125113976D01*
X47351904Y-123894928D02*
X47351904Y-124352071D01*
X47351904Y-124123500D02*
X46551904Y-124123500D01*
X46666190Y-124199690D01*
X46742380Y-124275880D01*
X46780476Y-124352071D01*
X62172857Y-124847309D02*
X62210952Y-124733023D01*
X62249047Y-124694928D01*
X62325238Y-124656833D01*
X62439523Y-124656833D01*
X62515714Y-124694928D01*
X62553809Y-124733023D01*
X62591904Y-124809214D01*
X62591904Y-125113976D01*
X61791904Y-125113976D01*
X61791904Y-124847309D01*
X61830000Y-124771119D01*
X61868095Y-124733023D01*
X61944285Y-124694928D01*
X62020476Y-124694928D01*
X62096666Y-124733023D01*
X62134761Y-124771119D01*
X62172857Y-124847309D01*
X62172857Y-125113976D01*
X62058571Y-123971119D02*
X62591904Y-123971119D01*
X61753809Y-124161595D02*
X62325238Y-124352071D01*
X62325238Y-123856833D01*
X64712857Y-124847309D02*
X64750952Y-124733023D01*
X64789047Y-124694928D01*
X64865238Y-124656833D01*
X64979523Y-124656833D01*
X65055714Y-124694928D01*
X65093809Y-124733023D01*
X65131904Y-124809214D01*
X65131904Y-125113976D01*
X64331904Y-125113976D01*
X64331904Y-124847309D01*
X64370000Y-124771119D01*
X64408095Y-124733023D01*
X64484285Y-124694928D01*
X64560476Y-124694928D01*
X64636666Y-124733023D01*
X64674761Y-124771119D01*
X64712857Y-124847309D01*
X64712857Y-125113976D01*
X64331904Y-123933023D02*
X64331904Y-124313976D01*
X64712857Y-124352071D01*
X64674761Y-124313976D01*
X64636666Y-124237785D01*
X64636666Y-124047309D01*
X64674761Y-123971119D01*
X64712857Y-123933023D01*
X64789047Y-123894928D01*
X64979523Y-123894928D01*
X65055714Y-123933023D01*
X65093809Y-123971119D01*
X65131904Y-124047309D01*
X65131904Y-124237785D01*
X65093809Y-124313976D01*
X65055714Y-124352071D01*
X39731904Y-125113976D02*
X38931904Y-125113976D01*
X38931904Y-124923500D01*
X38970000Y-124809214D01*
X39046190Y-124733023D01*
X39122380Y-124694928D01*
X39274761Y-124656833D01*
X39389047Y-124656833D01*
X39541428Y-124694928D01*
X39617619Y-124733023D01*
X39693809Y-124809214D01*
X39731904Y-124923500D01*
X39731904Y-125113976D01*
X39008095Y-124352071D02*
X38970000Y-124313976D01*
X38931904Y-124237785D01*
X38931904Y-124047309D01*
X38970000Y-123971119D01*
X39008095Y-123933023D01*
X39084285Y-123894928D01*
X39160476Y-123894928D01*
X39274761Y-123933023D01*
X39731904Y-124390166D01*
X39731904Y-123894928D01*
X62172857Y-113925309D02*
X62210952Y-113811023D01*
X62249047Y-113772928D01*
X62325238Y-113734833D01*
X62439523Y-113734833D01*
X62515714Y-113772928D01*
X62553809Y-113811023D01*
X62591904Y-113887214D01*
X62591904Y-114191976D01*
X61791904Y-114191976D01*
X61791904Y-113925309D01*
X61830000Y-113849119D01*
X61868095Y-113811023D01*
X61944285Y-113772928D01*
X62020476Y-113772928D01*
X62096666Y-113811023D01*
X62134761Y-113849119D01*
X62172857Y-113925309D01*
X62172857Y-114191976D01*
X61868095Y-113430071D02*
X61830000Y-113391976D01*
X61791904Y-113315785D01*
X61791904Y-113125309D01*
X61830000Y-113049119D01*
X61868095Y-113011023D01*
X61944285Y-112972928D01*
X62020476Y-112972928D01*
X62134761Y-113011023D01*
X62591904Y-113468166D01*
X62591904Y-112972928D01*
X54895714Y-124656833D02*
X54933809Y-124694928D01*
X54971904Y-124809214D01*
X54971904Y-124885404D01*
X54933809Y-124999690D01*
X54857619Y-125075880D01*
X54781428Y-125113976D01*
X54629047Y-125152071D01*
X54514761Y-125152071D01*
X54362380Y-125113976D01*
X54286190Y-125075880D01*
X54210000Y-124999690D01*
X54171904Y-124885404D01*
X54171904Y-124809214D01*
X54210000Y-124694928D01*
X54248095Y-124656833D01*
X54171904Y-123971119D02*
X54171904Y-124123500D01*
X54210000Y-124199690D01*
X54248095Y-124237785D01*
X54362380Y-124313976D01*
X54514761Y-124352071D01*
X54819523Y-124352071D01*
X54895714Y-124313976D01*
X54933809Y-124275880D01*
X54971904Y-124199690D01*
X54971904Y-124047309D01*
X54933809Y-123971119D01*
X54895714Y-123933023D01*
X54819523Y-123894928D01*
X54629047Y-123894928D01*
X54552857Y-123933023D01*
X54514761Y-123971119D01*
X54476666Y-124047309D01*
X54476666Y-124199690D01*
X54514761Y-124275880D01*
X54552857Y-124313976D01*
X54629047Y-124352071D01*
X44050000Y-125133023D02*
X44011904Y-125209214D01*
X44011904Y-125323500D01*
X44050000Y-125437785D01*
X44126190Y-125513976D01*
X44202380Y-125552071D01*
X44354761Y-125590166D01*
X44469047Y-125590166D01*
X44621428Y-125552071D01*
X44697619Y-125513976D01*
X44773809Y-125437785D01*
X44811904Y-125323500D01*
X44811904Y-125247309D01*
X44773809Y-125133023D01*
X44735714Y-125094928D01*
X44469047Y-125094928D01*
X44469047Y-125247309D01*
X44811904Y-124752071D02*
X44011904Y-124752071D01*
X44811904Y-124294928D01*
X44011904Y-124294928D01*
X44811904Y-123913976D02*
X44011904Y-123913976D01*
X44011904Y-123723500D01*
X44050000Y-123609214D01*
X44126190Y-123533023D01*
X44202380Y-123494928D01*
X44354761Y-123456833D01*
X44469047Y-123456833D01*
X44621428Y-123494928D01*
X44697619Y-123533023D01*
X44773809Y-123609214D01*
X44811904Y-123723500D01*
X44811904Y-123913976D01*
X59632857Y-125075880D02*
X59632857Y-124809214D01*
X60051904Y-124694928D02*
X60051904Y-125075880D01*
X59251904Y-125075880D01*
X59251904Y-124694928D01*
X59251904Y-124009214D02*
X59251904Y-124161595D01*
X59290000Y-124237785D01*
X59328095Y-124275880D01*
X59442380Y-124352071D01*
X59594761Y-124390166D01*
X59899523Y-124390166D01*
X59975714Y-124352071D01*
X60013809Y-124313976D01*
X60051904Y-124237785D01*
X60051904Y-124085404D01*
X60013809Y-124009214D01*
X59975714Y-123971119D01*
X59899523Y-123933023D01*
X59709047Y-123933023D01*
X59632857Y-123971119D01*
X59594761Y-124009214D01*
X59556666Y-124085404D01*
X59556666Y-124237785D01*
X59594761Y-124313976D01*
X59632857Y-124352071D01*
X59709047Y-124390166D01*
G04 #@! TO.C,REF1*
X125952380Y-48352380D02*
X125619047Y-47876190D01*
X125380952Y-48352380D02*
X125380952Y-47352380D01*
X125761904Y-47352380D01*
X125857142Y-47400000D01*
X125904761Y-47447619D01*
X125952380Y-47542857D01*
X125952380Y-47685714D01*
X125904761Y-47780952D01*
X125857142Y-47828571D01*
X125761904Y-47876190D01*
X125380952Y-47876190D01*
X126380952Y-47828571D02*
X126714285Y-47828571D01*
X126857142Y-48352380D02*
X126380952Y-48352380D01*
X126380952Y-47352380D01*
X126857142Y-47352380D01*
X127619047Y-47828571D02*
X127285714Y-47828571D01*
X127285714Y-48352380D02*
X127285714Y-47352380D01*
X127761904Y-47352380D01*
X128666666Y-48352380D02*
X128095238Y-48352380D01*
X128380952Y-48352380D02*
X128380952Y-47352380D01*
X128285714Y-47495238D01*
X128190476Y-47590476D01*
X128095238Y-47638095D01*
G04 #@! TO.C,REF2*
X33877380Y-48352380D02*
X33544047Y-47876190D01*
X33305952Y-48352380D02*
X33305952Y-47352380D01*
X33686904Y-47352380D01*
X33782142Y-47400000D01*
X33829761Y-47447619D01*
X33877380Y-47542857D01*
X33877380Y-47685714D01*
X33829761Y-47780952D01*
X33782142Y-47828571D01*
X33686904Y-47876190D01*
X33305952Y-47876190D01*
X34305952Y-47828571D02*
X34639285Y-47828571D01*
X34782142Y-48352380D02*
X34305952Y-48352380D01*
X34305952Y-47352380D01*
X34782142Y-47352380D01*
X35544047Y-47828571D02*
X35210714Y-47828571D01*
X35210714Y-48352380D02*
X35210714Y-47352380D01*
X35686904Y-47352380D01*
X36020238Y-47447619D02*
X36067857Y-47400000D01*
X36163095Y-47352380D01*
X36401190Y-47352380D01*
X36496428Y-47400000D01*
X36544047Y-47447619D01*
X36591666Y-47542857D01*
X36591666Y-47638095D01*
X36544047Y-47780952D01*
X35972619Y-48352380D01*
X36591666Y-48352380D01*
G04 #@! TO.C,REF4*
X70389880Y-124552380D02*
X70056547Y-124076190D01*
X69818452Y-124552380D02*
X69818452Y-123552380D01*
X70199404Y-123552380D01*
X70294642Y-123600000D01*
X70342261Y-123647619D01*
X70389880Y-123742857D01*
X70389880Y-123885714D01*
X70342261Y-123980952D01*
X70294642Y-124028571D01*
X70199404Y-124076190D01*
X69818452Y-124076190D01*
X70818452Y-124028571D02*
X71151785Y-124028571D01*
X71294642Y-124552380D02*
X70818452Y-124552380D01*
X70818452Y-123552380D01*
X71294642Y-123552380D01*
X72056547Y-124028571D02*
X71723214Y-124028571D01*
X71723214Y-124552380D02*
X71723214Y-123552380D01*
X72199404Y-123552380D01*
X73008928Y-123885714D02*
X73008928Y-124552380D01*
X72770833Y-123504761D02*
X72532738Y-124219047D01*
X73151785Y-124219047D01*
G04 #@! TO.C,REF3*
X108489880Y-124552380D02*
X108156547Y-124076190D01*
X107918452Y-124552380D02*
X107918452Y-123552380D01*
X108299404Y-123552380D01*
X108394642Y-123600000D01*
X108442261Y-123647619D01*
X108489880Y-123742857D01*
X108489880Y-123885714D01*
X108442261Y-123980952D01*
X108394642Y-124028571D01*
X108299404Y-124076190D01*
X107918452Y-124076190D01*
X108918452Y-124028571D02*
X109251785Y-124028571D01*
X109394642Y-124552380D02*
X108918452Y-124552380D01*
X108918452Y-123552380D01*
X109394642Y-123552380D01*
X110156547Y-124028571D02*
X109823214Y-124028571D01*
X109823214Y-124552380D02*
X109823214Y-123552380D01*
X110299404Y-123552380D01*
X110585119Y-123552380D02*
X111204166Y-123552380D01*
X110870833Y-123933333D01*
X111013690Y-123933333D01*
X111108928Y-123980952D01*
X111156547Y-124028571D01*
X111204166Y-124123809D01*
X111204166Y-124361904D01*
X111156547Y-124457142D01*
X111108928Y-124504761D01*
X111013690Y-124552380D01*
X110727976Y-124552380D01*
X110632738Y-124504761D01*
X110585119Y-124457142D01*
D11*
G04 #@! TO.C,SW2*
X112467261Y-105345833D02*
X112514880Y-105202976D01*
X112514880Y-104964880D01*
X112467261Y-104869642D01*
X112419642Y-104822023D01*
X112324404Y-104774404D01*
X112229166Y-104774404D01*
X112133928Y-104822023D01*
X112086309Y-104869642D01*
X112038690Y-104964880D01*
X111991071Y-105155357D01*
X111943452Y-105250595D01*
X111895833Y-105298214D01*
X111800595Y-105345833D01*
X111705357Y-105345833D01*
X111610119Y-105298214D01*
X111562500Y-105250595D01*
X111514880Y-105155357D01*
X111514880Y-104917261D01*
X111562500Y-104774404D01*
X111514880Y-104441071D02*
X112514880Y-104202976D01*
X111800595Y-104012500D01*
X112514880Y-103822023D01*
X111514880Y-103583928D01*
X111610119Y-103250595D02*
X111562500Y-103202976D01*
X111514880Y-103107738D01*
X111514880Y-102869642D01*
X111562500Y-102774404D01*
X111610119Y-102726785D01*
X111705357Y-102679166D01*
X111800595Y-102679166D01*
X111943452Y-102726785D01*
X112514880Y-103298214D01*
X112514880Y-102679166D01*
G04 #@! TO.C,SW3*
X36267261Y-105345833D02*
X36314880Y-105202976D01*
X36314880Y-104964880D01*
X36267261Y-104869642D01*
X36219642Y-104822023D01*
X36124404Y-104774404D01*
X36029166Y-104774404D01*
X35933928Y-104822023D01*
X35886309Y-104869642D01*
X35838690Y-104964880D01*
X35791071Y-105155357D01*
X35743452Y-105250595D01*
X35695833Y-105298214D01*
X35600595Y-105345833D01*
X35505357Y-105345833D01*
X35410119Y-105298214D01*
X35362500Y-105250595D01*
X35314880Y-105155357D01*
X35314880Y-104917261D01*
X35362500Y-104774404D01*
X35314880Y-104441071D02*
X36314880Y-104202976D01*
X35600595Y-104012500D01*
X36314880Y-103822023D01*
X35314880Y-103583928D01*
X35314880Y-103298214D02*
X35314880Y-102679166D01*
X35695833Y-103012500D01*
X35695833Y-102869642D01*
X35743452Y-102774404D01*
X35791071Y-102726785D01*
X35886309Y-102679166D01*
X36124404Y-102679166D01*
X36219642Y-102726785D01*
X36267261Y-102774404D01*
X36314880Y-102869642D01*
X36314880Y-103155357D01*
X36267261Y-103250595D01*
X36219642Y-103298214D01*
D10*
G04 #@! TO.C,SW1*
X90939880Y-125150380D02*
X90463690Y-125483714D01*
X90939880Y-125721809D02*
X89939880Y-125721809D01*
X89939880Y-125340857D01*
X89987500Y-125245619D01*
X90035119Y-125198000D01*
X90130357Y-125150380D01*
X90273214Y-125150380D01*
X90368452Y-125198000D01*
X90416071Y-125245619D01*
X90463690Y-125340857D01*
X90463690Y-125721809D01*
X90416071Y-124721809D02*
X90416071Y-124388476D01*
X90939880Y-124245619D02*
X90939880Y-124721809D01*
X89939880Y-124721809D01*
X89939880Y-124245619D01*
X90892261Y-123864666D02*
X90939880Y-123721809D01*
X90939880Y-123483714D01*
X90892261Y-123388476D01*
X90844642Y-123340857D01*
X90749404Y-123293238D01*
X90654166Y-123293238D01*
X90558928Y-123340857D01*
X90511309Y-123388476D01*
X90463690Y-123483714D01*
X90416071Y-123674190D01*
X90368452Y-123769428D01*
X90320833Y-123817047D01*
X90225595Y-123864666D01*
X90130357Y-123864666D01*
X90035119Y-123817047D01*
X89987500Y-123769428D01*
X89939880Y-123674190D01*
X89939880Y-123436095D01*
X89987500Y-123293238D01*
X90416071Y-122864666D02*
X90416071Y-122531333D01*
X90939880Y-122388476D02*
X90939880Y-122864666D01*
X89939880Y-122864666D01*
X89939880Y-122388476D01*
X89939880Y-122102761D02*
X89939880Y-121531333D01*
X90939880Y-121817047D02*
X89939880Y-121817047D01*
G04 #@! TO.C,G1*
G36*
X127080680Y-72785995D02*
G01*
X126922173Y-72771614D01*
X126853514Y-72766605D01*
X126813377Y-72763997D01*
X126775808Y-72761779D01*
X126739814Y-72759917D01*
X126704406Y-72758382D01*
X126668589Y-72757142D01*
X126631373Y-72756166D01*
X126591766Y-72755423D01*
X126548775Y-72754881D01*
X126501409Y-72754509D01*
X126462886Y-72754325D01*
X126422492Y-72754154D01*
X126387646Y-72753937D01*
X126357793Y-72753638D01*
X126332378Y-72753218D01*
X126310846Y-72752640D01*
X126292642Y-72751866D01*
X126277210Y-72750858D01*
X126263994Y-72749579D01*
X126252441Y-72747991D01*
X126241994Y-72746056D01*
X126232099Y-72743737D01*
X126222200Y-72740995D01*
X126211742Y-72737793D01*
X126209588Y-72737111D01*
X126177295Y-72724238D01*
X126148194Y-72707393D01*
X126122759Y-72687095D01*
X126101467Y-72663863D01*
X126084791Y-72638216D01*
X126073208Y-72610671D01*
X126067194Y-72581765D01*
X126067077Y-72563625D01*
X126071260Y-72548051D01*
X126080318Y-72533680D01*
X126092787Y-72520938D01*
X126106672Y-72509753D01*
X126121901Y-72499919D01*
X126138765Y-72491432D01*
X126157554Y-72484286D01*
X126178560Y-72478476D01*
X126202075Y-72473997D01*
X126228388Y-72470844D01*
X126257792Y-72469011D01*
X126290578Y-72468493D01*
X126327036Y-72469285D01*
X126367457Y-72471382D01*
X126412134Y-72474778D01*
X126461356Y-72479468D01*
X126515416Y-72485446D01*
X126574604Y-72492709D01*
X126639211Y-72501249D01*
X126701701Y-72509949D01*
X126732958Y-72514369D01*
X126763004Y-72518584D01*
X126791179Y-72522503D01*
X126816824Y-72526035D01*
X126839276Y-72529091D01*
X126857876Y-72531580D01*
X126871964Y-72533412D01*
X126880878Y-72534497D01*
X126882506Y-72534669D01*
X126903869Y-72536749D01*
X126844359Y-72500900D01*
X126752409Y-72443376D01*
X126665968Y-72384920D01*
X126585107Y-72325596D01*
X126509898Y-72265465D01*
X126440409Y-72204591D01*
X126376713Y-72143035D01*
X126318880Y-72080860D01*
X126266980Y-72018128D01*
X126221084Y-71954902D01*
X126212294Y-71941688D01*
X126197787Y-71918134D01*
X126182756Y-71891241D01*
X126167966Y-71862573D01*
X126154188Y-71833698D01*
X126142188Y-71806180D01*
X126132734Y-71781584D01*
X126130473Y-71774897D01*
X126122138Y-71747979D01*
X126116015Y-71724681D01*
X126111795Y-71703065D01*
X126110267Y-71690319D01*
X126362177Y-71690319D01*
X126365118Y-71726604D01*
X126373943Y-71764413D01*
X126388652Y-71803746D01*
X126409250Y-71844609D01*
X126435736Y-71887002D01*
X126468114Y-71930929D01*
X126506385Y-71976392D01*
X126550551Y-72023393D01*
X126600615Y-72071937D01*
X126656578Y-72122025D01*
X126718442Y-72173660D01*
X126726865Y-72180444D01*
X126796696Y-72234974D01*
X126863876Y-72284402D01*
X126928361Y-72328705D01*
X126990111Y-72367859D01*
X127049084Y-72401842D01*
X127105238Y-72430630D01*
X127158530Y-72454200D01*
X127208919Y-72472529D01*
X127256364Y-72485594D01*
X127290352Y-72491977D01*
X127319217Y-72495119D01*
X127343783Y-72495109D01*
X127365167Y-72491608D01*
X127384486Y-72484277D01*
X127402858Y-72472778D01*
X127421399Y-72456773D01*
X127427898Y-72450287D01*
X127450209Y-72423236D01*
X127467664Y-72392823D01*
X127480369Y-72358818D01*
X127488424Y-72320992D01*
X127489451Y-72313248D01*
X127490064Y-72301438D01*
X127489790Y-72285534D01*
X127488752Y-72267463D01*
X127487077Y-72249150D01*
X127484889Y-72232519D01*
X127483802Y-72226264D01*
X127473445Y-72186330D01*
X127457398Y-72144722D01*
X127435791Y-72101612D01*
X127408752Y-72057171D01*
X127376410Y-72011570D01*
X127338893Y-71964980D01*
X127296330Y-71917574D01*
X127248850Y-71869522D01*
X127196582Y-71820996D01*
X127147874Y-71778993D01*
X127084851Y-71729353D01*
X127021490Y-71685337D01*
X126957930Y-71647013D01*
X126894312Y-71614449D01*
X126830776Y-71587713D01*
X126767463Y-71566871D01*
X126704512Y-71551993D01*
X126663833Y-71545549D01*
X126638133Y-71543051D01*
X126610355Y-71541690D01*
X126581894Y-71541433D01*
X126554145Y-71542242D01*
X126528502Y-71544083D01*
X126506361Y-71546920D01*
X126491878Y-71549942D01*
X126459389Y-71560902D01*
X126431088Y-71575333D01*
X126407255Y-71592933D01*
X126388168Y-71613398D01*
X126374107Y-71636427D01*
X126365353Y-71661717D01*
X126362184Y-71688964D01*
X126362177Y-71690319D01*
X126110267Y-71690319D01*
X126109172Y-71681190D01*
X126107839Y-71657118D01*
X126107489Y-71629648D01*
X126107985Y-71601512D01*
X126109632Y-71577749D01*
X126112739Y-71556686D01*
X126117615Y-71536650D01*
X126124568Y-71515969D01*
X126131820Y-71497868D01*
X126149555Y-71463132D01*
X126172590Y-71429698D01*
X126200151Y-71398260D01*
X126231467Y-71369512D01*
X126265763Y-71344147D01*
X126302266Y-71322859D01*
X126340205Y-71306341D01*
X126348529Y-71303461D01*
X126369829Y-71296912D01*
X126389871Y-71291904D01*
X126409996Y-71288263D01*
X126431544Y-71285813D01*
X126455854Y-71284379D01*
X126484267Y-71283786D01*
X126499507Y-71283749D01*
X126582247Y-71286918D01*
X126663942Y-71296087D01*
X126744548Y-71311233D01*
X126824018Y-71332333D01*
X126902305Y-71359366D01*
X126979364Y-71392310D01*
X127055149Y-71431141D01*
X127129614Y-71475839D01*
X127202712Y-71526381D01*
X127274398Y-71582744D01*
X127344625Y-71644907D01*
X127413347Y-71712847D01*
X127432728Y-71733347D01*
X127489177Y-71796870D01*
X127539579Y-71859768D01*
X127583956Y-71922079D01*
X127622329Y-71983839D01*
X127654720Y-72045085D01*
X127681150Y-72105853D01*
X127701640Y-72166182D01*
X127715430Y-72222160D01*
X127723810Y-72271144D01*
X127728306Y-72315600D01*
X127728890Y-72355732D01*
X127725531Y-72391744D01*
X127718200Y-72423840D01*
X127706869Y-72452224D01*
X127691508Y-72477101D01*
X127676381Y-72494531D01*
X127657786Y-72511053D01*
X127634104Y-72528684D01*
X127606126Y-72546885D01*
X127574642Y-72565116D01*
X127566034Y-72569766D01*
X127552989Y-72576786D01*
X127542150Y-72582759D01*
X127534519Y-72587122D01*
X127531101Y-72589311D01*
X127531011Y-72589433D01*
X127533882Y-72590693D01*
X127542035Y-72593048D01*
X127554778Y-72596341D01*
X127571419Y-72600414D01*
X127591265Y-72605108D01*
X127613627Y-72610265D01*
X127637810Y-72615727D01*
X127663125Y-72621336D01*
X127688878Y-72626934D01*
X127714379Y-72632363D01*
X127738934Y-72637464D01*
X127758368Y-72641390D01*
X127801149Y-72649734D01*
X127844149Y-72657779D01*
X127888115Y-72665648D01*
X127933795Y-72673463D01*
X127981936Y-72681348D01*
X128033284Y-72689424D01*
X128088587Y-72697816D01*
X128148591Y-72706645D01*
X128202403Y-72714379D01*
X128256892Y-72722155D01*
X128305667Y-72729150D01*
X128349062Y-72735419D01*
X128387409Y-72741014D01*
X128421041Y-72745987D01*
X128450293Y-72750392D01*
X128475495Y-72754279D01*
X128496983Y-72757704D01*
X128515088Y-72760717D01*
X128530144Y-72763372D01*
X128542483Y-72765720D01*
X128552439Y-72767816D01*
X128560345Y-72769712D01*
X128566533Y-72771459D01*
X128569303Y-72772368D01*
X128589592Y-72780862D01*
X128611240Y-72792395D01*
X128632917Y-72806043D01*
X128653293Y-72820878D01*
X128671035Y-72835976D01*
X128684815Y-72850410D01*
X128688663Y-72855425D01*
X128698635Y-72871505D01*
X128704004Y-72886027D01*
X128705131Y-72900985D01*
X128702380Y-72918370D01*
X128701054Y-72923604D01*
X128693980Y-72942759D01*
X128682652Y-72964230D01*
X128667791Y-72986798D01*
X128650801Y-73008450D01*
X128634822Y-73026078D01*
X128620766Y-73038886D01*
X128607749Y-73047475D01*
X128594889Y-73052445D01*
X128583428Y-73054273D01*
X128569919Y-73054676D01*
X128554125Y-73054029D01*
X128535646Y-73052258D01*
X128514080Y-73049293D01*
X128489026Y-73045059D01*
X128460084Y-73039485D01*
X128426850Y-73032498D01*
X128388925Y-73024025D01*
X128345906Y-73013994D01*
X128301586Y-73003352D01*
X128116088Y-72959937D01*
X127934082Y-72920611D01*
X127755690Y-72885392D01*
X127581032Y-72854302D01*
X127410230Y-72827359D01*
X127319217Y-72814933D01*
X127243406Y-72804583D01*
X127080680Y-72785995D01*
G37*
G36*
X125680922Y-73978428D02*
G01*
X125687982Y-73981120D01*
X125698359Y-73987302D01*
X125710526Y-73996224D01*
X125724758Y-74008153D01*
X125741331Y-74023354D01*
X125760519Y-74042090D01*
X125782598Y-74064628D01*
X125807842Y-74091233D01*
X125836526Y-74122168D01*
X125852570Y-74139700D01*
X125882191Y-74171799D01*
X125914850Y-74206480D01*
X125950145Y-74243352D01*
X125987672Y-74282024D01*
X126027030Y-74322105D01*
X126067815Y-74363203D01*
X126109625Y-74404928D01*
X126152058Y-74446888D01*
X126194710Y-74488693D01*
X126237180Y-74529950D01*
X126279065Y-74570269D01*
X126319963Y-74609259D01*
X126359470Y-74646529D01*
X126397184Y-74681687D01*
X126432702Y-74714342D01*
X126465623Y-74744103D01*
X126495543Y-74770579D01*
X126522060Y-74793379D01*
X126543758Y-74811298D01*
X126564195Y-74827305D01*
X126582922Y-74841149D01*
X126599294Y-74852395D01*
X126612666Y-74860605D01*
X126622391Y-74865345D01*
X126625041Y-74866155D01*
X126630884Y-74866526D01*
X126637741Y-74864738D01*
X126647068Y-74860277D01*
X126656041Y-74855173D01*
X126677970Y-74841685D01*
X126701790Y-74825912D01*
X126727787Y-74807632D01*
X126756248Y-74786623D01*
X126787457Y-74762662D01*
X126821700Y-74735527D01*
X126859263Y-74704997D01*
X126900432Y-74670849D01*
X126945492Y-74632860D01*
X126983014Y-74600856D01*
X127026426Y-74563356D01*
X127065311Y-74529063D01*
X127100062Y-74497569D01*
X127131069Y-74468465D01*
X127158723Y-74441343D01*
X127183416Y-74415794D01*
X127205539Y-74391410D01*
X127225483Y-74367782D01*
X127243639Y-74344502D01*
X127260398Y-74321162D01*
X127276152Y-74297352D01*
X127280850Y-74289882D01*
X127297168Y-74263827D01*
X127310959Y-74242302D01*
X127322754Y-74224554D01*
X127333086Y-74209832D01*
X127342489Y-74197384D01*
X127351495Y-74186459D01*
X127360639Y-74176307D01*
X127363722Y-74173054D01*
X127387301Y-74149962D01*
X127412851Y-74127598D01*
X127439161Y-74106885D01*
X127465024Y-74088744D01*
X127489228Y-74074099D01*
X127502000Y-74067584D01*
X127512915Y-74062663D01*
X127520653Y-74060072D01*
X127527511Y-74059445D01*
X127535787Y-74060415D01*
X127540996Y-74061350D01*
X127563407Y-74068492D01*
X127585350Y-74081291D01*
X127606096Y-74099308D01*
X127608788Y-74102141D01*
X127619795Y-74115388D01*
X127627340Y-74128398D01*
X127631977Y-74142789D01*
X127634263Y-74160181D01*
X127634771Y-74177943D01*
X127632049Y-74213161D01*
X127623818Y-74249187D01*
X127609980Y-74286328D01*
X127590435Y-74324891D01*
X127584494Y-74335043D01*
X127572809Y-74353808D01*
X127560842Y-74371455D01*
X127547942Y-74388764D01*
X127533457Y-74406513D01*
X127516734Y-74425483D01*
X127497122Y-74446453D01*
X127473967Y-74470202D01*
X127458054Y-74486158D01*
X127434076Y-74509723D01*
X127409115Y-74533584D01*
X127382856Y-74558009D01*
X127354981Y-74583268D01*
X127325173Y-74609627D01*
X127293114Y-74637355D01*
X127258487Y-74666719D01*
X127220976Y-74697989D01*
X127180263Y-74731431D01*
X127136031Y-74767314D01*
X127087962Y-74805905D01*
X127035740Y-74847474D01*
X126979047Y-74892287D01*
X126955120Y-74911123D01*
X126922555Y-74936747D01*
X126894482Y-74958870D01*
X126870584Y-74977751D01*
X126850543Y-74993648D01*
X126834041Y-75006817D01*
X126820761Y-75017517D01*
X126810385Y-75026006D01*
X126802596Y-75032541D01*
X126797076Y-75037380D01*
X126793507Y-75040781D01*
X126791573Y-75043001D01*
X126790955Y-75044298D01*
X126790953Y-75044357D01*
X126793089Y-75046903D01*
X126799222Y-75053269D01*
X126808941Y-75063053D01*
X126821833Y-75075857D01*
X126837486Y-75091279D01*
X126855488Y-75108918D01*
X126875428Y-75128375D01*
X126896892Y-75149249D01*
X126919470Y-75171139D01*
X126942749Y-75193644D01*
X126966316Y-75216365D01*
X126989761Y-75238900D01*
X127012670Y-75260850D01*
X127034632Y-75281813D01*
X127055235Y-75301390D01*
X127061211Y-75307048D01*
X127123739Y-75365682D01*
X127183269Y-75420472D01*
X127239709Y-75471342D01*
X127292971Y-75518219D01*
X127342962Y-75561029D01*
X127389594Y-75599697D01*
X127432774Y-75634149D01*
X127472412Y-75664312D01*
X127508418Y-75690110D01*
X127540702Y-75711470D01*
X127569172Y-75728318D01*
X127586772Y-75737381D01*
X127596636Y-75741718D01*
X127610635Y-75747387D01*
X127627127Y-75753745D01*
X127644471Y-75760150D01*
X127650030Y-75762139D01*
X127692709Y-75777953D01*
X127729757Y-75793236D01*
X127761586Y-75808306D01*
X127788609Y-75823480D01*
X127811238Y-75839075D01*
X127829888Y-75855409D01*
X127844970Y-75872799D01*
X127856898Y-75891562D01*
X127866084Y-75912015D01*
X127872627Y-75933224D01*
X127876278Y-75951466D01*
X127878869Y-75972174D01*
X127880309Y-75993538D01*
X127880508Y-76013743D01*
X127879375Y-76030978D01*
X127877941Y-76039476D01*
X127871994Y-76059280D01*
X127863977Y-76074847D01*
X127852912Y-76087945D01*
X127849367Y-76091207D01*
X127835288Y-76101453D01*
X127819356Y-76108533D01*
X127800153Y-76112939D01*
X127781159Y-76114890D01*
X127758454Y-76114703D01*
X127734570Y-76111180D01*
X127708935Y-76104119D01*
X127680979Y-76093320D01*
X127650129Y-76078582D01*
X127615815Y-76059705D01*
X127603706Y-76052576D01*
X127563914Y-76027780D01*
X127521578Y-75999379D01*
X127476599Y-75967288D01*
X127428879Y-75931423D01*
X127378321Y-75891700D01*
X127324826Y-75848035D01*
X127268296Y-75800342D01*
X127208632Y-75748538D01*
X127145738Y-75692538D01*
X127079514Y-75632257D01*
X127009864Y-75567612D01*
X126936687Y-75498517D01*
X126859888Y-75424889D01*
X126779367Y-75346643D01*
X126749803Y-75317675D01*
X126721289Y-75289786D01*
X126696724Y-75266005D01*
X126675810Y-75246060D01*
X126658248Y-75229679D01*
X126643738Y-75216587D01*
X126631982Y-75206513D01*
X126622680Y-75199184D01*
X126615533Y-75194326D01*
X126613043Y-75192927D01*
X126607047Y-75190436D01*
X126601586Y-75190458D01*
X126594032Y-75193159D01*
X126591517Y-75194267D01*
X126584558Y-75197728D01*
X126575871Y-75202704D01*
X126565149Y-75209413D01*
X126552086Y-75218072D01*
X126536375Y-75228900D01*
X126517709Y-75242114D01*
X126495782Y-75257931D01*
X126470286Y-75276569D01*
X126440914Y-75298246D01*
X126407360Y-75323178D01*
X126369318Y-75351584D01*
X126363703Y-75355785D01*
X126296654Y-75405845D01*
X126234189Y-75452225D01*
X126176127Y-75495053D01*
X126122283Y-75534460D01*
X126072473Y-75570574D01*
X126026516Y-75603525D01*
X125984227Y-75633443D01*
X125945423Y-75660456D01*
X125909920Y-75684695D01*
X125877536Y-75706288D01*
X125848087Y-75725365D01*
X125821389Y-75742056D01*
X125797260Y-75756489D01*
X125789607Y-75760906D01*
X125768904Y-75772415D01*
X125752091Y-75780845D01*
X125738006Y-75786539D01*
X125725487Y-75789841D01*
X125713368Y-75791094D01*
X125700489Y-75790642D01*
X125692055Y-75789714D01*
X125666383Y-75784748D01*
X125640569Y-75776741D01*
X125615602Y-75766245D01*
X125592469Y-75753810D01*
X125572161Y-75739986D01*
X125555664Y-75725324D01*
X125543968Y-75710374D01*
X125541521Y-75705871D01*
X125535917Y-75687464D01*
X125535898Y-75667460D01*
X125541299Y-75646319D01*
X125551960Y-75624500D01*
X125567717Y-75602462D01*
X125584554Y-75584328D01*
X125598599Y-75571700D01*
X125614978Y-75558958D01*
X125634312Y-75545704D01*
X125657222Y-75531544D01*
X125684327Y-75516083D01*
X125716250Y-75498926D01*
X125729942Y-75491792D01*
X125800381Y-75454087D01*
X125870687Y-75413859D01*
X125941330Y-75370789D01*
X126012782Y-75324558D01*
X126085511Y-75274845D01*
X126159990Y-75221333D01*
X126236687Y-75163701D01*
X126316074Y-75101631D01*
X126376881Y-75052610D01*
X126432784Y-75007001D01*
X126425710Y-75000286D01*
X126421956Y-74996836D01*
X126414179Y-74989776D01*
X126402900Y-74979575D01*
X126388635Y-74966701D01*
X126371906Y-74951624D01*
X126353231Y-74934810D01*
X126333129Y-74916729D01*
X126324030Y-74908551D01*
X126248165Y-74840247D01*
X126176852Y-74775777D01*
X126109981Y-74715032D01*
X126047442Y-74657905D01*
X125989126Y-74604288D01*
X125934923Y-74554075D01*
X125884724Y-74507156D01*
X125838418Y-74463426D01*
X125795898Y-74422775D01*
X125757052Y-74385097D01*
X125721772Y-74350284D01*
X125689947Y-74318229D01*
X125661469Y-74288823D01*
X125636228Y-74261960D01*
X125614114Y-74237531D01*
X125595018Y-74215429D01*
X125578829Y-74195547D01*
X125565440Y-74177777D01*
X125554739Y-74162011D01*
X125546619Y-74148142D01*
X125543654Y-74142233D01*
X125538925Y-74131625D01*
X125536627Y-74123937D01*
X125536357Y-74116684D01*
X125537714Y-74107383D01*
X125537870Y-74106537D01*
X125542819Y-74088447D01*
X125551266Y-74070273D01*
X125563843Y-74050817D01*
X125574413Y-74037059D01*
X125592276Y-74017401D01*
X125611006Y-74001248D01*
X125629919Y-73988937D01*
X125648332Y-73980806D01*
X125665561Y-73977191D01*
X125680922Y-73978428D01*
G37*
G36*
X126437305Y-66120255D02*
G01*
X126445697Y-66121402D01*
X126453261Y-66123619D01*
X126461756Y-66127233D01*
X126468990Y-66130671D01*
X126490721Y-66143007D01*
X126507137Y-66156911D01*
X126518991Y-66173313D01*
X126527038Y-66193143D01*
X126530158Y-66206065D01*
X126532433Y-66232753D01*
X126529269Y-66259970D01*
X126520982Y-66286213D01*
X126508383Y-66309269D01*
X126502019Y-66317700D01*
X126492812Y-66328870D01*
X126482158Y-66341122D01*
X126474470Y-66349579D01*
X126454809Y-66373127D01*
X126440718Y-66395377D01*
X126439417Y-66397938D01*
X126430186Y-66422408D01*
X126426325Y-66447840D01*
X126427882Y-66474496D01*
X126434907Y-66502636D01*
X126447448Y-66532523D01*
X126465555Y-66564416D01*
X126472786Y-66575465D01*
X126495156Y-66605776D01*
X126522760Y-66638270D01*
X126555262Y-66672636D01*
X126592326Y-66708561D01*
X126633617Y-66745732D01*
X126678799Y-66783837D01*
X126727536Y-66822562D01*
X126779493Y-66861595D01*
X126781798Y-66863278D01*
X126868368Y-66923149D01*
X126955831Y-66977060D01*
X127044459Y-67025123D01*
X127134523Y-67067450D01*
X127226295Y-67104152D01*
X127320047Y-67135342D01*
X127416052Y-67161132D01*
X127514580Y-67181632D01*
X127581365Y-67192354D01*
X127612669Y-67197187D01*
X127638924Y-67202129D01*
X127661181Y-67207443D01*
X127680494Y-67213390D01*
X127697913Y-67220232D01*
X127703436Y-67222736D01*
X127727155Y-67236511D01*
X127746160Y-67253556D01*
X127760606Y-67274151D01*
X127770646Y-67298574D01*
X127776435Y-67327106D01*
X127778138Y-67358063D01*
X127777637Y-67374750D01*
X127776065Y-67387098D01*
X127773176Y-67396813D01*
X127772296Y-67398862D01*
X127761079Y-67416388D01*
X127744172Y-67432364D01*
X127721820Y-67446660D01*
X127694270Y-67459148D01*
X127661767Y-67469697D01*
X127624557Y-67478177D01*
X127620500Y-67478922D01*
X127600188Y-67482422D01*
X127580673Y-67485424D01*
X127561301Y-67487962D01*
X127541416Y-67490073D01*
X127520364Y-67491792D01*
X127497489Y-67493154D01*
X127472136Y-67494195D01*
X127443651Y-67494951D01*
X127411377Y-67495457D01*
X127374661Y-67495748D01*
X127332847Y-67495860D01*
X127308230Y-67495859D01*
X127203573Y-67495284D01*
X127104747Y-67493717D01*
X127011558Y-67491149D01*
X126923812Y-67487570D01*
X126841316Y-67482969D01*
X126763875Y-67477336D01*
X126691297Y-67470660D01*
X126623388Y-67462932D01*
X126584488Y-67457742D01*
X126569066Y-67455689D01*
X126549103Y-67453225D01*
X126526131Y-67450526D01*
X126501683Y-67447772D01*
X126477294Y-67445141D01*
X126466995Y-67444071D01*
X126426264Y-67439682D01*
X126391241Y-67435446D01*
X126361534Y-67431302D01*
X126336750Y-67427186D01*
X126316497Y-67423039D01*
X126300383Y-67418797D01*
X126294630Y-67416929D01*
X126268590Y-67404849D01*
X126244134Y-67387733D01*
X126222077Y-67366561D01*
X126203237Y-67342313D01*
X126188433Y-67315967D01*
X126178480Y-67288503D01*
X126175502Y-67274164D01*
X126173779Y-67246104D01*
X126177352Y-67220832D01*
X126185923Y-67198686D01*
X126199199Y-67180005D01*
X126216882Y-67165126D01*
X126238677Y-67154389D01*
X126264289Y-67148131D01*
X126286989Y-67146577D01*
X126300435Y-67146838D01*
X126314053Y-67147711D01*
X126328500Y-67149330D01*
X126344432Y-67151830D01*
X126362505Y-67155344D01*
X126383374Y-67160007D01*
X126407695Y-67165953D01*
X126436126Y-67173316D01*
X126469320Y-67182231D01*
X126493404Y-67188822D01*
X126533857Y-67199405D01*
X126568975Y-67207424D01*
X126598691Y-67212864D01*
X126617001Y-67215206D01*
X126627769Y-67216546D01*
X126642801Y-67218808D01*
X126660376Y-67221715D01*
X126678772Y-67224988D01*
X126685472Y-67226243D01*
X126704775Y-67229601D01*
X126727965Y-67233151D01*
X126752847Y-67236585D01*
X126777226Y-67239595D01*
X126792285Y-67241230D01*
X126816874Y-67243557D01*
X126844813Y-67245930D01*
X126875128Y-67248287D01*
X126906843Y-67250569D01*
X126938986Y-67252714D01*
X126970583Y-67254661D01*
X127000660Y-67256350D01*
X127028243Y-67257719D01*
X127052358Y-67258709D01*
X127072032Y-67259258D01*
X127082398Y-67259348D01*
X127120546Y-67259209D01*
X127105287Y-67251265D01*
X127098323Y-67247847D01*
X127086726Y-67242391D01*
X127071439Y-67235331D01*
X127053410Y-67227103D01*
X127033585Y-67218140D01*
X127016785Y-67210607D01*
X126983034Y-67195268D01*
X126947540Y-67178657D01*
X126911348Y-67161292D01*
X126875502Y-67143693D01*
X126841049Y-67126380D01*
X126809031Y-67109871D01*
X126780496Y-67094686D01*
X126756488Y-67081345D01*
X126755550Y-67080807D01*
X126716371Y-67057350D01*
X126675015Y-67030817D01*
X126632238Y-67001796D01*
X126588795Y-66970872D01*
X126545439Y-66938630D01*
X126502925Y-66905658D01*
X126462009Y-66872540D01*
X126423444Y-66839863D01*
X126387986Y-66808214D01*
X126356389Y-66778177D01*
X126329407Y-66750339D01*
X126328011Y-66748816D01*
X126292521Y-66707751D01*
X126260619Y-66666270D01*
X126232771Y-66625074D01*
X126209444Y-66584865D01*
X126191108Y-66546344D01*
X126188015Y-66538738D01*
X126175593Y-66500536D01*
X126167396Y-66460399D01*
X126163425Y-66419404D01*
X126163678Y-66378629D01*
X126168157Y-66339151D01*
X126176859Y-66302050D01*
X126188063Y-66272111D01*
X126206113Y-66239046D01*
X126228762Y-66208665D01*
X126255261Y-66181621D01*
X126284862Y-66158568D01*
X126316816Y-66140159D01*
X126350375Y-66127047D01*
X126356074Y-66125422D01*
X126375829Y-66121791D01*
X126401175Y-66120029D01*
X126411006Y-66119859D01*
X126426328Y-66119850D01*
X126437305Y-66120255D01*
G37*
G36*
X126330666Y-73268707D02*
G01*
X126347576Y-73270418D01*
X126367492Y-73273715D01*
X126390938Y-73278639D01*
X126418437Y-73285231D01*
X126450511Y-73293531D01*
X126487683Y-73303578D01*
X126504085Y-73308093D01*
X126574099Y-73327234D01*
X126640008Y-73344847D01*
X126701560Y-73360869D01*
X126758506Y-73375238D01*
X126810596Y-73387892D01*
X126857577Y-73398768D01*
X126899202Y-73407804D01*
X126925231Y-73413042D01*
X126998217Y-73425376D01*
X127075801Y-73435122D01*
X127157019Y-73442204D01*
X127240907Y-73446548D01*
X127326502Y-73448079D01*
X127371926Y-73447729D01*
X127405427Y-73447018D01*
X127434319Y-73445987D01*
X127460096Y-73444484D01*
X127484250Y-73442357D01*
X127508275Y-73439453D01*
X127533663Y-73435622D01*
X127561907Y-73430710D01*
X127588994Y-73425625D01*
X127612476Y-73421125D01*
X127630765Y-73417686D01*
X127644666Y-73415235D01*
X127654984Y-73413701D01*
X127662522Y-73413009D01*
X127668087Y-73413087D01*
X127672481Y-73413862D01*
X127676510Y-73415260D01*
X127680979Y-73417209D01*
X127681106Y-73417265D01*
X127694122Y-73424933D01*
X127708812Y-73436707D01*
X127723874Y-73451368D01*
X127738001Y-73467697D01*
X127744844Y-73476866D01*
X127759641Y-73502523D01*
X127769274Y-73529581D01*
X127773501Y-73557070D01*
X127772077Y-73584017D01*
X127771885Y-73585151D01*
X127764670Y-73609591D01*
X127752054Y-73631229D01*
X127734069Y-73650044D01*
X127710747Y-73666018D01*
X127682119Y-73679130D01*
X127648217Y-73689361D01*
X127609072Y-73696691D01*
X127589094Y-73699106D01*
X127571770Y-73700331D01*
X127549455Y-73701066D01*
X127523242Y-73701332D01*
X127494220Y-73701150D01*
X127463483Y-73700543D01*
X127432122Y-73699532D01*
X127401227Y-73698138D01*
X127371891Y-73696384D01*
X127345205Y-73694292D01*
X127344852Y-73694260D01*
X127283850Y-73688239D01*
X127219853Y-73680944D01*
X127152475Y-73672317D01*
X127081328Y-73662299D01*
X127006027Y-73650834D01*
X126926186Y-73637864D01*
X126841419Y-73623331D01*
X126751339Y-73607178D01*
X126711606Y-73599855D01*
X126662948Y-73590882D01*
X126619875Y-73583077D01*
X126581995Y-73576379D01*
X126548914Y-73570728D01*
X126520239Y-73566063D01*
X126495577Y-73562324D01*
X126474536Y-73559448D01*
X126456721Y-73557377D01*
X126441741Y-73556048D01*
X126429201Y-73555402D01*
X126423407Y-73555315D01*
X126387106Y-73553566D01*
X126351995Y-73548534D01*
X126318941Y-73540494D01*
X126288811Y-73529723D01*
X126262471Y-73516497D01*
X126240788Y-73501090D01*
X126234404Y-73495178D01*
X126223011Y-73482647D01*
X126215018Y-73470598D01*
X126209971Y-73457617D01*
X126207417Y-73442286D01*
X126206902Y-73423189D01*
X126207320Y-73410647D01*
X126211272Y-73377424D01*
X126219776Y-73347908D01*
X126232745Y-73322289D01*
X126250092Y-73300756D01*
X126263052Y-73289507D01*
X126272907Y-73282544D01*
X126282630Y-73276926D01*
X126292744Y-73272693D01*
X126303773Y-73269885D01*
X126316239Y-73268543D01*
X126330666Y-73268707D01*
G37*
G36*
X126881257Y-69087465D02*
G01*
X126813433Y-69063608D01*
X126745492Y-69035116D01*
X126698959Y-69013092D01*
X126617925Y-68970035D01*
X126540096Y-68922552D01*
X126465975Y-68871001D01*
X126396063Y-68815737D01*
X126330864Y-68757119D01*
X126310210Y-68736841D01*
X126272260Y-68697152D01*
X126239137Y-68658976D01*
X126210104Y-68621314D01*
X126184424Y-68583168D01*
X126161361Y-68543539D01*
X126146831Y-68515302D01*
X126125797Y-68468690D01*
X126109540Y-68423969D01*
X126097698Y-68379736D01*
X126089910Y-68334588D01*
X126089212Y-68326505D01*
X126303144Y-68326505D01*
X126303808Y-68346847D01*
X126306581Y-68367211D01*
X126308660Y-68376446D01*
X126319342Y-68407897D01*
X126335374Y-68441051D01*
X126356416Y-68475404D01*
X126382127Y-68510452D01*
X126412166Y-68545690D01*
X126446194Y-68580615D01*
X126447313Y-68581691D01*
X126506117Y-68634291D01*
X126567829Y-68681920D01*
X126632731Y-68724739D01*
X126701105Y-68762905D01*
X126773235Y-68796578D01*
X126849402Y-68825916D01*
X126924890Y-68849669D01*
X126942626Y-68854668D01*
X126955331Y-68858145D01*
X126963836Y-68860277D01*
X126968973Y-68861239D01*
X126971572Y-68861205D01*
X126972466Y-68860353D01*
X126972534Y-68859720D01*
X126971025Y-68856599D01*
X126966839Y-68849148D01*
X126960483Y-68838243D01*
X126952468Y-68824759D01*
X126944569Y-68811654D01*
X126896658Y-68734546D01*
X126849826Y-68662969D01*
X126804107Y-68596959D01*
X126759531Y-68536551D01*
X126716133Y-68481781D01*
X126673943Y-68432685D01*
X126632995Y-68389299D01*
X126593320Y-68351658D01*
X126554952Y-68319798D01*
X126517923Y-68293754D01*
X126482264Y-68273563D01*
X126448008Y-68259260D01*
X126441392Y-68257128D01*
X126423023Y-68252941D01*
X126402356Y-68250533D01*
X126381516Y-68249981D01*
X126362628Y-68251361D01*
X126350560Y-68253846D01*
X126335163Y-68261246D01*
X126321340Y-68273047D01*
X126310908Y-68287551D01*
X126308186Y-68293479D01*
X126304600Y-68308083D01*
X126303144Y-68326505D01*
X126089212Y-68326505D01*
X126085814Y-68287123D01*
X126085405Y-68277213D01*
X126084814Y-68255737D01*
X126084749Y-68238907D01*
X126085273Y-68225284D01*
X126086451Y-68213430D01*
X126088346Y-68201905D01*
X126088840Y-68199393D01*
X126097616Y-68165891D01*
X126109933Y-68136415D01*
X126126527Y-68109570D01*
X126148133Y-68083960D01*
X126151604Y-68080390D01*
X126175477Y-68058418D01*
X126199507Y-68041204D01*
X126225448Y-68027720D01*
X126255057Y-68016938D01*
X126264889Y-68014084D01*
X126280393Y-68011131D01*
X126300400Y-68009305D01*
X126323423Y-68008587D01*
X126347970Y-68008957D01*
X126372551Y-68010398D01*
X126395676Y-68012888D01*
X126414058Y-68016020D01*
X126462233Y-68028613D01*
X126509212Y-68045903D01*
X126555293Y-68068085D01*
X126600776Y-68095355D01*
X126645960Y-68127907D01*
X126691143Y-68165937D01*
X126736626Y-68209641D01*
X126777478Y-68253333D01*
X126833893Y-68319468D01*
X126890165Y-68391442D01*
X126946112Y-68468989D01*
X127001551Y-68551844D01*
X127056298Y-68639742D01*
X127110169Y-68732418D01*
X127115904Y-68742660D01*
X127130214Y-68768270D01*
X127141948Y-68789137D01*
X127151479Y-68805863D01*
X127159179Y-68819048D01*
X127165422Y-68829295D01*
X127170579Y-68837204D01*
X127175024Y-68843377D01*
X127179130Y-68848415D01*
X127183268Y-68852919D01*
X127185944Y-68855637D01*
X127196305Y-68864668D01*
X127208049Y-68873010D01*
X127215151Y-68877069D01*
X127222179Y-68880253D01*
X127228857Y-68882376D01*
X127236652Y-68883640D01*
X127247034Y-68884244D01*
X127261472Y-68884390D01*
X127268557Y-68884365D01*
X127310200Y-68881468D01*
X127348942Y-68873247D01*
X127384727Y-68859720D01*
X127417497Y-68840907D01*
X127431828Y-68830256D01*
X127456833Y-68807020D01*
X127477444Y-68780834D01*
X127493794Y-68751356D01*
X127506018Y-68718244D01*
X127514250Y-68681155D01*
X127518625Y-68639747D01*
X127519461Y-68606856D01*
X127516493Y-68550386D01*
X127507945Y-68494108D01*
X127493737Y-68437752D01*
X127473786Y-68381045D01*
X127448010Y-68323719D01*
X127416326Y-68265502D01*
X127415575Y-68264232D01*
X127393514Y-68228732D01*
X127369419Y-68193483D01*
X127342774Y-68157847D01*
X127313065Y-68121182D01*
X127279778Y-68082850D01*
X127242396Y-68042208D01*
X127208889Y-68007286D01*
X127187601Y-67985300D01*
X127170315Y-67967029D01*
X127156634Y-67951951D01*
X127146164Y-67939545D01*
X127138513Y-67929290D01*
X127133284Y-67920666D01*
X127130083Y-67913150D01*
X127128517Y-67906221D01*
X127128175Y-67900638D01*
X127131084Y-67886688D01*
X127139321Y-67874562D01*
X127151063Y-67865926D01*
X127163203Y-67861704D01*
X127179611Y-67858988D01*
X127198624Y-67857848D01*
X127218578Y-67858353D01*
X127237810Y-67860573D01*
X127245010Y-67861976D01*
X127272987Y-67870588D01*
X127303205Y-67884319D01*
X127335181Y-67902824D01*
X127368433Y-67925758D01*
X127402477Y-67952777D01*
X127436832Y-67983537D01*
X127471015Y-68017693D01*
X127486056Y-68033908D01*
X127536572Y-68092033D01*
X127581472Y-68148870D01*
X127620994Y-68204862D01*
X127655374Y-68260452D01*
X127684851Y-68316083D01*
X127709661Y-68372199D01*
X127730041Y-68429243D01*
X127746229Y-68487658D01*
X127757180Y-68540463D01*
X127759569Y-68557696D01*
X127761585Y-68579466D01*
X127763187Y-68604358D01*
X127764332Y-68630953D01*
X127764981Y-68657835D01*
X127765093Y-68683587D01*
X127764625Y-68706793D01*
X127763538Y-68726036D01*
X127762777Y-68733505D01*
X127753482Y-68788816D01*
X127739805Y-68840182D01*
X127721790Y-68887476D01*
X127699485Y-68930573D01*
X127679573Y-68960602D01*
X127648374Y-68997897D01*
X127612639Y-69031178D01*
X127572489Y-69060374D01*
X127528043Y-69085418D01*
X127479423Y-69106240D01*
X127426750Y-69122772D01*
X127376895Y-69133760D01*
X127365448Y-69135750D01*
X127354995Y-69137335D01*
X127344643Y-69138557D01*
X127333496Y-69139464D01*
X127320661Y-69140099D01*
X127305243Y-69140507D01*
X127286349Y-69140734D01*
X127263083Y-69140825D01*
X127236513Y-69140826D01*
X127205232Y-69140720D01*
X127179176Y-69140441D01*
X127157468Y-69139955D01*
X127139233Y-69139228D01*
X127123594Y-69138225D01*
X127109673Y-69136912D01*
X127097657Y-69135406D01*
X127022005Y-69122946D01*
X126968973Y-69111226D01*
X126950327Y-69107105D01*
X126881257Y-69087465D01*
G37*
G36*
X127545355Y-69357588D02*
G01*
X127555121Y-69361245D01*
X127559819Y-69363475D01*
X127576566Y-69374546D01*
X127592548Y-69390437D01*
X127606866Y-69409864D01*
X127618622Y-69431543D01*
X127626918Y-69454191D01*
X127628832Y-69462080D01*
X127630985Y-69480476D01*
X127630889Y-69502014D01*
X127628714Y-69524236D01*
X127624632Y-69544680D01*
X127622595Y-69551537D01*
X127609611Y-69581526D01*
X127591058Y-69610884D01*
X127567470Y-69639079D01*
X127539382Y-69665577D01*
X127507326Y-69689846D01*
X127471839Y-69711353D01*
X127452700Y-69721035D01*
X127414749Y-69736975D01*
X127371185Y-69751549D01*
X127322360Y-69764679D01*
X127268629Y-69776287D01*
X127210343Y-69786296D01*
X127147857Y-69794626D01*
X127094605Y-69800073D01*
X127053632Y-69803744D01*
X127018065Y-69806961D01*
X126987229Y-69809790D01*
X126960451Y-69812298D01*
X126937055Y-69814552D01*
X126916366Y-69816616D01*
X126897710Y-69818558D01*
X126880411Y-69820444D01*
X126863796Y-69822340D01*
X126847189Y-69824313D01*
X126844359Y-69824655D01*
X126798840Y-69830510D01*
X126758987Y-69836374D01*
X126724364Y-69842365D01*
X126694535Y-69848596D01*
X126669061Y-69855183D01*
X126647509Y-69862243D01*
X126629439Y-69869889D01*
X126614418Y-69878237D01*
X126602006Y-69887404D01*
X126599886Y-69889267D01*
X126586305Y-69904172D01*
X126578126Y-69920052D01*
X126574670Y-69938396D01*
X126574450Y-69945063D01*
X126575894Y-69961039D01*
X126580520Y-69977379D01*
X126588647Y-69994577D01*
X126600595Y-70013126D01*
X126616682Y-70033520D01*
X126637229Y-70056252D01*
X126662553Y-70081815D01*
X126663483Y-70082722D01*
X126691867Y-70109216D01*
X126723965Y-70137012D01*
X126759930Y-70166210D01*
X126799912Y-70196913D01*
X126844064Y-70229223D01*
X126892535Y-70263243D01*
X126945478Y-70299074D01*
X127003043Y-70336819D01*
X127065382Y-70376579D01*
X127132646Y-70418457D01*
X127204987Y-70462556D01*
X127282555Y-70508976D01*
X127365501Y-70557820D01*
X127376895Y-70564475D01*
X127429839Y-70595624D01*
X127477584Y-70624284D01*
X127520407Y-70650662D01*
X127558585Y-70674968D01*
X127592396Y-70697408D01*
X127622114Y-70718190D01*
X127648018Y-70737523D01*
X127670385Y-70755614D01*
X127689490Y-70772672D01*
X127705611Y-70788903D01*
X127719025Y-70804517D01*
X127730008Y-70819721D01*
X127738838Y-70834722D01*
X127740190Y-70837357D01*
X127745291Y-70847996D01*
X127748396Y-70856475D01*
X127749972Y-70865019D01*
X127750488Y-70875854D01*
X127750466Y-70886186D01*
X127749893Y-70900580D01*
X127748609Y-70914430D01*
X127746857Y-70925330D01*
X127746256Y-70927738D01*
X127741489Y-70942927D01*
X127736463Y-70954903D01*
X127729849Y-70966461D01*
X127723015Y-70976581D01*
X127704557Y-70998174D01*
X127683300Y-71014389D01*
X127659374Y-71025149D01*
X127632907Y-71030380D01*
X127630926Y-71030539D01*
X127622101Y-71030931D01*
X127612245Y-71030811D01*
X127600830Y-71030103D01*
X127587327Y-71028728D01*
X127571209Y-71026610D01*
X127551947Y-71023671D01*
X127529014Y-71019833D01*
X127501881Y-71015019D01*
X127470020Y-71009152D01*
X127432902Y-71002153D01*
X127417951Y-70999304D01*
X127143218Y-70948328D01*
X126872063Y-70901067D01*
X126603359Y-70857348D01*
X126335980Y-70816995D01*
X126068800Y-70779835D01*
X125800692Y-70745693D01*
X125702992Y-70734021D01*
X125651665Y-70727777D01*
X125605961Y-70721707D01*
X125565408Y-70715686D01*
X125529534Y-70709587D01*
X125497865Y-70703285D01*
X125469929Y-70696654D01*
X125445253Y-70689566D01*
X125423364Y-70681896D01*
X125403791Y-70673518D01*
X125386060Y-70664305D01*
X125369698Y-70654132D01*
X125354234Y-70642872D01*
X125350511Y-70639919D01*
X125333266Y-70624692D01*
X125318621Y-70609109D01*
X125307333Y-70594122D01*
X125300162Y-70580686D01*
X125298233Y-70574230D01*
X125297540Y-70557046D01*
X125300901Y-70537168D01*
X125307803Y-70515951D01*
X125317733Y-70494749D01*
X125330179Y-70474919D01*
X125340691Y-70461943D01*
X125357656Y-70445359D01*
X125375878Y-70431779D01*
X125395975Y-70421047D01*
X125418563Y-70413005D01*
X125444261Y-70407497D01*
X125473685Y-70404365D01*
X125507454Y-70403453D01*
X125546185Y-70404604D01*
X125562610Y-70405568D01*
X125617388Y-70409960D01*
X125673907Y-70416119D01*
X125732603Y-70424129D01*
X125793915Y-70434076D01*
X125858282Y-70446044D01*
X125926142Y-70460117D01*
X125997933Y-70476383D01*
X126074092Y-70494924D01*
X126155060Y-70515827D01*
X126217217Y-70532562D01*
X126261154Y-70544340D01*
X126307583Y-70556343D01*
X126356152Y-70568502D01*
X126406512Y-70580749D01*
X126458310Y-70593014D01*
X126511195Y-70605229D01*
X126564816Y-70617325D01*
X126618822Y-70629233D01*
X126672861Y-70640884D01*
X126726583Y-70652209D01*
X126779635Y-70663139D01*
X126831667Y-70673606D01*
X126882327Y-70683540D01*
X126931264Y-70692872D01*
X126978126Y-70701535D01*
X127022564Y-70709458D01*
X127064224Y-70716573D01*
X127102756Y-70722810D01*
X127137809Y-70728102D01*
X127169032Y-70732380D01*
X127196072Y-70735573D01*
X127218579Y-70737614D01*
X127236202Y-70738433D01*
X127248589Y-70737963D01*
X127255345Y-70736161D01*
X127258747Y-70731677D01*
X127260897Y-70726001D01*
X127261362Y-70722924D01*
X127260567Y-70720104D01*
X127257783Y-70716983D01*
X127252280Y-70713005D01*
X127243327Y-70707614D01*
X127230196Y-70700254D01*
X127219177Y-70694206D01*
X127125732Y-70642134D01*
X127036477Y-70590468D01*
X126951569Y-70539319D01*
X126871166Y-70488798D01*
X126795427Y-70439017D01*
X126724510Y-70390086D01*
X126658572Y-70342118D01*
X126597773Y-70295223D01*
X126542270Y-70249512D01*
X126492221Y-70205097D01*
X126447784Y-70162090D01*
X126418135Y-70130714D01*
X126381472Y-70088147D01*
X126350254Y-70047400D01*
X126324239Y-70008074D01*
X126303187Y-69969770D01*
X126286857Y-69932090D01*
X126275006Y-69894636D01*
X126274878Y-69894138D01*
X126271361Y-69879413D01*
X126269186Y-69866896D01*
X126268126Y-69854310D01*
X126267952Y-69839374D01*
X126268198Y-69827569D01*
X126268808Y-69811103D01*
X126269754Y-69799090D01*
X126271319Y-69789881D01*
X126273785Y-69781827D01*
X126277436Y-69773278D01*
X126277532Y-69773070D01*
X126290508Y-69749620D01*
X126306751Y-69728416D01*
X126326609Y-69709267D01*
X126350430Y-69691980D01*
X126378560Y-69676363D01*
X126411349Y-69662225D01*
X126449144Y-69649372D01*
X126492293Y-69637613D01*
X126541144Y-69626756D01*
X126543162Y-69626350D01*
X126583924Y-69618737D01*
X126629683Y-69611213D01*
X126679332Y-69603936D01*
X126731762Y-69597067D01*
X126785868Y-69590768D01*
X126797056Y-69589562D01*
X126844016Y-69584472D01*
X126885641Y-69579725D01*
X126922684Y-69575211D01*
X126955898Y-69570817D01*
X126986034Y-69566432D01*
X127013845Y-69561942D01*
X127040083Y-69557236D01*
X127065500Y-69552203D01*
X127090849Y-69546729D01*
X127102691Y-69544032D01*
X127161601Y-69529089D01*
X127215409Y-69512546D01*
X127264987Y-69494037D01*
X127311213Y-69473196D01*
X127354959Y-69449656D01*
X127397101Y-69423051D01*
X127405862Y-69417017D01*
X127435816Y-69396867D01*
X127461926Y-69380997D01*
X127484525Y-69369239D01*
X127503946Y-69361423D01*
X127520523Y-69357381D01*
X127524209Y-69356945D01*
X127536139Y-69356354D01*
X127545355Y-69357588D01*
G37*
G36*
X125423004Y-72994992D02*
G01*
X125445502Y-72998358D01*
X125471191Y-73003563D01*
X125498885Y-73010272D01*
X125527394Y-73018153D01*
X125555532Y-73026874D01*
X125582110Y-73036101D01*
X125605943Y-73045501D01*
X125625841Y-73054742D01*
X125629749Y-73056817D01*
X125655965Y-73073105D01*
X125677954Y-73091350D01*
X125696808Y-73112708D01*
X125713615Y-73138336D01*
X125722819Y-73155540D01*
X125735316Y-73182525D01*
X125744848Y-73207496D01*
X125751289Y-73229886D01*
X125754510Y-73249129D01*
X125754385Y-73264658D01*
X125750786Y-73275907D01*
X125750093Y-73276973D01*
X125745510Y-73281930D01*
X125738377Y-73286888D01*
X125727954Y-73292200D01*
X125713502Y-73298222D01*
X125694281Y-73305308D01*
X125682277Y-73309489D01*
X125663122Y-73316095D01*
X125641175Y-73323703D01*
X125619401Y-73331285D01*
X125603809Y-73336741D01*
X125565273Y-73348705D01*
X125530228Y-73356251D01*
X125498075Y-73359488D01*
X125479824Y-73359403D01*
X125461489Y-73357590D01*
X125445194Y-73353608D01*
X125429818Y-73346864D01*
X125414243Y-73336764D01*
X125397348Y-73322714D01*
X125380708Y-73306817D01*
X125355720Y-73279451D01*
X125336267Y-73252390D01*
X125321895Y-73224764D01*
X125312149Y-73195701D01*
X125306606Y-73164601D01*
X125305554Y-73135768D01*
X125309287Y-73108359D01*
X125318088Y-73081189D01*
X125332242Y-73053074D01*
X125334170Y-73049821D01*
X125348617Y-73028120D01*
X125362668Y-73012064D01*
X125376819Y-73001261D01*
X125391564Y-72995318D01*
X125404885Y-72993795D01*
X125423004Y-72994992D01*
G37*
D12*
G04 #@! TO.C,U1*
X66040000Y-110172500D02*
X35560000Y-110172500D01*
X33020000Y-127952500D02*
X35560000Y-127952500D01*
X35560000Y-110172500D02*
X33020000Y-110172500D01*
X35560000Y-127952500D02*
X66040000Y-127952500D01*
X38100000Y-125412500D02*
X38100000Y-127952500D01*
X35560000Y-125412500D02*
X35560000Y-127952500D01*
X33020000Y-110172500D02*
X33020000Y-127952500D01*
X66040000Y-127952500D02*
X66040000Y-110172500D01*
X35560000Y-125412500D02*
X38100000Y-125412500D01*
D10*
X41439360Y-114130932D02*
X41539360Y-114130932D01*
X41539360Y-114130932D02*
X41539360Y-114630932D01*
X41539360Y-114630932D02*
X41439360Y-114630932D01*
X41439360Y-114630932D02*
X41439360Y-114130932D01*
G36*
X41539360Y-114630932D02*
G01*
X41439360Y-114630932D01*
X41439360Y-114130932D01*
X41539360Y-114130932D01*
X41539360Y-114630932D01*
G37*
X41539360Y-114630932D02*
X41439360Y-114630932D01*
X41439360Y-114130932D01*
X41539360Y-114130932D01*
X41539360Y-114630932D01*
X42039360Y-114130932D02*
X42239360Y-114130932D01*
X42239360Y-114130932D02*
X42239360Y-114230932D01*
X42239360Y-114230932D02*
X42039360Y-114230932D01*
X42039360Y-114230932D02*
X42039360Y-114130932D01*
G36*
X42239360Y-114230932D02*
G01*
X42039360Y-114230932D01*
X42039360Y-114130932D01*
X42239360Y-114130932D01*
X42239360Y-114230932D01*
G37*
X42239360Y-114230932D02*
X42039360Y-114230932D01*
X42039360Y-114130932D01*
X42239360Y-114130932D01*
X42239360Y-114230932D01*
X41439360Y-114530932D02*
X42239360Y-114530932D01*
X42239360Y-114530932D02*
X42239360Y-114630932D01*
X42239360Y-114630932D02*
X41439360Y-114630932D01*
X41439360Y-114630932D02*
X41439360Y-114530932D01*
G36*
X42239360Y-114630932D02*
G01*
X41439360Y-114630932D01*
X41439360Y-114530932D01*
X42239360Y-114530932D01*
X42239360Y-114630932D01*
G37*
X42239360Y-114630932D02*
X41439360Y-114630932D01*
X41439360Y-114530932D01*
X42239360Y-114530932D01*
X42239360Y-114630932D01*
X41839360Y-114330932D02*
X41939360Y-114330932D01*
X41939360Y-114330932D02*
X41939360Y-114430932D01*
X41939360Y-114430932D02*
X41839360Y-114430932D01*
X41839360Y-114430932D02*
X41839360Y-114330932D01*
G36*
X41939360Y-114430932D02*
G01*
X41839360Y-114430932D01*
X41839360Y-114330932D01*
X41939360Y-114330932D01*
X41939360Y-114430932D01*
G37*
X41939360Y-114430932D02*
X41839360Y-114430932D01*
X41839360Y-114330932D01*
X41939360Y-114330932D01*
X41939360Y-114430932D01*
X41439360Y-114130932D02*
X41739360Y-114130932D01*
X41739360Y-114130932D02*
X41739360Y-114230932D01*
X41739360Y-114230932D02*
X41439360Y-114230932D01*
X41439360Y-114230932D02*
X41439360Y-114130932D01*
G36*
X41739360Y-114230932D02*
G01*
X41439360Y-114230932D01*
X41439360Y-114130932D01*
X41739360Y-114130932D01*
X41739360Y-114230932D01*
G37*
X41739360Y-114230932D02*
X41439360Y-114230932D01*
X41439360Y-114130932D01*
X41739360Y-114130932D01*
X41739360Y-114230932D01*
D13*
G04 #@! TO.C,SW2*
X124962500Y-104012500D02*
X124962500Y-106112500D01*
X124962500Y-93912500D02*
X124962500Y-96012500D01*
X117762500Y-93912500D02*
X120362500Y-93912500D01*
X113162500Y-104012500D02*
X113162500Y-106112500D01*
X113162500Y-96012500D02*
X113162500Y-93912500D01*
X113162500Y-93912500D02*
X115562500Y-93912500D01*
X113162500Y-106112500D02*
X124962500Y-106112500D01*
X122562500Y-93912500D02*
X124962500Y-93912500D01*
G04 #@! TO.C,SW3*
X36962500Y-104012500D02*
X36962500Y-106112500D01*
X46362500Y-93912500D02*
X48762500Y-93912500D01*
X48762500Y-93912500D02*
X48762500Y-96012500D01*
X48762500Y-104012500D02*
X48762500Y-106112500D01*
X36962500Y-106112500D02*
X48762500Y-106112500D01*
X36962500Y-96012500D02*
X36962500Y-93912500D01*
X36962500Y-93912500D02*
X39362500Y-93912500D01*
X41562500Y-93912500D02*
X44162500Y-93912500D01*
D10*
G04 #@! TO.C,SW1*
X88737500Y-126825000D02*
X88987500Y-126825000D01*
X88737500Y-120825000D02*
X88737500Y-126825000D01*
X92237500Y-120825000D02*
X91987500Y-120825000D01*
X88987500Y-120825000D02*
X88737500Y-120825000D01*
X92237500Y-126825000D02*
X92237500Y-120825000D01*
X91987500Y-126825000D02*
X92237500Y-126825000D01*
G04 #@! TD*
D14*
G04 #@! TO.C,U1*
X36830000Y-126911100D03*
D15*
X39370000Y-126453900D03*
X41910000Y-126911100D03*
X44450000Y-126453900D03*
X46990000Y-126911100D03*
X49530000Y-126453900D03*
X52070000Y-126911100D03*
X54610000Y-126453900D03*
X57150000Y-126911100D03*
X59690000Y-126453900D03*
X62230000Y-126911100D03*
X64770000Y-126453900D03*
X64770000Y-111671100D03*
X62230000Y-111213900D03*
X59690000Y-111671100D03*
X57150000Y-111213900D03*
X54610000Y-111671100D03*
X52070000Y-111213900D03*
X49530000Y-111671100D03*
X46990000Y-111213900D03*
X44450000Y-111671100D03*
X41910000Y-111213900D03*
X39370000Y-111671100D03*
X36830000Y-111213900D03*
G04 #@! TD*
D16*
G04 #@! TO.C,SW21*
X77152500Y-97472500D03*
X83502500Y-94932500D03*
G04 #@! TD*
G04 #@! TO.C,SW9*
X39052500Y-59372500D03*
X45402500Y-56832500D03*
G04 #@! TD*
G04 #@! TO.C,SW8*
X115252500Y-40322500D03*
X121602500Y-37782500D03*
G04 #@! TD*
G04 #@! TO.C,SW4*
X39052500Y-40322500D03*
X45402500Y-37782500D03*
G04 #@! TD*
G04 #@! TO.C,SW13*
X115252500Y-59372500D03*
X121602500Y-56832500D03*
G04 #@! TD*
G04 #@! TO.C,SW12*
X96202500Y-59372500D03*
X102552500Y-56832500D03*
G04 #@! TD*
G04 #@! TO.C,SW17*
X96202500Y-78422500D03*
X102552500Y-75882500D03*
G04 #@! TD*
G04 #@! TO.C,SW7*
X96202500Y-40322500D03*
X102552500Y-37782500D03*
G04 #@! TD*
G04 #@! TO.C,SW20*
X58070000Y-97472500D03*
X64420000Y-94932500D03*
G04 #@! TD*
G04 #@! TO.C,SW26*
X77152500Y-116522500D03*
X83502500Y-113982500D03*
G04 #@! TD*
G04 #@! TO.C,SW27*
X96202500Y-116522500D03*
X102552500Y-113982500D03*
G04 #@! TD*
G04 #@! TO.C,SW28*
X115252500Y-116522500D03*
X121602500Y-113982500D03*
G04 #@! TD*
G04 #@! TO.C,SW6*
X77152500Y-40322500D03*
X83502500Y-37782500D03*
G04 #@! TD*
G04 #@! TO.C,SW22*
X96202500Y-97472500D03*
X102552500Y-94932500D03*
G04 #@! TD*
G04 #@! TO.C,SW10*
X58102500Y-59372500D03*
X64452500Y-56832500D03*
G04 #@! TD*
G04 #@! TO.C,SW14*
X39052500Y-78422500D03*
X45402500Y-75882500D03*
G04 #@! TD*
G04 #@! TO.C,SW15*
X58102500Y-78422500D03*
X64452500Y-75882500D03*
G04 #@! TD*
G04 #@! TO.C,SW25*
X58102500Y-116522500D03*
X64452500Y-113982500D03*
G04 #@! TD*
G04 #@! TO.C,SW5*
X58102500Y-40322500D03*
X64452500Y-37782500D03*
G04 #@! TD*
G04 #@! TO.C,SW24*
X39052500Y-116522500D03*
X45402500Y-113982500D03*
G04 #@! TD*
G04 #@! TO.C,SW16*
X77152500Y-78422500D03*
X83502500Y-75882500D03*
G04 #@! TD*
G04 #@! TO.C,SW11*
X77152500Y-59372500D03*
X83502500Y-56832500D03*
G04 #@! TD*
G04 #@! TO.C,SW18*
X115252500Y-78422500D03*
X121602500Y-75882500D03*
G04 #@! TD*
M02*
