G04 #@! TF.GenerationSoftware,KiCad,Pcbnew,(6.0.1)*
G04 #@! TF.CreationDate,2022-02-24T19:14:04+09:00*
G04 #@! TF.ProjectId,xipher_kbd,78697068-6572-45f6-9b62-642e6b696361,rev?*
G04 #@! TF.SameCoordinates,Original*
G04 #@! TF.FileFunction,Legend,Top*
G04 #@! TF.FilePolarity,Positive*
%FSLAX46Y46*%
G04 Gerber Fmt 4.6, Leading zero omitted, Abs format (unit mm)*
G04 Created by KiCad (PCBNEW (6.0.1)) date 2022-02-24 19:14:04*
%MOMM*%
%LPD*%
G01*
G04 APERTURE LIST*
%ADD10C,0.150000*%
%ADD11C,0.200000*%
%ADD12C,0.160000*%
%ADD13C,0.381000*%
%ADD14O,2.500000X2.000000*%
%ADD15C,1.752600*%
%ADD16R,1.752600X1.752600*%
G04 APERTURE END LIST*
D10*
G04 #@! TO.C,REF4*
X70389880Y-124552380D02*
X70056547Y-124076190D01*
X69818452Y-124552380D02*
X69818452Y-123552380D01*
X70199404Y-123552380D01*
X70294642Y-123600000D01*
X70342261Y-123647619D01*
X70389880Y-123742857D01*
X70389880Y-123885714D01*
X70342261Y-123980952D01*
X70294642Y-124028571D01*
X70199404Y-124076190D01*
X69818452Y-124076190D01*
X70818452Y-124028571D02*
X71151785Y-124028571D01*
X71294642Y-124552380D02*
X70818452Y-124552380D01*
X70818452Y-123552380D01*
X71294642Y-123552380D01*
X72056547Y-124028571D02*
X71723214Y-124028571D01*
X71723214Y-124552380D02*
X71723214Y-123552380D01*
X72199404Y-123552380D01*
X73008928Y-123885714D02*
X73008928Y-124552380D01*
X72770833Y-123504761D02*
X72532738Y-124219047D01*
X73151785Y-124219047D01*
G04 #@! TO.C,REF3*
X108489880Y-124552380D02*
X108156547Y-124076190D01*
X107918452Y-124552380D02*
X107918452Y-123552380D01*
X108299404Y-123552380D01*
X108394642Y-123600000D01*
X108442261Y-123647619D01*
X108489880Y-123742857D01*
X108489880Y-123885714D01*
X108442261Y-123980952D01*
X108394642Y-124028571D01*
X108299404Y-124076190D01*
X107918452Y-124076190D01*
X108918452Y-124028571D02*
X109251785Y-124028571D01*
X109394642Y-124552380D02*
X108918452Y-124552380D01*
X108918452Y-123552380D01*
X109394642Y-123552380D01*
X110156547Y-124028571D02*
X109823214Y-124028571D01*
X109823214Y-124552380D02*
X109823214Y-123552380D01*
X110299404Y-123552380D01*
X110585119Y-123552380D02*
X111204166Y-123552380D01*
X110870833Y-123933333D01*
X111013690Y-123933333D01*
X111108928Y-123980952D01*
X111156547Y-124028571D01*
X111204166Y-124123809D01*
X111204166Y-124361904D01*
X111156547Y-124457142D01*
X111108928Y-124504761D01*
X111013690Y-124552380D01*
X110727976Y-124552380D01*
X110632738Y-124504761D01*
X110585119Y-124457142D01*
G04 #@! TO.C,REF2*
X33877380Y-48352380D02*
X33544047Y-47876190D01*
X33305952Y-48352380D02*
X33305952Y-47352380D01*
X33686904Y-47352380D01*
X33782142Y-47400000D01*
X33829761Y-47447619D01*
X33877380Y-47542857D01*
X33877380Y-47685714D01*
X33829761Y-47780952D01*
X33782142Y-47828571D01*
X33686904Y-47876190D01*
X33305952Y-47876190D01*
X34305952Y-47828571D02*
X34639285Y-47828571D01*
X34782142Y-48352380D02*
X34305952Y-48352380D01*
X34305952Y-47352380D01*
X34782142Y-47352380D01*
X35544047Y-47828571D02*
X35210714Y-47828571D01*
X35210714Y-48352380D02*
X35210714Y-47352380D01*
X35686904Y-47352380D01*
X36020238Y-47447619D02*
X36067857Y-47400000D01*
X36163095Y-47352380D01*
X36401190Y-47352380D01*
X36496428Y-47400000D01*
X36544047Y-47447619D01*
X36591666Y-47542857D01*
X36591666Y-47638095D01*
X36544047Y-47780952D01*
X35972619Y-48352380D01*
X36591666Y-48352380D01*
G04 #@! TO.C,REF1*
X125952380Y-48352380D02*
X125619047Y-47876190D01*
X125380952Y-48352380D02*
X125380952Y-47352380D01*
X125761904Y-47352380D01*
X125857142Y-47400000D01*
X125904761Y-47447619D01*
X125952380Y-47542857D01*
X125952380Y-47685714D01*
X125904761Y-47780952D01*
X125857142Y-47828571D01*
X125761904Y-47876190D01*
X125380952Y-47876190D01*
X126380952Y-47828571D02*
X126714285Y-47828571D01*
X126857142Y-48352380D02*
X126380952Y-48352380D01*
X126380952Y-47352380D01*
X126857142Y-47352380D01*
X127619047Y-47828571D02*
X127285714Y-47828571D01*
X127285714Y-48352380D02*
X127285714Y-47352380D01*
X127761904Y-47352380D01*
X128666666Y-48352380D02*
X128095238Y-48352380D01*
X128380952Y-48352380D02*
X128380952Y-47352380D01*
X128285714Y-47495238D01*
X128190476Y-47590476D01*
X128095238Y-47638095D01*
D11*
G04 #@! TO.C,SW2*
X112467261Y-105345833D02*
X112514880Y-105202976D01*
X112514880Y-104964880D01*
X112467261Y-104869642D01*
X112419642Y-104822023D01*
X112324404Y-104774404D01*
X112229166Y-104774404D01*
X112133928Y-104822023D01*
X112086309Y-104869642D01*
X112038690Y-104964880D01*
X111991071Y-105155357D01*
X111943452Y-105250595D01*
X111895833Y-105298214D01*
X111800595Y-105345833D01*
X111705357Y-105345833D01*
X111610119Y-105298214D01*
X111562500Y-105250595D01*
X111514880Y-105155357D01*
X111514880Y-104917261D01*
X111562500Y-104774404D01*
X111514880Y-104441071D02*
X112514880Y-104202976D01*
X111800595Y-104012500D01*
X112514880Y-103822023D01*
X111514880Y-103583928D01*
X111610119Y-103250595D02*
X111562500Y-103202976D01*
X111514880Y-103107738D01*
X111514880Y-102869642D01*
X111562500Y-102774404D01*
X111610119Y-102726785D01*
X111705357Y-102679166D01*
X111800595Y-102679166D01*
X111943452Y-102726785D01*
X112514880Y-103298214D01*
X112514880Y-102679166D01*
G04 #@! TO.C,SW3*
X36267261Y-105345833D02*
X36314880Y-105202976D01*
X36314880Y-104964880D01*
X36267261Y-104869642D01*
X36219642Y-104822023D01*
X36124404Y-104774404D01*
X36029166Y-104774404D01*
X35933928Y-104822023D01*
X35886309Y-104869642D01*
X35838690Y-104964880D01*
X35791071Y-105155357D01*
X35743452Y-105250595D01*
X35695833Y-105298214D01*
X35600595Y-105345833D01*
X35505357Y-105345833D01*
X35410119Y-105298214D01*
X35362500Y-105250595D01*
X35314880Y-105155357D01*
X35314880Y-104917261D01*
X35362500Y-104774404D01*
X35314880Y-104441071D02*
X36314880Y-104202976D01*
X35600595Y-104012500D01*
X36314880Y-103822023D01*
X35314880Y-103583928D01*
X35314880Y-103298214D02*
X35314880Y-102679166D01*
X35695833Y-103012500D01*
X35695833Y-102869642D01*
X35743452Y-102774404D01*
X35791071Y-102726785D01*
X35886309Y-102679166D01*
X36124404Y-102679166D01*
X36219642Y-102726785D01*
X36267261Y-102774404D01*
X36314880Y-102869642D01*
X36314880Y-103155357D01*
X36267261Y-103250595D01*
X36219642Y-103298214D01*
D10*
G04 #@! TO.C,U1*
X36391904Y-124824848D02*
X36391904Y-124367705D01*
X37191904Y-124596276D02*
X36391904Y-124596276D01*
X36391904Y-124177229D02*
X37191904Y-123643895D01*
X36391904Y-123643895D02*
X37191904Y-124177229D01*
X36391904Y-123186752D02*
X36391904Y-123110562D01*
X36430000Y-123034372D01*
X36468095Y-122996276D01*
X36544285Y-122958181D01*
X36696666Y-122920086D01*
X36887142Y-122920086D01*
X37039523Y-122958181D01*
X37115714Y-122996276D01*
X37153809Y-123034372D01*
X37191904Y-123110562D01*
X37191904Y-123186752D01*
X37153809Y-123262943D01*
X37115714Y-123301038D01*
X37039523Y-123339133D01*
X36887142Y-123377229D01*
X36696666Y-123377229D01*
X36544285Y-123339133D01*
X36468095Y-123301038D01*
X36430000Y-123262943D01*
X36391904Y-123186752D01*
X36353809Y-122005800D02*
X37382380Y-122691514D01*
X37191904Y-121739133D02*
X36391904Y-121739133D01*
X36391904Y-121548657D01*
X36430000Y-121434372D01*
X36506190Y-121358181D01*
X36582380Y-121320086D01*
X36734761Y-121281991D01*
X36849047Y-121281991D01*
X37001428Y-121320086D01*
X37077619Y-121358181D01*
X37153809Y-121434372D01*
X37191904Y-121548657D01*
X37191904Y-121739133D01*
X36391904Y-121015324D02*
X36391904Y-120520086D01*
X36696666Y-120786752D01*
X36696666Y-120672467D01*
X36734761Y-120596276D01*
X36772857Y-120558181D01*
X36849047Y-120520086D01*
X37039523Y-120520086D01*
X37115714Y-120558181D01*
X37153809Y-120596276D01*
X37191904Y-120672467D01*
X37191904Y-120901038D01*
X37153809Y-120977229D01*
X37115714Y-121015324D01*
X39731904Y-125113976D02*
X38931904Y-125113976D01*
X38931904Y-124923500D01*
X38970000Y-124809214D01*
X39046190Y-124733023D01*
X39122380Y-124694928D01*
X39274761Y-124656833D01*
X39389047Y-124656833D01*
X39541428Y-124694928D01*
X39617619Y-124733023D01*
X39693809Y-124809214D01*
X39731904Y-124923500D01*
X39731904Y-125113976D01*
X39008095Y-124352071D02*
X38970000Y-124313976D01*
X38931904Y-124237785D01*
X38931904Y-124047309D01*
X38970000Y-123971119D01*
X39008095Y-123933023D01*
X39084285Y-123894928D01*
X39160476Y-123894928D01*
X39274761Y-123933023D01*
X39731904Y-124390166D01*
X39731904Y-123894928D01*
X49891904Y-125113976D02*
X49091904Y-125113976D01*
X49091904Y-124923500D01*
X49130000Y-124809214D01*
X49206190Y-124733023D01*
X49282380Y-124694928D01*
X49434761Y-124656833D01*
X49549047Y-124656833D01*
X49701428Y-124694928D01*
X49777619Y-124733023D01*
X49853809Y-124809214D01*
X49891904Y-124923500D01*
X49891904Y-125113976D01*
X49091904Y-124161595D02*
X49091904Y-124085404D01*
X49130000Y-124009214D01*
X49168095Y-123971119D01*
X49244285Y-123933023D01*
X49396666Y-123894928D01*
X49587142Y-123894928D01*
X49739523Y-123933023D01*
X49815714Y-123971119D01*
X49853809Y-124009214D01*
X49891904Y-124085404D01*
X49891904Y-124161595D01*
X49853809Y-124237785D01*
X49815714Y-124275880D01*
X49739523Y-124313976D01*
X49587142Y-124352071D01*
X49396666Y-124352071D01*
X49244285Y-124313976D01*
X49168095Y-124275880D01*
X49130000Y-124237785D01*
X49091904Y-124161595D01*
X47351904Y-125113976D02*
X46551904Y-125113976D01*
X46551904Y-124923500D01*
X46590000Y-124809214D01*
X46666190Y-124733023D01*
X46742380Y-124694928D01*
X46894761Y-124656833D01*
X47009047Y-124656833D01*
X47161428Y-124694928D01*
X47237619Y-124733023D01*
X47313809Y-124809214D01*
X47351904Y-124923500D01*
X47351904Y-125113976D01*
X47351904Y-123894928D02*
X47351904Y-124352071D01*
X47351904Y-124123500D02*
X46551904Y-124123500D01*
X46666190Y-124199690D01*
X46742380Y-124275880D01*
X46780476Y-124352071D01*
X44050000Y-125133023D02*
X44011904Y-125209214D01*
X44011904Y-125323500D01*
X44050000Y-125437785D01*
X44126190Y-125513976D01*
X44202380Y-125552071D01*
X44354761Y-125590166D01*
X44469047Y-125590166D01*
X44621428Y-125552071D01*
X44697619Y-125513976D01*
X44773809Y-125437785D01*
X44811904Y-125323500D01*
X44811904Y-125247309D01*
X44773809Y-125133023D01*
X44735714Y-125094928D01*
X44469047Y-125094928D01*
X44469047Y-125247309D01*
X44811904Y-124752071D02*
X44011904Y-124752071D01*
X44811904Y-124294928D01*
X44011904Y-124294928D01*
X44811904Y-123913976D02*
X44011904Y-123913976D01*
X44011904Y-123723500D01*
X44050000Y-123609214D01*
X44126190Y-123533023D01*
X44202380Y-123494928D01*
X44354761Y-123456833D01*
X44469047Y-123456833D01*
X44621428Y-123494928D01*
X44697619Y-123533023D01*
X44773809Y-123609214D01*
X44811904Y-123723500D01*
X44811904Y-123913976D01*
X41510000Y-125133023D02*
X41471904Y-125209214D01*
X41471904Y-125323500D01*
X41510000Y-125437785D01*
X41586190Y-125513976D01*
X41662380Y-125552071D01*
X41814761Y-125590166D01*
X41929047Y-125590166D01*
X42081428Y-125552071D01*
X42157619Y-125513976D01*
X42233809Y-125437785D01*
X42271904Y-125323500D01*
X42271904Y-125247309D01*
X42233809Y-125133023D01*
X42195714Y-125094928D01*
X41929047Y-125094928D01*
X41929047Y-125247309D01*
X42271904Y-124752071D02*
X41471904Y-124752071D01*
X42271904Y-124294928D01*
X41471904Y-124294928D01*
X42271904Y-123913976D02*
X41471904Y-123913976D01*
X41471904Y-123723500D01*
X41510000Y-123609214D01*
X41586190Y-123533023D01*
X41662380Y-123494928D01*
X41814761Y-123456833D01*
X41929047Y-123456833D01*
X42081428Y-123494928D01*
X42157619Y-123533023D01*
X42233809Y-123609214D01*
X42271904Y-123723500D01*
X42271904Y-123913976D01*
X52431904Y-125113976D02*
X51631904Y-125113976D01*
X51631904Y-124923500D01*
X51670000Y-124809214D01*
X51746190Y-124733023D01*
X51822380Y-124694928D01*
X51974761Y-124656833D01*
X52089047Y-124656833D01*
X52241428Y-124694928D01*
X52317619Y-124733023D01*
X52393809Y-124809214D01*
X52431904Y-124923500D01*
X52431904Y-125113976D01*
X51898571Y-123971119D02*
X52431904Y-123971119D01*
X51593809Y-124161595D02*
X52165238Y-124352071D01*
X52165238Y-123856833D01*
X54895714Y-124656833D02*
X54933809Y-124694928D01*
X54971904Y-124809214D01*
X54971904Y-124885404D01*
X54933809Y-124999690D01*
X54857619Y-125075880D01*
X54781428Y-125113976D01*
X54629047Y-125152071D01*
X54514761Y-125152071D01*
X54362380Y-125113976D01*
X54286190Y-125075880D01*
X54210000Y-124999690D01*
X54171904Y-124885404D01*
X54171904Y-124809214D01*
X54210000Y-124694928D01*
X54248095Y-124656833D01*
X54171904Y-123971119D02*
X54171904Y-124123500D01*
X54210000Y-124199690D01*
X54248095Y-124237785D01*
X54362380Y-124313976D01*
X54514761Y-124352071D01*
X54819523Y-124352071D01*
X54895714Y-124313976D01*
X54933809Y-124275880D01*
X54971904Y-124199690D01*
X54971904Y-124047309D01*
X54933809Y-123971119D01*
X54895714Y-123933023D01*
X54819523Y-123894928D01*
X54629047Y-123894928D01*
X54552857Y-123933023D01*
X54514761Y-123971119D01*
X54476666Y-124047309D01*
X54476666Y-124199690D01*
X54514761Y-124275880D01*
X54552857Y-124313976D01*
X54629047Y-124352071D01*
X57511904Y-125113976D02*
X56711904Y-125113976D01*
X56711904Y-124923500D01*
X56750000Y-124809214D01*
X56826190Y-124733023D01*
X56902380Y-124694928D01*
X57054761Y-124656833D01*
X57169047Y-124656833D01*
X57321428Y-124694928D01*
X57397619Y-124733023D01*
X57473809Y-124809214D01*
X57511904Y-124923500D01*
X57511904Y-125113976D01*
X56711904Y-124390166D02*
X56711904Y-123856833D01*
X57511904Y-124199690D01*
X59632857Y-125075880D02*
X59632857Y-124809214D01*
X60051904Y-124694928D02*
X60051904Y-125075880D01*
X59251904Y-125075880D01*
X59251904Y-124694928D01*
X59251904Y-124009214D02*
X59251904Y-124161595D01*
X59290000Y-124237785D01*
X59328095Y-124275880D01*
X59442380Y-124352071D01*
X59594761Y-124390166D01*
X59899523Y-124390166D01*
X59975714Y-124352071D01*
X60013809Y-124313976D01*
X60051904Y-124237785D01*
X60051904Y-124085404D01*
X60013809Y-124009214D01*
X59975714Y-123971119D01*
X59899523Y-123933023D01*
X59709047Y-123933023D01*
X59632857Y-123971119D01*
X59594761Y-124009214D01*
X59556666Y-124085404D01*
X59556666Y-124237785D01*
X59594761Y-124313976D01*
X59632857Y-124352071D01*
X59709047Y-124390166D01*
X62172857Y-124847309D02*
X62210952Y-124733023D01*
X62249047Y-124694928D01*
X62325238Y-124656833D01*
X62439523Y-124656833D01*
X62515714Y-124694928D01*
X62553809Y-124733023D01*
X62591904Y-124809214D01*
X62591904Y-125113976D01*
X61791904Y-125113976D01*
X61791904Y-124847309D01*
X61830000Y-124771119D01*
X61868095Y-124733023D01*
X61944285Y-124694928D01*
X62020476Y-124694928D01*
X62096666Y-124733023D01*
X62134761Y-124771119D01*
X62172857Y-124847309D01*
X62172857Y-125113976D01*
X62058571Y-123971119D02*
X62591904Y-123971119D01*
X61753809Y-124161595D02*
X62325238Y-124352071D01*
X62325238Y-123856833D01*
X64712857Y-124847309D02*
X64750952Y-124733023D01*
X64789047Y-124694928D01*
X64865238Y-124656833D01*
X64979523Y-124656833D01*
X65055714Y-124694928D01*
X65093809Y-124733023D01*
X65131904Y-124809214D01*
X65131904Y-125113976D01*
X64331904Y-125113976D01*
X64331904Y-124847309D01*
X64370000Y-124771119D01*
X64408095Y-124733023D01*
X64484285Y-124694928D01*
X64560476Y-124694928D01*
X64636666Y-124733023D01*
X64674761Y-124771119D01*
X64712857Y-124847309D01*
X64712857Y-125113976D01*
X64331904Y-123933023D02*
X64331904Y-124313976D01*
X64712857Y-124352071D01*
X64674761Y-124313976D01*
X64636666Y-124237785D01*
X64636666Y-124047309D01*
X64674761Y-123971119D01*
X64712857Y-123933023D01*
X64789047Y-123894928D01*
X64979523Y-123894928D01*
X65055714Y-123933023D01*
X65093809Y-123971119D01*
X65131904Y-124047309D01*
X65131904Y-124237785D01*
X65093809Y-124313976D01*
X65055714Y-124352071D01*
X64712857Y-113925309D02*
X64750952Y-113811023D01*
X64789047Y-113772928D01*
X64865238Y-113734833D01*
X64979523Y-113734833D01*
X65055714Y-113772928D01*
X65093809Y-113811023D01*
X65131904Y-113887214D01*
X65131904Y-114191976D01*
X64331904Y-114191976D01*
X64331904Y-113925309D01*
X64370000Y-113849119D01*
X64408095Y-113811023D01*
X64484285Y-113772928D01*
X64560476Y-113772928D01*
X64636666Y-113811023D01*
X64674761Y-113849119D01*
X64712857Y-113925309D01*
X64712857Y-114191976D01*
X64331904Y-113049119D02*
X64331904Y-113201500D01*
X64370000Y-113277690D01*
X64408095Y-113315785D01*
X64522380Y-113391976D01*
X64674761Y-113430071D01*
X64979523Y-113430071D01*
X65055714Y-113391976D01*
X65093809Y-113353880D01*
X65131904Y-113277690D01*
X65131904Y-113125309D01*
X65093809Y-113049119D01*
X65055714Y-113011023D01*
X64979523Y-112972928D01*
X64789047Y-112972928D01*
X64712857Y-113011023D01*
X64674761Y-113049119D01*
X64636666Y-113125309D01*
X64636666Y-113277690D01*
X64674761Y-113353880D01*
X64712857Y-113391976D01*
X64789047Y-113430071D01*
X59632857Y-113925309D02*
X59670952Y-113811023D01*
X59709047Y-113772928D01*
X59785238Y-113734833D01*
X59899523Y-113734833D01*
X59975714Y-113772928D01*
X60013809Y-113811023D01*
X60051904Y-113887214D01*
X60051904Y-114191976D01*
X59251904Y-114191976D01*
X59251904Y-113925309D01*
X59290000Y-113849119D01*
X59328095Y-113811023D01*
X59404285Y-113772928D01*
X59480476Y-113772928D01*
X59556666Y-113811023D01*
X59594761Y-113849119D01*
X59632857Y-113925309D01*
X59632857Y-114191976D01*
X59251904Y-113468166D02*
X59251904Y-112972928D01*
X59556666Y-113239595D01*
X59556666Y-113125309D01*
X59594761Y-113049119D01*
X59632857Y-113011023D01*
X59709047Y-112972928D01*
X59899523Y-112972928D01*
X59975714Y-113011023D01*
X60013809Y-113049119D01*
X60051904Y-113125309D01*
X60051904Y-113353880D01*
X60013809Y-113430071D01*
X59975714Y-113468166D01*
X57092857Y-113925309D02*
X57130952Y-113811023D01*
X57169047Y-113772928D01*
X57245238Y-113734833D01*
X57359523Y-113734833D01*
X57435714Y-113772928D01*
X57473809Y-113811023D01*
X57511904Y-113887214D01*
X57511904Y-114191976D01*
X56711904Y-114191976D01*
X56711904Y-113925309D01*
X56750000Y-113849119D01*
X56788095Y-113811023D01*
X56864285Y-113772928D01*
X56940476Y-113772928D01*
X57016666Y-113811023D01*
X57054761Y-113849119D01*
X57092857Y-113925309D01*
X57092857Y-114191976D01*
X57511904Y-112972928D02*
X57511904Y-113430071D01*
X57511904Y-113201500D02*
X56711904Y-113201500D01*
X56826190Y-113277690D01*
X56902380Y-113353880D01*
X56940476Y-113430071D01*
X46932857Y-113868166D02*
X46932857Y-114134833D01*
X47351904Y-114134833D02*
X46551904Y-114134833D01*
X46551904Y-113753880D01*
X46818571Y-113106261D02*
X47351904Y-113106261D01*
X46513809Y-113296738D02*
X47085238Y-113487214D01*
X47085238Y-112991976D01*
X44011904Y-114668166D02*
X44811904Y-114401500D01*
X44011904Y-114134833D01*
X44735714Y-113411023D02*
X44773809Y-113449119D01*
X44811904Y-113563404D01*
X44811904Y-113639595D01*
X44773809Y-113753880D01*
X44697619Y-113830071D01*
X44621428Y-113868166D01*
X44469047Y-113906261D01*
X44354761Y-113906261D01*
X44202380Y-113868166D01*
X44126190Y-113830071D01*
X44050000Y-113753880D01*
X44011904Y-113639595D01*
X44011904Y-113563404D01*
X44050000Y-113449119D01*
X44088095Y-113411023D01*
X44735714Y-112611023D02*
X44773809Y-112649119D01*
X44811904Y-112763404D01*
X44811904Y-112839595D01*
X44773809Y-112953880D01*
X44697619Y-113030071D01*
X44621428Y-113068166D01*
X44469047Y-113106261D01*
X44354761Y-113106261D01*
X44202380Y-113068166D01*
X44126190Y-113030071D01*
X44050000Y-112953880D01*
X44011904Y-112839595D01*
X44011904Y-112763404D01*
X44050000Y-112649119D01*
X44088095Y-112611023D01*
X42203809Y-113862713D02*
X42241904Y-113748427D01*
X42241904Y-113557951D01*
X42203809Y-113481760D01*
X42165714Y-113443665D01*
X42089523Y-113405570D01*
X42013333Y-113405570D01*
X41937142Y-113443665D01*
X41899047Y-113481760D01*
X41860952Y-113557951D01*
X41822857Y-113710332D01*
X41784761Y-113786522D01*
X41746666Y-113824618D01*
X41670476Y-113862713D01*
X41594285Y-113862713D01*
X41518095Y-113824618D01*
X41480000Y-113786522D01*
X41441904Y-113710332D01*
X41441904Y-113519856D01*
X41480000Y-113405570D01*
X41441904Y-113176999D02*
X41441904Y-112719856D01*
X42241904Y-112948427D02*
X41441904Y-112948427D01*
X38970000Y-114211023D02*
X38931904Y-114287214D01*
X38931904Y-114401500D01*
X38970000Y-114515785D01*
X39046190Y-114591976D01*
X39122380Y-114630071D01*
X39274761Y-114668166D01*
X39389047Y-114668166D01*
X39541428Y-114630071D01*
X39617619Y-114591976D01*
X39693809Y-114515785D01*
X39731904Y-114401500D01*
X39731904Y-114325309D01*
X39693809Y-114211023D01*
X39655714Y-114172928D01*
X39389047Y-114172928D01*
X39389047Y-114325309D01*
X39731904Y-113830071D02*
X38931904Y-113830071D01*
X39731904Y-113372928D01*
X38931904Y-113372928D01*
X39731904Y-112991976D02*
X38931904Y-112991976D01*
X38931904Y-112801500D01*
X38970000Y-112687214D01*
X39046190Y-112611023D01*
X39122380Y-112572928D01*
X39274761Y-112534833D01*
X39389047Y-112534833D01*
X39541428Y-112572928D01*
X39617619Y-112611023D01*
X39693809Y-112687214D01*
X39731904Y-112801500D01*
X39731904Y-112991976D01*
X37191904Y-114153880D02*
X36810952Y-114420547D01*
X37191904Y-114611023D02*
X36391904Y-114611023D01*
X36391904Y-114306261D01*
X36430000Y-114230071D01*
X36468095Y-114191976D01*
X36544285Y-114153880D01*
X36658571Y-114153880D01*
X36734761Y-114191976D01*
X36772857Y-114230071D01*
X36810952Y-114306261D01*
X36810952Y-114611023D01*
X36963333Y-113849119D02*
X36963333Y-113468166D01*
X37191904Y-113925309D02*
X36391904Y-113658642D01*
X37191904Y-113391976D01*
X36391904Y-113201500D02*
X37191904Y-113011023D01*
X36620476Y-112858642D01*
X37191904Y-112706261D01*
X36391904Y-112515785D01*
X49472857Y-113868166D02*
X49472857Y-114134833D01*
X49891904Y-114134833D02*
X49091904Y-114134833D01*
X49091904Y-113753880D01*
X49091904Y-113068166D02*
X49091904Y-113449119D01*
X49472857Y-113487214D01*
X49434761Y-113449119D01*
X49396666Y-113372928D01*
X49396666Y-113182452D01*
X49434761Y-113106261D01*
X49472857Y-113068166D01*
X49549047Y-113030071D01*
X49739523Y-113030071D01*
X49815714Y-113068166D01*
X49853809Y-113106261D01*
X49891904Y-113182452D01*
X49891904Y-113372928D01*
X49853809Y-113449119D01*
X49815714Y-113487214D01*
X52012857Y-113868166D02*
X52012857Y-114134833D01*
X52431904Y-114134833D02*
X51631904Y-114134833D01*
X51631904Y-113753880D01*
X51631904Y-113106261D02*
X51631904Y-113258642D01*
X51670000Y-113334833D01*
X51708095Y-113372928D01*
X51822380Y-113449119D01*
X51974761Y-113487214D01*
X52279523Y-113487214D01*
X52355714Y-113449119D01*
X52393809Y-113411023D01*
X52431904Y-113334833D01*
X52431904Y-113182452D01*
X52393809Y-113106261D01*
X52355714Y-113068166D01*
X52279523Y-113030071D01*
X52089047Y-113030071D01*
X52012857Y-113068166D01*
X51974761Y-113106261D01*
X51936666Y-113182452D01*
X51936666Y-113334833D01*
X51974761Y-113411023D01*
X52012857Y-113449119D01*
X52089047Y-113487214D01*
X54552857Y-113868166D02*
X54552857Y-114134833D01*
X54971904Y-114134833D02*
X54171904Y-114134833D01*
X54171904Y-113753880D01*
X54171904Y-113525309D02*
X54171904Y-112991976D01*
X54971904Y-113334833D01*
X62172857Y-113925309D02*
X62210952Y-113811023D01*
X62249047Y-113772928D01*
X62325238Y-113734833D01*
X62439523Y-113734833D01*
X62515714Y-113772928D01*
X62553809Y-113811023D01*
X62591904Y-113887214D01*
X62591904Y-114191976D01*
X61791904Y-114191976D01*
X61791904Y-113925309D01*
X61830000Y-113849119D01*
X61868095Y-113811023D01*
X61944285Y-113772928D01*
X62020476Y-113772928D01*
X62096666Y-113811023D01*
X62134761Y-113849119D01*
X62172857Y-113925309D01*
X62172857Y-114191976D01*
X61868095Y-113430071D02*
X61830000Y-113391976D01*
X61791904Y-113315785D01*
X61791904Y-113125309D01*
X61830000Y-113049119D01*
X61868095Y-113011023D01*
X61944285Y-112972928D01*
X62020476Y-112972928D01*
X62134761Y-113011023D01*
X62591904Y-113468166D01*
X62591904Y-112972928D01*
G04 #@! TO.C,SW1*
X90939880Y-125150380D02*
X90463690Y-125483714D01*
X90939880Y-125721809D02*
X89939880Y-125721809D01*
X89939880Y-125340857D01*
X89987500Y-125245619D01*
X90035119Y-125198000D01*
X90130357Y-125150380D01*
X90273214Y-125150380D01*
X90368452Y-125198000D01*
X90416071Y-125245619D01*
X90463690Y-125340857D01*
X90463690Y-125721809D01*
X90416071Y-124721809D02*
X90416071Y-124388476D01*
X90939880Y-124245619D02*
X90939880Y-124721809D01*
X89939880Y-124721809D01*
X89939880Y-124245619D01*
X90892261Y-123864666D02*
X90939880Y-123721809D01*
X90939880Y-123483714D01*
X90892261Y-123388476D01*
X90844642Y-123340857D01*
X90749404Y-123293238D01*
X90654166Y-123293238D01*
X90558928Y-123340857D01*
X90511309Y-123388476D01*
X90463690Y-123483714D01*
X90416071Y-123674190D01*
X90368452Y-123769428D01*
X90320833Y-123817047D01*
X90225595Y-123864666D01*
X90130357Y-123864666D01*
X90035119Y-123817047D01*
X89987500Y-123769428D01*
X89939880Y-123674190D01*
X89939880Y-123436095D01*
X89987500Y-123293238D01*
X90416071Y-122864666D02*
X90416071Y-122531333D01*
X90939880Y-122388476D02*
X90939880Y-122864666D01*
X89939880Y-122864666D01*
X89939880Y-122388476D01*
X89939880Y-122102761D02*
X89939880Y-121531333D01*
X90939880Y-121817047D02*
X89939880Y-121817047D01*
G04 #@! TO.C,G1*
G36*
X127680680Y-70065995D02*
G01*
X127522173Y-70051614D01*
X127453514Y-70046605D01*
X127413377Y-70043997D01*
X127375808Y-70041779D01*
X127339814Y-70039917D01*
X127304406Y-70038382D01*
X127268589Y-70037142D01*
X127231373Y-70036166D01*
X127191766Y-70035423D01*
X127148775Y-70034881D01*
X127101409Y-70034509D01*
X127062886Y-70034325D01*
X127022492Y-70034154D01*
X126987646Y-70033937D01*
X126957793Y-70033638D01*
X126932378Y-70033218D01*
X126910846Y-70032640D01*
X126892642Y-70031866D01*
X126877210Y-70030858D01*
X126863994Y-70029579D01*
X126852441Y-70027991D01*
X126841994Y-70026056D01*
X126832099Y-70023737D01*
X126822200Y-70020995D01*
X126811742Y-70017793D01*
X126809588Y-70017111D01*
X126777295Y-70004238D01*
X126748194Y-69987393D01*
X126722759Y-69967095D01*
X126701467Y-69943863D01*
X126684791Y-69918216D01*
X126673208Y-69890671D01*
X126667194Y-69861765D01*
X126667077Y-69843625D01*
X126671260Y-69828051D01*
X126680318Y-69813680D01*
X126692787Y-69800938D01*
X126706672Y-69789753D01*
X126721901Y-69779919D01*
X126738765Y-69771432D01*
X126757554Y-69764286D01*
X126778560Y-69758476D01*
X126802075Y-69753997D01*
X126828388Y-69750844D01*
X126857792Y-69749011D01*
X126890578Y-69748493D01*
X126927036Y-69749285D01*
X126967457Y-69751382D01*
X127012134Y-69754778D01*
X127061356Y-69759468D01*
X127115416Y-69765446D01*
X127174604Y-69772709D01*
X127239211Y-69781249D01*
X127301701Y-69789949D01*
X127332958Y-69794369D01*
X127363004Y-69798584D01*
X127391179Y-69802503D01*
X127416824Y-69806035D01*
X127439276Y-69809091D01*
X127457876Y-69811580D01*
X127471964Y-69813412D01*
X127480878Y-69814497D01*
X127482506Y-69814669D01*
X127503869Y-69816749D01*
X127444359Y-69780900D01*
X127352409Y-69723376D01*
X127265968Y-69664920D01*
X127185107Y-69605596D01*
X127109898Y-69545465D01*
X127040409Y-69484591D01*
X126976713Y-69423035D01*
X126918880Y-69360860D01*
X126866980Y-69298128D01*
X126821084Y-69234902D01*
X126812294Y-69221688D01*
X126797787Y-69198134D01*
X126782756Y-69171241D01*
X126767966Y-69142573D01*
X126754188Y-69113698D01*
X126742188Y-69086180D01*
X126732734Y-69061584D01*
X126730473Y-69054897D01*
X126722138Y-69027979D01*
X126716015Y-69004681D01*
X126711795Y-68983065D01*
X126710267Y-68970319D01*
X126962177Y-68970319D01*
X126965118Y-69006604D01*
X126973943Y-69044413D01*
X126988652Y-69083746D01*
X127009250Y-69124609D01*
X127035736Y-69167002D01*
X127068114Y-69210929D01*
X127106385Y-69256392D01*
X127150551Y-69303393D01*
X127200615Y-69351937D01*
X127256578Y-69402025D01*
X127318442Y-69453660D01*
X127326865Y-69460444D01*
X127396696Y-69514974D01*
X127463876Y-69564402D01*
X127528361Y-69608705D01*
X127590111Y-69647859D01*
X127649084Y-69681842D01*
X127705238Y-69710630D01*
X127758530Y-69734200D01*
X127808919Y-69752529D01*
X127856364Y-69765594D01*
X127890352Y-69771977D01*
X127919217Y-69775119D01*
X127943783Y-69775109D01*
X127965167Y-69771608D01*
X127984486Y-69764277D01*
X128002858Y-69752778D01*
X128021399Y-69736773D01*
X128027898Y-69730287D01*
X128050209Y-69703236D01*
X128067664Y-69672823D01*
X128080369Y-69638818D01*
X128088424Y-69600992D01*
X128089451Y-69593248D01*
X128090064Y-69581438D01*
X128089790Y-69565534D01*
X128088752Y-69547463D01*
X128087077Y-69529150D01*
X128084889Y-69512519D01*
X128083802Y-69506264D01*
X128073445Y-69466330D01*
X128057398Y-69424722D01*
X128035791Y-69381612D01*
X128008752Y-69337171D01*
X127976410Y-69291570D01*
X127938893Y-69244980D01*
X127896330Y-69197574D01*
X127848850Y-69149522D01*
X127796582Y-69100996D01*
X127747874Y-69058993D01*
X127684851Y-69009353D01*
X127621490Y-68965337D01*
X127557930Y-68927013D01*
X127494312Y-68894449D01*
X127430776Y-68867713D01*
X127367463Y-68846871D01*
X127304512Y-68831993D01*
X127263833Y-68825549D01*
X127238133Y-68823051D01*
X127210355Y-68821690D01*
X127181894Y-68821433D01*
X127154145Y-68822242D01*
X127128502Y-68824083D01*
X127106361Y-68826920D01*
X127091878Y-68829942D01*
X127059389Y-68840902D01*
X127031088Y-68855333D01*
X127007255Y-68872933D01*
X126988168Y-68893398D01*
X126974107Y-68916427D01*
X126965353Y-68941717D01*
X126962184Y-68968964D01*
X126962177Y-68970319D01*
X126710267Y-68970319D01*
X126709172Y-68961190D01*
X126707839Y-68937118D01*
X126707489Y-68909648D01*
X126707985Y-68881512D01*
X126709632Y-68857749D01*
X126712739Y-68836686D01*
X126717615Y-68816650D01*
X126724568Y-68795969D01*
X126731820Y-68777868D01*
X126749555Y-68743132D01*
X126772590Y-68709698D01*
X126800151Y-68678260D01*
X126831467Y-68649512D01*
X126865763Y-68624147D01*
X126902266Y-68602859D01*
X126940205Y-68586341D01*
X126948529Y-68583461D01*
X126969829Y-68576912D01*
X126989871Y-68571904D01*
X127009996Y-68568263D01*
X127031544Y-68565813D01*
X127055854Y-68564379D01*
X127084267Y-68563786D01*
X127099507Y-68563749D01*
X127182247Y-68566918D01*
X127263942Y-68576087D01*
X127344548Y-68591233D01*
X127424018Y-68612333D01*
X127502305Y-68639366D01*
X127579364Y-68672310D01*
X127655149Y-68711141D01*
X127729614Y-68755839D01*
X127802712Y-68806381D01*
X127874398Y-68862744D01*
X127944625Y-68924907D01*
X128013347Y-68992847D01*
X128032728Y-69013347D01*
X128089177Y-69076870D01*
X128139579Y-69139768D01*
X128183956Y-69202079D01*
X128222329Y-69263839D01*
X128254720Y-69325085D01*
X128281150Y-69385853D01*
X128301640Y-69446182D01*
X128315430Y-69502160D01*
X128323810Y-69551144D01*
X128328306Y-69595600D01*
X128328890Y-69635732D01*
X128325531Y-69671744D01*
X128318200Y-69703840D01*
X128306869Y-69732224D01*
X128291508Y-69757101D01*
X128276381Y-69774531D01*
X128257786Y-69791053D01*
X128234104Y-69808684D01*
X128206126Y-69826885D01*
X128174642Y-69845116D01*
X128166034Y-69849766D01*
X128152989Y-69856786D01*
X128142150Y-69862759D01*
X128134519Y-69867122D01*
X128131101Y-69869311D01*
X128131011Y-69869433D01*
X128133882Y-69870693D01*
X128142035Y-69873048D01*
X128154778Y-69876341D01*
X128171419Y-69880414D01*
X128191265Y-69885108D01*
X128213627Y-69890265D01*
X128237810Y-69895727D01*
X128263125Y-69901336D01*
X128288878Y-69906934D01*
X128314379Y-69912363D01*
X128338934Y-69917464D01*
X128358368Y-69921390D01*
X128401149Y-69929734D01*
X128444149Y-69937779D01*
X128488115Y-69945648D01*
X128533795Y-69953463D01*
X128581936Y-69961348D01*
X128633284Y-69969424D01*
X128688587Y-69977816D01*
X128748591Y-69986645D01*
X128802403Y-69994379D01*
X128856892Y-70002155D01*
X128905667Y-70009150D01*
X128949062Y-70015419D01*
X128987409Y-70021014D01*
X129021041Y-70025987D01*
X129050293Y-70030392D01*
X129075495Y-70034279D01*
X129096983Y-70037704D01*
X129115088Y-70040717D01*
X129130144Y-70043372D01*
X129142483Y-70045720D01*
X129152439Y-70047816D01*
X129160345Y-70049712D01*
X129166533Y-70051459D01*
X129169303Y-70052368D01*
X129189592Y-70060862D01*
X129211240Y-70072395D01*
X129232917Y-70086043D01*
X129253293Y-70100878D01*
X129271035Y-70115976D01*
X129284815Y-70130410D01*
X129288663Y-70135425D01*
X129298635Y-70151505D01*
X129304004Y-70166027D01*
X129305131Y-70180985D01*
X129302380Y-70198370D01*
X129301054Y-70203604D01*
X129293980Y-70222759D01*
X129282652Y-70244230D01*
X129267791Y-70266798D01*
X129250801Y-70288450D01*
X129234822Y-70306078D01*
X129220766Y-70318886D01*
X129207749Y-70327475D01*
X129194889Y-70332445D01*
X129183428Y-70334273D01*
X129169919Y-70334676D01*
X129154125Y-70334029D01*
X129135646Y-70332258D01*
X129114080Y-70329293D01*
X129089026Y-70325059D01*
X129060084Y-70319485D01*
X129026850Y-70312498D01*
X128988925Y-70304025D01*
X128945906Y-70293994D01*
X128901586Y-70283352D01*
X128716088Y-70239937D01*
X128534082Y-70200611D01*
X128355690Y-70165392D01*
X128181032Y-70134302D01*
X128010230Y-70107359D01*
X127919217Y-70094933D01*
X127843406Y-70084583D01*
X127680680Y-70065995D01*
G37*
G36*
X126280922Y-71258428D02*
G01*
X126287982Y-71261120D01*
X126298359Y-71267302D01*
X126310526Y-71276224D01*
X126324758Y-71288153D01*
X126341331Y-71303354D01*
X126360519Y-71322090D01*
X126382598Y-71344628D01*
X126407842Y-71371233D01*
X126436526Y-71402168D01*
X126452570Y-71419700D01*
X126482191Y-71451799D01*
X126514850Y-71486480D01*
X126550145Y-71523352D01*
X126587672Y-71562024D01*
X126627030Y-71602105D01*
X126667815Y-71643203D01*
X126709625Y-71684928D01*
X126752058Y-71726888D01*
X126794710Y-71768693D01*
X126837180Y-71809950D01*
X126879065Y-71850269D01*
X126919963Y-71889259D01*
X126959470Y-71926529D01*
X126997184Y-71961687D01*
X127032702Y-71994342D01*
X127065623Y-72024103D01*
X127095543Y-72050579D01*
X127122060Y-72073379D01*
X127143758Y-72091298D01*
X127164195Y-72107305D01*
X127182922Y-72121149D01*
X127199294Y-72132395D01*
X127212666Y-72140605D01*
X127222391Y-72145345D01*
X127225041Y-72146155D01*
X127230884Y-72146526D01*
X127237741Y-72144738D01*
X127247068Y-72140277D01*
X127256041Y-72135173D01*
X127277970Y-72121685D01*
X127301790Y-72105912D01*
X127327787Y-72087632D01*
X127356248Y-72066623D01*
X127387457Y-72042662D01*
X127421700Y-72015527D01*
X127459263Y-71984997D01*
X127500432Y-71950849D01*
X127545492Y-71912860D01*
X127583014Y-71880856D01*
X127626426Y-71843356D01*
X127665311Y-71809063D01*
X127700062Y-71777569D01*
X127731069Y-71748465D01*
X127758723Y-71721343D01*
X127783416Y-71695794D01*
X127805539Y-71671410D01*
X127825483Y-71647782D01*
X127843639Y-71624502D01*
X127860398Y-71601162D01*
X127876152Y-71577352D01*
X127880850Y-71569882D01*
X127897168Y-71543827D01*
X127910959Y-71522302D01*
X127922754Y-71504554D01*
X127933086Y-71489832D01*
X127942489Y-71477384D01*
X127951495Y-71466459D01*
X127960639Y-71456307D01*
X127963722Y-71453054D01*
X127987301Y-71429962D01*
X128012851Y-71407598D01*
X128039161Y-71386885D01*
X128065024Y-71368744D01*
X128089228Y-71354099D01*
X128102000Y-71347584D01*
X128112915Y-71342663D01*
X128120653Y-71340072D01*
X128127511Y-71339445D01*
X128135787Y-71340415D01*
X128140996Y-71341350D01*
X128163407Y-71348492D01*
X128185350Y-71361291D01*
X128206096Y-71379308D01*
X128208788Y-71382141D01*
X128219795Y-71395388D01*
X128227340Y-71408398D01*
X128231977Y-71422789D01*
X128234263Y-71440181D01*
X128234771Y-71457943D01*
X128232049Y-71493161D01*
X128223818Y-71529187D01*
X128209980Y-71566328D01*
X128190435Y-71604891D01*
X128184494Y-71615043D01*
X128172809Y-71633808D01*
X128160842Y-71651455D01*
X128147942Y-71668764D01*
X128133457Y-71686513D01*
X128116734Y-71705483D01*
X128097122Y-71726453D01*
X128073967Y-71750202D01*
X128058054Y-71766158D01*
X128034076Y-71789723D01*
X128009115Y-71813584D01*
X127982856Y-71838009D01*
X127954981Y-71863268D01*
X127925173Y-71889627D01*
X127893114Y-71917355D01*
X127858487Y-71946719D01*
X127820976Y-71977989D01*
X127780263Y-72011431D01*
X127736031Y-72047314D01*
X127687962Y-72085905D01*
X127635740Y-72127474D01*
X127579047Y-72172287D01*
X127555120Y-72191123D01*
X127522555Y-72216747D01*
X127494482Y-72238870D01*
X127470584Y-72257751D01*
X127450543Y-72273648D01*
X127434041Y-72286817D01*
X127420761Y-72297517D01*
X127410385Y-72306006D01*
X127402596Y-72312541D01*
X127397076Y-72317380D01*
X127393507Y-72320781D01*
X127391573Y-72323001D01*
X127390955Y-72324298D01*
X127390953Y-72324357D01*
X127393089Y-72326903D01*
X127399222Y-72333269D01*
X127408941Y-72343053D01*
X127421833Y-72355857D01*
X127437486Y-72371279D01*
X127455488Y-72388918D01*
X127475428Y-72408375D01*
X127496892Y-72429249D01*
X127519470Y-72451139D01*
X127542749Y-72473644D01*
X127566316Y-72496365D01*
X127589761Y-72518900D01*
X127612670Y-72540850D01*
X127634632Y-72561813D01*
X127655235Y-72581390D01*
X127661211Y-72587048D01*
X127723739Y-72645682D01*
X127783269Y-72700472D01*
X127839709Y-72751342D01*
X127892971Y-72798219D01*
X127942962Y-72841029D01*
X127989594Y-72879697D01*
X128032774Y-72914149D01*
X128072412Y-72944312D01*
X128108418Y-72970110D01*
X128140702Y-72991470D01*
X128169172Y-73008318D01*
X128186772Y-73017381D01*
X128196636Y-73021718D01*
X128210635Y-73027387D01*
X128227127Y-73033745D01*
X128244471Y-73040150D01*
X128250030Y-73042139D01*
X128292709Y-73057953D01*
X128329757Y-73073236D01*
X128361586Y-73088306D01*
X128388609Y-73103480D01*
X128411238Y-73119075D01*
X128429888Y-73135409D01*
X128444970Y-73152799D01*
X128456898Y-73171562D01*
X128466084Y-73192015D01*
X128472627Y-73213224D01*
X128476278Y-73231466D01*
X128478869Y-73252174D01*
X128480309Y-73273538D01*
X128480508Y-73293743D01*
X128479375Y-73310978D01*
X128477941Y-73319476D01*
X128471994Y-73339280D01*
X128463977Y-73354847D01*
X128452912Y-73367945D01*
X128449367Y-73371207D01*
X128435288Y-73381453D01*
X128419356Y-73388533D01*
X128400153Y-73392939D01*
X128381159Y-73394890D01*
X128358454Y-73394703D01*
X128334570Y-73391180D01*
X128308935Y-73384119D01*
X128280979Y-73373320D01*
X128250129Y-73358582D01*
X128215815Y-73339705D01*
X128203706Y-73332576D01*
X128163914Y-73307780D01*
X128121578Y-73279379D01*
X128076599Y-73247288D01*
X128028879Y-73211423D01*
X127978321Y-73171700D01*
X127924826Y-73128035D01*
X127868296Y-73080342D01*
X127808632Y-73028538D01*
X127745738Y-72972538D01*
X127679514Y-72912257D01*
X127609864Y-72847612D01*
X127536687Y-72778517D01*
X127459888Y-72704889D01*
X127379367Y-72626643D01*
X127349803Y-72597675D01*
X127321289Y-72569786D01*
X127296724Y-72546005D01*
X127275810Y-72526060D01*
X127258248Y-72509679D01*
X127243738Y-72496587D01*
X127231982Y-72486513D01*
X127222680Y-72479184D01*
X127215533Y-72474326D01*
X127213043Y-72472927D01*
X127207047Y-72470436D01*
X127201586Y-72470458D01*
X127194032Y-72473159D01*
X127191517Y-72474267D01*
X127184558Y-72477728D01*
X127175871Y-72482704D01*
X127165149Y-72489413D01*
X127152086Y-72498072D01*
X127136375Y-72508900D01*
X127117709Y-72522114D01*
X127095782Y-72537931D01*
X127070286Y-72556569D01*
X127040914Y-72578246D01*
X127007360Y-72603178D01*
X126969318Y-72631584D01*
X126963703Y-72635785D01*
X126896654Y-72685845D01*
X126834189Y-72732225D01*
X126776127Y-72775053D01*
X126722283Y-72814460D01*
X126672473Y-72850574D01*
X126626516Y-72883525D01*
X126584227Y-72913443D01*
X126545423Y-72940456D01*
X126509920Y-72964695D01*
X126477536Y-72986288D01*
X126448087Y-73005365D01*
X126421389Y-73022056D01*
X126397260Y-73036489D01*
X126389607Y-73040906D01*
X126368904Y-73052415D01*
X126352091Y-73060845D01*
X126338006Y-73066539D01*
X126325487Y-73069841D01*
X126313368Y-73071094D01*
X126300489Y-73070642D01*
X126292055Y-73069714D01*
X126266383Y-73064748D01*
X126240569Y-73056741D01*
X126215602Y-73046245D01*
X126192469Y-73033810D01*
X126172161Y-73019986D01*
X126155664Y-73005324D01*
X126143968Y-72990374D01*
X126141521Y-72985871D01*
X126135917Y-72967464D01*
X126135898Y-72947460D01*
X126141299Y-72926319D01*
X126151960Y-72904500D01*
X126167717Y-72882462D01*
X126184554Y-72864328D01*
X126198599Y-72851700D01*
X126214978Y-72838958D01*
X126234312Y-72825704D01*
X126257222Y-72811544D01*
X126284327Y-72796083D01*
X126316250Y-72778926D01*
X126329942Y-72771792D01*
X126400381Y-72734087D01*
X126470687Y-72693859D01*
X126541330Y-72650789D01*
X126612782Y-72604558D01*
X126685511Y-72554845D01*
X126759990Y-72501333D01*
X126836687Y-72443701D01*
X126916074Y-72381631D01*
X126976881Y-72332610D01*
X127032784Y-72287001D01*
X127025710Y-72280286D01*
X127021956Y-72276836D01*
X127014179Y-72269776D01*
X127002900Y-72259575D01*
X126988635Y-72246701D01*
X126971906Y-72231624D01*
X126953231Y-72214810D01*
X126933129Y-72196729D01*
X126924030Y-72188551D01*
X126848165Y-72120247D01*
X126776852Y-72055777D01*
X126709981Y-71995032D01*
X126647442Y-71937905D01*
X126589126Y-71884288D01*
X126534923Y-71834075D01*
X126484724Y-71787156D01*
X126438418Y-71743426D01*
X126395898Y-71702775D01*
X126357052Y-71665097D01*
X126321772Y-71630284D01*
X126289947Y-71598229D01*
X126261469Y-71568823D01*
X126236228Y-71541960D01*
X126214114Y-71517531D01*
X126195018Y-71495429D01*
X126178829Y-71475547D01*
X126165440Y-71457777D01*
X126154739Y-71442011D01*
X126146619Y-71428142D01*
X126143654Y-71422233D01*
X126138925Y-71411625D01*
X126136627Y-71403937D01*
X126136357Y-71396684D01*
X126137714Y-71387383D01*
X126137870Y-71386537D01*
X126142819Y-71368447D01*
X126151266Y-71350273D01*
X126163843Y-71330817D01*
X126174413Y-71317059D01*
X126192276Y-71297401D01*
X126211006Y-71281248D01*
X126229919Y-71268937D01*
X126248332Y-71260806D01*
X126265561Y-71257191D01*
X126280922Y-71258428D01*
G37*
G36*
X127037305Y-63400255D02*
G01*
X127045697Y-63401402D01*
X127053261Y-63403619D01*
X127061756Y-63407233D01*
X127068990Y-63410671D01*
X127090721Y-63423007D01*
X127107137Y-63436911D01*
X127118991Y-63453313D01*
X127127038Y-63473143D01*
X127130158Y-63486065D01*
X127132433Y-63512753D01*
X127129269Y-63539970D01*
X127120982Y-63566213D01*
X127108383Y-63589269D01*
X127102019Y-63597700D01*
X127092812Y-63608870D01*
X127082158Y-63621122D01*
X127074470Y-63629579D01*
X127054809Y-63653127D01*
X127040718Y-63675377D01*
X127039417Y-63677938D01*
X127030186Y-63702408D01*
X127026325Y-63727840D01*
X127027882Y-63754496D01*
X127034907Y-63782636D01*
X127047448Y-63812523D01*
X127065555Y-63844416D01*
X127072786Y-63855465D01*
X127095156Y-63885776D01*
X127122760Y-63918270D01*
X127155262Y-63952636D01*
X127192326Y-63988561D01*
X127233617Y-64025732D01*
X127278799Y-64063837D01*
X127327536Y-64102562D01*
X127379493Y-64141595D01*
X127381798Y-64143278D01*
X127468368Y-64203149D01*
X127555831Y-64257060D01*
X127644459Y-64305123D01*
X127734523Y-64347450D01*
X127826295Y-64384152D01*
X127920047Y-64415342D01*
X128016052Y-64441132D01*
X128114580Y-64461632D01*
X128181365Y-64472354D01*
X128212669Y-64477187D01*
X128238924Y-64482129D01*
X128261181Y-64487443D01*
X128280494Y-64493390D01*
X128297913Y-64500232D01*
X128303436Y-64502736D01*
X128327155Y-64516511D01*
X128346160Y-64533556D01*
X128360606Y-64554151D01*
X128370646Y-64578574D01*
X128376435Y-64607106D01*
X128378138Y-64638063D01*
X128377637Y-64654750D01*
X128376065Y-64667098D01*
X128373176Y-64676813D01*
X128372296Y-64678862D01*
X128361079Y-64696388D01*
X128344172Y-64712364D01*
X128321820Y-64726660D01*
X128294270Y-64739148D01*
X128261767Y-64749697D01*
X128224557Y-64758177D01*
X128220500Y-64758922D01*
X128200188Y-64762422D01*
X128180673Y-64765424D01*
X128161301Y-64767962D01*
X128141416Y-64770073D01*
X128120364Y-64771792D01*
X128097489Y-64773154D01*
X128072136Y-64774195D01*
X128043651Y-64774951D01*
X128011377Y-64775457D01*
X127974661Y-64775748D01*
X127932847Y-64775860D01*
X127908230Y-64775859D01*
X127803573Y-64775284D01*
X127704747Y-64773717D01*
X127611558Y-64771149D01*
X127523812Y-64767570D01*
X127441316Y-64762969D01*
X127363875Y-64757336D01*
X127291297Y-64750660D01*
X127223388Y-64742932D01*
X127184488Y-64737742D01*
X127169066Y-64735689D01*
X127149103Y-64733225D01*
X127126131Y-64730526D01*
X127101683Y-64727772D01*
X127077294Y-64725141D01*
X127066995Y-64724071D01*
X127026264Y-64719682D01*
X126991241Y-64715446D01*
X126961534Y-64711302D01*
X126936750Y-64707186D01*
X126916497Y-64703039D01*
X126900383Y-64698797D01*
X126894630Y-64696929D01*
X126868590Y-64684849D01*
X126844134Y-64667733D01*
X126822077Y-64646561D01*
X126803237Y-64622313D01*
X126788433Y-64595967D01*
X126778480Y-64568503D01*
X126775502Y-64554164D01*
X126773779Y-64526104D01*
X126777352Y-64500832D01*
X126785923Y-64478686D01*
X126799199Y-64460005D01*
X126816882Y-64445126D01*
X126838677Y-64434389D01*
X126864289Y-64428131D01*
X126886989Y-64426577D01*
X126900435Y-64426838D01*
X126914053Y-64427711D01*
X126928500Y-64429330D01*
X126944432Y-64431830D01*
X126962505Y-64435344D01*
X126983374Y-64440007D01*
X127007695Y-64445953D01*
X127036126Y-64453316D01*
X127069320Y-64462231D01*
X127093404Y-64468822D01*
X127133857Y-64479405D01*
X127168975Y-64487424D01*
X127198691Y-64492864D01*
X127217001Y-64495206D01*
X127227769Y-64496546D01*
X127242801Y-64498808D01*
X127260376Y-64501715D01*
X127278772Y-64504988D01*
X127285472Y-64506243D01*
X127304775Y-64509601D01*
X127327965Y-64513151D01*
X127352847Y-64516585D01*
X127377226Y-64519595D01*
X127392285Y-64521230D01*
X127416874Y-64523557D01*
X127444813Y-64525930D01*
X127475128Y-64528287D01*
X127506843Y-64530569D01*
X127538986Y-64532714D01*
X127570583Y-64534661D01*
X127600660Y-64536350D01*
X127628243Y-64537719D01*
X127652358Y-64538709D01*
X127672032Y-64539258D01*
X127682398Y-64539348D01*
X127720546Y-64539209D01*
X127705287Y-64531265D01*
X127698323Y-64527847D01*
X127686726Y-64522391D01*
X127671439Y-64515331D01*
X127653410Y-64507103D01*
X127633585Y-64498140D01*
X127616785Y-64490607D01*
X127583034Y-64475268D01*
X127547540Y-64458657D01*
X127511348Y-64441292D01*
X127475502Y-64423693D01*
X127441049Y-64406380D01*
X127409031Y-64389871D01*
X127380496Y-64374686D01*
X127356488Y-64361345D01*
X127355550Y-64360807D01*
X127316371Y-64337350D01*
X127275015Y-64310817D01*
X127232238Y-64281796D01*
X127188795Y-64250872D01*
X127145439Y-64218630D01*
X127102925Y-64185658D01*
X127062009Y-64152540D01*
X127023444Y-64119863D01*
X126987986Y-64088214D01*
X126956389Y-64058177D01*
X126929407Y-64030339D01*
X126928011Y-64028816D01*
X126892521Y-63987751D01*
X126860619Y-63946270D01*
X126832771Y-63905074D01*
X126809444Y-63864865D01*
X126791108Y-63826344D01*
X126788015Y-63818738D01*
X126775593Y-63780536D01*
X126767396Y-63740399D01*
X126763425Y-63699404D01*
X126763678Y-63658629D01*
X126768157Y-63619151D01*
X126776859Y-63582050D01*
X126788063Y-63552111D01*
X126806113Y-63519046D01*
X126828762Y-63488665D01*
X126855261Y-63461621D01*
X126884862Y-63438568D01*
X126916816Y-63420159D01*
X126950375Y-63407047D01*
X126956074Y-63405422D01*
X126975829Y-63401791D01*
X127001175Y-63400029D01*
X127011006Y-63399859D01*
X127026328Y-63399850D01*
X127037305Y-63400255D01*
G37*
G36*
X126930666Y-70548707D02*
G01*
X126947576Y-70550418D01*
X126967492Y-70553715D01*
X126990938Y-70558639D01*
X127018437Y-70565231D01*
X127050511Y-70573531D01*
X127087683Y-70583578D01*
X127104085Y-70588093D01*
X127174099Y-70607234D01*
X127240008Y-70624847D01*
X127301560Y-70640869D01*
X127358506Y-70655238D01*
X127410596Y-70667892D01*
X127457577Y-70678768D01*
X127499202Y-70687804D01*
X127525231Y-70693042D01*
X127598217Y-70705376D01*
X127675801Y-70715122D01*
X127757019Y-70722204D01*
X127840907Y-70726548D01*
X127926502Y-70728079D01*
X127971926Y-70727729D01*
X128005427Y-70727018D01*
X128034319Y-70725987D01*
X128060096Y-70724484D01*
X128084250Y-70722357D01*
X128108275Y-70719453D01*
X128133663Y-70715622D01*
X128161907Y-70710710D01*
X128188994Y-70705625D01*
X128212476Y-70701125D01*
X128230765Y-70697686D01*
X128244666Y-70695235D01*
X128254984Y-70693701D01*
X128262522Y-70693009D01*
X128268087Y-70693087D01*
X128272481Y-70693862D01*
X128276510Y-70695260D01*
X128280979Y-70697209D01*
X128281106Y-70697265D01*
X128294122Y-70704933D01*
X128308812Y-70716707D01*
X128323874Y-70731368D01*
X128338001Y-70747697D01*
X128344844Y-70756866D01*
X128359641Y-70782523D01*
X128369274Y-70809581D01*
X128373501Y-70837070D01*
X128372077Y-70864017D01*
X128371885Y-70865151D01*
X128364670Y-70889591D01*
X128352054Y-70911229D01*
X128334069Y-70930044D01*
X128310747Y-70946018D01*
X128282119Y-70959130D01*
X128248217Y-70969361D01*
X128209072Y-70976691D01*
X128189094Y-70979106D01*
X128171770Y-70980331D01*
X128149455Y-70981066D01*
X128123242Y-70981332D01*
X128094220Y-70981150D01*
X128063483Y-70980543D01*
X128032122Y-70979532D01*
X128001227Y-70978138D01*
X127971891Y-70976384D01*
X127945205Y-70974292D01*
X127944852Y-70974260D01*
X127883850Y-70968239D01*
X127819853Y-70960944D01*
X127752475Y-70952317D01*
X127681328Y-70942299D01*
X127606027Y-70930834D01*
X127526186Y-70917864D01*
X127441419Y-70903331D01*
X127351339Y-70887178D01*
X127311606Y-70879855D01*
X127262948Y-70870882D01*
X127219875Y-70863077D01*
X127181995Y-70856379D01*
X127148914Y-70850728D01*
X127120239Y-70846063D01*
X127095577Y-70842324D01*
X127074536Y-70839448D01*
X127056721Y-70837377D01*
X127041741Y-70836048D01*
X127029201Y-70835402D01*
X127023407Y-70835315D01*
X126987106Y-70833566D01*
X126951995Y-70828534D01*
X126918941Y-70820494D01*
X126888811Y-70809723D01*
X126862471Y-70796497D01*
X126840788Y-70781090D01*
X126834404Y-70775178D01*
X126823011Y-70762647D01*
X126815018Y-70750598D01*
X126809971Y-70737617D01*
X126807417Y-70722286D01*
X126806902Y-70703189D01*
X126807320Y-70690647D01*
X126811272Y-70657424D01*
X126819776Y-70627908D01*
X126832745Y-70602289D01*
X126850092Y-70580756D01*
X126863052Y-70569507D01*
X126872907Y-70562544D01*
X126882630Y-70556926D01*
X126892744Y-70552693D01*
X126903773Y-70549885D01*
X126916239Y-70548543D01*
X126930666Y-70548707D01*
G37*
G36*
X127481257Y-66367465D02*
G01*
X127413433Y-66343608D01*
X127345492Y-66315116D01*
X127298959Y-66293092D01*
X127217925Y-66250035D01*
X127140096Y-66202552D01*
X127065975Y-66151001D01*
X126996063Y-66095737D01*
X126930864Y-66037119D01*
X126910210Y-66016841D01*
X126872260Y-65977152D01*
X126839137Y-65938976D01*
X126810104Y-65901314D01*
X126784424Y-65863168D01*
X126761361Y-65823539D01*
X126746831Y-65795302D01*
X126725797Y-65748690D01*
X126709540Y-65703969D01*
X126697698Y-65659736D01*
X126689910Y-65614588D01*
X126689212Y-65606505D01*
X126903144Y-65606505D01*
X126903808Y-65626847D01*
X126906581Y-65647211D01*
X126908660Y-65656446D01*
X126919342Y-65687897D01*
X126935374Y-65721051D01*
X126956416Y-65755404D01*
X126982127Y-65790452D01*
X127012166Y-65825690D01*
X127046194Y-65860615D01*
X127047313Y-65861691D01*
X127106117Y-65914291D01*
X127167829Y-65961920D01*
X127232731Y-66004739D01*
X127301105Y-66042905D01*
X127373235Y-66076578D01*
X127449402Y-66105916D01*
X127524890Y-66129669D01*
X127542626Y-66134668D01*
X127555331Y-66138145D01*
X127563836Y-66140277D01*
X127568973Y-66141239D01*
X127571572Y-66141205D01*
X127572466Y-66140353D01*
X127572534Y-66139720D01*
X127571025Y-66136599D01*
X127566839Y-66129148D01*
X127560483Y-66118243D01*
X127552468Y-66104759D01*
X127544569Y-66091654D01*
X127496658Y-66014546D01*
X127449826Y-65942969D01*
X127404107Y-65876959D01*
X127359531Y-65816551D01*
X127316133Y-65761781D01*
X127273943Y-65712685D01*
X127232995Y-65669299D01*
X127193320Y-65631658D01*
X127154952Y-65599798D01*
X127117923Y-65573754D01*
X127082264Y-65553563D01*
X127048008Y-65539260D01*
X127041392Y-65537128D01*
X127023023Y-65532941D01*
X127002356Y-65530533D01*
X126981516Y-65529981D01*
X126962628Y-65531361D01*
X126950560Y-65533846D01*
X126935163Y-65541246D01*
X126921340Y-65553047D01*
X126910908Y-65567551D01*
X126908186Y-65573479D01*
X126904600Y-65588083D01*
X126903144Y-65606505D01*
X126689212Y-65606505D01*
X126685814Y-65567123D01*
X126685405Y-65557213D01*
X126684814Y-65535737D01*
X126684749Y-65518907D01*
X126685273Y-65505284D01*
X126686451Y-65493430D01*
X126688346Y-65481905D01*
X126688840Y-65479393D01*
X126697616Y-65445891D01*
X126709933Y-65416415D01*
X126726527Y-65389570D01*
X126748133Y-65363960D01*
X126751604Y-65360390D01*
X126775477Y-65338418D01*
X126799507Y-65321204D01*
X126825448Y-65307720D01*
X126855057Y-65296938D01*
X126864889Y-65294084D01*
X126880393Y-65291131D01*
X126900400Y-65289305D01*
X126923423Y-65288587D01*
X126947970Y-65288957D01*
X126972551Y-65290398D01*
X126995676Y-65292888D01*
X127014058Y-65296020D01*
X127062233Y-65308613D01*
X127109212Y-65325903D01*
X127155293Y-65348085D01*
X127200776Y-65375355D01*
X127245960Y-65407907D01*
X127291143Y-65445937D01*
X127336626Y-65489641D01*
X127377478Y-65533333D01*
X127433893Y-65599468D01*
X127490165Y-65671442D01*
X127546112Y-65748989D01*
X127601551Y-65831844D01*
X127656298Y-65919742D01*
X127710169Y-66012418D01*
X127715904Y-66022660D01*
X127730214Y-66048270D01*
X127741948Y-66069137D01*
X127751479Y-66085863D01*
X127759179Y-66099048D01*
X127765422Y-66109295D01*
X127770579Y-66117204D01*
X127775024Y-66123377D01*
X127779130Y-66128415D01*
X127783268Y-66132919D01*
X127785944Y-66135637D01*
X127796305Y-66144668D01*
X127808049Y-66153010D01*
X127815151Y-66157069D01*
X127822179Y-66160253D01*
X127828857Y-66162376D01*
X127836652Y-66163640D01*
X127847034Y-66164244D01*
X127861472Y-66164390D01*
X127868557Y-66164365D01*
X127910200Y-66161468D01*
X127948942Y-66153247D01*
X127984727Y-66139720D01*
X128017497Y-66120907D01*
X128031828Y-66110256D01*
X128056833Y-66087020D01*
X128077444Y-66060834D01*
X128093794Y-66031356D01*
X128106018Y-65998244D01*
X128114250Y-65961155D01*
X128118625Y-65919747D01*
X128119461Y-65886856D01*
X128116493Y-65830386D01*
X128107945Y-65774108D01*
X128093737Y-65717752D01*
X128073786Y-65661045D01*
X128048010Y-65603719D01*
X128016326Y-65545502D01*
X128015575Y-65544232D01*
X127993514Y-65508732D01*
X127969419Y-65473483D01*
X127942774Y-65437847D01*
X127913065Y-65401182D01*
X127879778Y-65362850D01*
X127842396Y-65322208D01*
X127808889Y-65287286D01*
X127787601Y-65265300D01*
X127770315Y-65247029D01*
X127756634Y-65231951D01*
X127746164Y-65219545D01*
X127738513Y-65209290D01*
X127733284Y-65200666D01*
X127730083Y-65193150D01*
X127728517Y-65186221D01*
X127728175Y-65180638D01*
X127731084Y-65166688D01*
X127739321Y-65154562D01*
X127751063Y-65145926D01*
X127763203Y-65141704D01*
X127779611Y-65138988D01*
X127798624Y-65137848D01*
X127818578Y-65138353D01*
X127837810Y-65140573D01*
X127845010Y-65141976D01*
X127872987Y-65150588D01*
X127903205Y-65164319D01*
X127935181Y-65182824D01*
X127968433Y-65205758D01*
X128002477Y-65232777D01*
X128036832Y-65263537D01*
X128071015Y-65297693D01*
X128086056Y-65313908D01*
X128136572Y-65372033D01*
X128181472Y-65428870D01*
X128220994Y-65484862D01*
X128255374Y-65540452D01*
X128284851Y-65596083D01*
X128309661Y-65652199D01*
X128330041Y-65709243D01*
X128346229Y-65767658D01*
X128357180Y-65820463D01*
X128359569Y-65837696D01*
X128361585Y-65859466D01*
X128363187Y-65884358D01*
X128364332Y-65910953D01*
X128364981Y-65937835D01*
X128365093Y-65963587D01*
X128364625Y-65986793D01*
X128363538Y-66006036D01*
X128362777Y-66013505D01*
X128353482Y-66068816D01*
X128339805Y-66120182D01*
X128321790Y-66167476D01*
X128299485Y-66210573D01*
X128279573Y-66240602D01*
X128248374Y-66277897D01*
X128212639Y-66311178D01*
X128172489Y-66340374D01*
X128128043Y-66365418D01*
X128079423Y-66386240D01*
X128026750Y-66402772D01*
X127976895Y-66413760D01*
X127965448Y-66415750D01*
X127954995Y-66417335D01*
X127944643Y-66418557D01*
X127933496Y-66419464D01*
X127920661Y-66420099D01*
X127905243Y-66420507D01*
X127886349Y-66420734D01*
X127863083Y-66420825D01*
X127836513Y-66420826D01*
X127805232Y-66420720D01*
X127779176Y-66420441D01*
X127757468Y-66419955D01*
X127739233Y-66419228D01*
X127723594Y-66418225D01*
X127709673Y-66416912D01*
X127697657Y-66415406D01*
X127622005Y-66402946D01*
X127568973Y-66391226D01*
X127550327Y-66387105D01*
X127481257Y-66367465D01*
G37*
G36*
X128145355Y-66637588D02*
G01*
X128155121Y-66641245D01*
X128159819Y-66643475D01*
X128176566Y-66654546D01*
X128192548Y-66670437D01*
X128206866Y-66689864D01*
X128218622Y-66711543D01*
X128226918Y-66734191D01*
X128228832Y-66742080D01*
X128230985Y-66760476D01*
X128230889Y-66782014D01*
X128228714Y-66804236D01*
X128224632Y-66824680D01*
X128222595Y-66831537D01*
X128209611Y-66861526D01*
X128191058Y-66890884D01*
X128167470Y-66919079D01*
X128139382Y-66945577D01*
X128107326Y-66969846D01*
X128071839Y-66991353D01*
X128052700Y-67001035D01*
X128014749Y-67016975D01*
X127971185Y-67031549D01*
X127922360Y-67044679D01*
X127868629Y-67056287D01*
X127810343Y-67066296D01*
X127747857Y-67074626D01*
X127694605Y-67080073D01*
X127653632Y-67083744D01*
X127618065Y-67086961D01*
X127587229Y-67089790D01*
X127560451Y-67092298D01*
X127537055Y-67094552D01*
X127516366Y-67096616D01*
X127497710Y-67098558D01*
X127480411Y-67100444D01*
X127463796Y-67102340D01*
X127447189Y-67104313D01*
X127444359Y-67104655D01*
X127398840Y-67110510D01*
X127358987Y-67116374D01*
X127324364Y-67122365D01*
X127294535Y-67128596D01*
X127269061Y-67135183D01*
X127247509Y-67142243D01*
X127229439Y-67149889D01*
X127214418Y-67158237D01*
X127202006Y-67167404D01*
X127199886Y-67169267D01*
X127186305Y-67184172D01*
X127178126Y-67200052D01*
X127174670Y-67218396D01*
X127174450Y-67225063D01*
X127175894Y-67241039D01*
X127180520Y-67257379D01*
X127188647Y-67274577D01*
X127200595Y-67293126D01*
X127216682Y-67313520D01*
X127237229Y-67336252D01*
X127262553Y-67361815D01*
X127263483Y-67362722D01*
X127291867Y-67389216D01*
X127323965Y-67417012D01*
X127359930Y-67446210D01*
X127399912Y-67476913D01*
X127444064Y-67509223D01*
X127492535Y-67543243D01*
X127545478Y-67579074D01*
X127603043Y-67616819D01*
X127665382Y-67656579D01*
X127732646Y-67698457D01*
X127804987Y-67742556D01*
X127882555Y-67788976D01*
X127965501Y-67837820D01*
X127976895Y-67844475D01*
X128029839Y-67875624D01*
X128077584Y-67904284D01*
X128120407Y-67930662D01*
X128158585Y-67954968D01*
X128192396Y-67977408D01*
X128222114Y-67998190D01*
X128248018Y-68017523D01*
X128270385Y-68035614D01*
X128289490Y-68052672D01*
X128305611Y-68068903D01*
X128319025Y-68084517D01*
X128330008Y-68099721D01*
X128338838Y-68114722D01*
X128340190Y-68117357D01*
X128345291Y-68127996D01*
X128348396Y-68136475D01*
X128349972Y-68145019D01*
X128350488Y-68155854D01*
X128350466Y-68166186D01*
X128349893Y-68180580D01*
X128348609Y-68194430D01*
X128346857Y-68205330D01*
X128346256Y-68207738D01*
X128341489Y-68222927D01*
X128336463Y-68234903D01*
X128329849Y-68246461D01*
X128323015Y-68256581D01*
X128304557Y-68278174D01*
X128283300Y-68294389D01*
X128259374Y-68305149D01*
X128232907Y-68310380D01*
X128230926Y-68310539D01*
X128222101Y-68310931D01*
X128212245Y-68310811D01*
X128200830Y-68310103D01*
X128187327Y-68308728D01*
X128171209Y-68306610D01*
X128151947Y-68303671D01*
X128129014Y-68299833D01*
X128101881Y-68295019D01*
X128070020Y-68289152D01*
X128032902Y-68282153D01*
X128017951Y-68279304D01*
X127743218Y-68228328D01*
X127472063Y-68181067D01*
X127203359Y-68137348D01*
X126935980Y-68096995D01*
X126668800Y-68059835D01*
X126400692Y-68025693D01*
X126302992Y-68014021D01*
X126251665Y-68007777D01*
X126205961Y-68001707D01*
X126165408Y-67995686D01*
X126129534Y-67989587D01*
X126097865Y-67983285D01*
X126069929Y-67976654D01*
X126045253Y-67969566D01*
X126023364Y-67961896D01*
X126003791Y-67953518D01*
X125986060Y-67944305D01*
X125969698Y-67934132D01*
X125954234Y-67922872D01*
X125950511Y-67919919D01*
X125933266Y-67904692D01*
X125918621Y-67889109D01*
X125907333Y-67874122D01*
X125900162Y-67860686D01*
X125898233Y-67854230D01*
X125897540Y-67837046D01*
X125900901Y-67817168D01*
X125907803Y-67795951D01*
X125917733Y-67774749D01*
X125930179Y-67754919D01*
X125940691Y-67741943D01*
X125957656Y-67725359D01*
X125975878Y-67711779D01*
X125995975Y-67701047D01*
X126018563Y-67693005D01*
X126044261Y-67687497D01*
X126073685Y-67684365D01*
X126107454Y-67683453D01*
X126146185Y-67684604D01*
X126162610Y-67685568D01*
X126217388Y-67689960D01*
X126273907Y-67696119D01*
X126332603Y-67704129D01*
X126393915Y-67714076D01*
X126458282Y-67726044D01*
X126526142Y-67740117D01*
X126597933Y-67756383D01*
X126674092Y-67774924D01*
X126755060Y-67795827D01*
X126817217Y-67812562D01*
X126861154Y-67824340D01*
X126907583Y-67836343D01*
X126956152Y-67848502D01*
X127006512Y-67860749D01*
X127058310Y-67873014D01*
X127111195Y-67885229D01*
X127164816Y-67897325D01*
X127218822Y-67909233D01*
X127272861Y-67920884D01*
X127326583Y-67932209D01*
X127379635Y-67943139D01*
X127431667Y-67953606D01*
X127482327Y-67963540D01*
X127531264Y-67972872D01*
X127578126Y-67981535D01*
X127622564Y-67989458D01*
X127664224Y-67996573D01*
X127702756Y-68002810D01*
X127737809Y-68008102D01*
X127769032Y-68012380D01*
X127796072Y-68015573D01*
X127818579Y-68017614D01*
X127836202Y-68018433D01*
X127848589Y-68017963D01*
X127855345Y-68016161D01*
X127858747Y-68011677D01*
X127860897Y-68006001D01*
X127861362Y-68002924D01*
X127860567Y-68000104D01*
X127857783Y-67996983D01*
X127852280Y-67993005D01*
X127843327Y-67987614D01*
X127830196Y-67980254D01*
X127819177Y-67974206D01*
X127725732Y-67922134D01*
X127636477Y-67870468D01*
X127551569Y-67819319D01*
X127471166Y-67768798D01*
X127395427Y-67719017D01*
X127324510Y-67670086D01*
X127258572Y-67622118D01*
X127197773Y-67575223D01*
X127142270Y-67529512D01*
X127092221Y-67485097D01*
X127047784Y-67442090D01*
X127018135Y-67410714D01*
X126981472Y-67368147D01*
X126950254Y-67327400D01*
X126924239Y-67288074D01*
X126903187Y-67249770D01*
X126886857Y-67212090D01*
X126875006Y-67174636D01*
X126874878Y-67174138D01*
X126871361Y-67159413D01*
X126869186Y-67146896D01*
X126868126Y-67134310D01*
X126867952Y-67119374D01*
X126868198Y-67107569D01*
X126868808Y-67091103D01*
X126869754Y-67079090D01*
X126871319Y-67069881D01*
X126873785Y-67061827D01*
X126877436Y-67053278D01*
X126877532Y-67053070D01*
X126890508Y-67029620D01*
X126906751Y-67008416D01*
X126926609Y-66989267D01*
X126950430Y-66971980D01*
X126978560Y-66956363D01*
X127011349Y-66942225D01*
X127049144Y-66929372D01*
X127092293Y-66917613D01*
X127141144Y-66906756D01*
X127143162Y-66906350D01*
X127183924Y-66898737D01*
X127229683Y-66891213D01*
X127279332Y-66883936D01*
X127331762Y-66877067D01*
X127385868Y-66870768D01*
X127397056Y-66869562D01*
X127444016Y-66864472D01*
X127485641Y-66859725D01*
X127522684Y-66855211D01*
X127555898Y-66850817D01*
X127586034Y-66846432D01*
X127613845Y-66841942D01*
X127640083Y-66837236D01*
X127665500Y-66832203D01*
X127690849Y-66826729D01*
X127702691Y-66824032D01*
X127761601Y-66809089D01*
X127815409Y-66792546D01*
X127864987Y-66774037D01*
X127911213Y-66753196D01*
X127954959Y-66729656D01*
X127997101Y-66703051D01*
X128005862Y-66697017D01*
X128035816Y-66676867D01*
X128061926Y-66660997D01*
X128084525Y-66649239D01*
X128103946Y-66641423D01*
X128120523Y-66637381D01*
X128124209Y-66636945D01*
X128136139Y-66636354D01*
X128145355Y-66637588D01*
G37*
G36*
X126023004Y-70274992D02*
G01*
X126045502Y-70278358D01*
X126071191Y-70283563D01*
X126098885Y-70290272D01*
X126127394Y-70298153D01*
X126155532Y-70306874D01*
X126182110Y-70316101D01*
X126205943Y-70325501D01*
X126225841Y-70334742D01*
X126229749Y-70336817D01*
X126255965Y-70353105D01*
X126277954Y-70371350D01*
X126296808Y-70392708D01*
X126313615Y-70418336D01*
X126322819Y-70435540D01*
X126335316Y-70462525D01*
X126344848Y-70487496D01*
X126351289Y-70509886D01*
X126354510Y-70529129D01*
X126354385Y-70544658D01*
X126350786Y-70555907D01*
X126350093Y-70556973D01*
X126345510Y-70561930D01*
X126338377Y-70566888D01*
X126327954Y-70572200D01*
X126313502Y-70578222D01*
X126294281Y-70585308D01*
X126282277Y-70589489D01*
X126263122Y-70596095D01*
X126241175Y-70603703D01*
X126219401Y-70611285D01*
X126203809Y-70616741D01*
X126165273Y-70628705D01*
X126130228Y-70636251D01*
X126098075Y-70639488D01*
X126079824Y-70639403D01*
X126061489Y-70637590D01*
X126045194Y-70633608D01*
X126029818Y-70626864D01*
X126014243Y-70616764D01*
X125997348Y-70602714D01*
X125980708Y-70586817D01*
X125955720Y-70559451D01*
X125936267Y-70532390D01*
X125921895Y-70504764D01*
X125912149Y-70475701D01*
X125906606Y-70444601D01*
X125905554Y-70415768D01*
X125909287Y-70388359D01*
X125918088Y-70361189D01*
X125932242Y-70333074D01*
X125934170Y-70329821D01*
X125948617Y-70308120D01*
X125962668Y-70292064D01*
X125976819Y-70281261D01*
X125991564Y-70275318D01*
X126004885Y-70273795D01*
X126023004Y-70274992D01*
G37*
D12*
G04 #@! TO.C,SW2*
X122562500Y-93912500D02*
X124962500Y-93912500D01*
X117762500Y-93912500D02*
X120362500Y-93912500D01*
X113162500Y-93912500D02*
X115562500Y-93912500D01*
X113162500Y-106112500D02*
X124962500Y-106112500D01*
X113162500Y-104012500D02*
X113162500Y-106112500D01*
X124962500Y-104012500D02*
X124962500Y-106112500D01*
X124962500Y-93912500D02*
X124962500Y-96012500D01*
X113162500Y-96012500D02*
X113162500Y-93912500D01*
G04 #@! TO.C,SW3*
X46362500Y-93912500D02*
X48762500Y-93912500D01*
X41562500Y-93912500D02*
X44162500Y-93912500D01*
X36962500Y-93912500D02*
X39362500Y-93912500D01*
X36962500Y-106112500D02*
X48762500Y-106112500D01*
X36962500Y-104012500D02*
X36962500Y-106112500D01*
X48762500Y-104012500D02*
X48762500Y-106112500D01*
X48762500Y-93912500D02*
X48762500Y-96012500D01*
X36962500Y-96012500D02*
X36962500Y-93912500D01*
D13*
G04 #@! TO.C,U1*
X35560000Y-125412500D02*
X35560000Y-127952500D01*
X33020000Y-127952500D02*
X35560000Y-127952500D01*
X33020000Y-110172500D02*
X33020000Y-127952500D01*
X35560000Y-110172500D02*
X33020000Y-110172500D01*
D10*
X42039360Y-114130932D02*
X42239360Y-114130932D01*
X42239360Y-114130932D02*
X42239360Y-114230932D01*
X42239360Y-114230932D02*
X42039360Y-114230932D01*
X42039360Y-114230932D02*
X42039360Y-114130932D01*
G36*
X42239360Y-114230932D02*
G01*
X42039360Y-114230932D01*
X42039360Y-114130932D01*
X42239360Y-114130932D01*
X42239360Y-114230932D01*
G37*
X42239360Y-114230932D02*
X42039360Y-114230932D01*
X42039360Y-114130932D01*
X42239360Y-114130932D01*
X42239360Y-114230932D01*
X41439360Y-114530932D02*
X42239360Y-114530932D01*
X42239360Y-114530932D02*
X42239360Y-114630932D01*
X42239360Y-114630932D02*
X41439360Y-114630932D01*
X41439360Y-114630932D02*
X41439360Y-114530932D01*
G36*
X42239360Y-114630932D02*
G01*
X41439360Y-114630932D01*
X41439360Y-114530932D01*
X42239360Y-114530932D01*
X42239360Y-114630932D01*
G37*
X42239360Y-114630932D02*
X41439360Y-114630932D01*
X41439360Y-114530932D01*
X42239360Y-114530932D01*
X42239360Y-114630932D01*
X41439360Y-114130932D02*
X41539360Y-114130932D01*
X41539360Y-114130932D02*
X41539360Y-114630932D01*
X41539360Y-114630932D02*
X41439360Y-114630932D01*
X41439360Y-114630932D02*
X41439360Y-114130932D01*
G36*
X41539360Y-114630932D02*
G01*
X41439360Y-114630932D01*
X41439360Y-114130932D01*
X41539360Y-114130932D01*
X41539360Y-114630932D01*
G37*
X41539360Y-114630932D02*
X41439360Y-114630932D01*
X41439360Y-114130932D01*
X41539360Y-114130932D01*
X41539360Y-114630932D01*
X41839360Y-114330932D02*
X41939360Y-114330932D01*
X41939360Y-114330932D02*
X41939360Y-114430932D01*
X41939360Y-114430932D02*
X41839360Y-114430932D01*
X41839360Y-114430932D02*
X41839360Y-114330932D01*
G36*
X41939360Y-114430932D02*
G01*
X41839360Y-114430932D01*
X41839360Y-114330932D01*
X41939360Y-114330932D01*
X41939360Y-114430932D01*
G37*
X41939360Y-114430932D02*
X41839360Y-114430932D01*
X41839360Y-114330932D01*
X41939360Y-114330932D01*
X41939360Y-114430932D01*
X41439360Y-114130932D02*
X41739360Y-114130932D01*
X41739360Y-114130932D02*
X41739360Y-114230932D01*
X41739360Y-114230932D02*
X41439360Y-114230932D01*
X41439360Y-114230932D02*
X41439360Y-114130932D01*
G36*
X41739360Y-114230932D02*
G01*
X41439360Y-114230932D01*
X41439360Y-114130932D01*
X41739360Y-114130932D01*
X41739360Y-114230932D01*
G37*
X41739360Y-114230932D02*
X41439360Y-114230932D01*
X41439360Y-114130932D01*
X41739360Y-114130932D01*
X41739360Y-114230932D01*
D13*
X38100000Y-125412500D02*
X38100000Y-127952500D01*
X35560000Y-125412500D02*
X38100000Y-125412500D01*
X66040000Y-110172500D02*
X35560000Y-110172500D01*
X66040000Y-127952500D02*
X66040000Y-110172500D01*
X35560000Y-127952500D02*
X66040000Y-127952500D01*
D10*
G04 #@! TO.C,SW1*
X92237500Y-120825000D02*
X91987500Y-120825000D01*
X92237500Y-126825000D02*
X92237500Y-120825000D01*
X91987500Y-126825000D02*
X92237500Y-126825000D01*
X88737500Y-126825000D02*
X88987500Y-126825000D01*
X88737500Y-120825000D02*
X88737500Y-126825000D01*
X88987500Y-120825000D02*
X88737500Y-120825000D01*
G04 #@! TD*
D14*
G04 #@! TO.C,SW25*
X58102500Y-116522500D03*
X64452500Y-113982500D03*
G04 #@! TD*
G04 #@! TO.C,SW24*
X45402500Y-113982500D03*
X39052500Y-116522500D03*
G04 #@! TD*
D15*
G04 #@! TO.C,U1*
X36830000Y-111213900D03*
X64770000Y-126453900D03*
X39370000Y-111671100D03*
X41910000Y-111213900D03*
X44450000Y-111671100D03*
X46990000Y-111213900D03*
X49530000Y-111671100D03*
X52070000Y-111213900D03*
X54610000Y-111671100D03*
X57150000Y-111213900D03*
X59690000Y-111671100D03*
X62230000Y-111213900D03*
X64770000Y-111671100D03*
X62230000Y-126911100D03*
X59690000Y-126453900D03*
X57150000Y-126911100D03*
X54610000Y-126453900D03*
X52070000Y-126911100D03*
X49530000Y-126453900D03*
X46990000Y-126911100D03*
X44450000Y-126453900D03*
X41910000Y-126911100D03*
X39370000Y-126453900D03*
D16*
X36830000Y-126911100D03*
G04 #@! TD*
M02*
