G04 #@! TF.GenerationSoftware,KiCad,Pcbnew,(6.0.1)*
G04 #@! TF.CreationDate,2022-02-24T19:14:04+09:00*
G04 #@! TF.ProjectId,xipher_kbd,78697068-6572-45f6-9b62-642e6b696361,rev?*
G04 #@! TF.SameCoordinates,Original*
G04 #@! TF.FileFunction,Legend,Bot*
G04 #@! TF.FilePolarity,Positive*
%FSLAX46Y46*%
G04 Gerber Fmt 4.6, Leading zero omitted, Abs format (unit mm)*
G04 Created by KiCad (PCBNEW (6.0.1)) date 2022-02-24 19:14:04*
%MOMM*%
%LPD*%
G01*
G04 APERTURE LIST*
%ADD10C,0.150000*%
%ADD11C,0.254000*%
%ADD12C,0.120000*%
%ADD13C,0.200000*%
%ADD14C,0.381000*%
%ADD15C,0.400000*%
%ADD16C,0.500000*%
%ADD17C,1.000000*%
%ADD18C,3.500000*%
%ADD19C,3.000000*%
%ADD20C,0.800000*%
%ADD21C,0.300000*%
%ADD22C,1.752600*%
%ADD23R,1.752600X1.752600*%
%ADD24C,2.000000*%
G04 APERTURE END LIST*
D10*
G04 #@! TO.C,LED16*
X56102380Y-98617261D02*
X56102380Y-98141071D01*
X55102380Y-98141071D01*
X55578571Y-98950595D02*
X55578571Y-99283928D01*
X56102380Y-99426785D02*
X56102380Y-98950595D01*
X55102380Y-98950595D01*
X55102380Y-99426785D01*
X56102380Y-99855357D02*
X55102380Y-99855357D01*
X55102380Y-100093452D01*
X55150000Y-100236309D01*
X55245238Y-100331547D01*
X55340476Y-100379166D01*
X55530952Y-100426785D01*
X55673809Y-100426785D01*
X55864285Y-100379166D01*
X55959523Y-100331547D01*
X56054761Y-100236309D01*
X56102380Y-100093452D01*
X56102380Y-99855357D01*
X56102380Y-101379166D02*
X56102380Y-100807738D01*
X56102380Y-101093452D02*
X55102380Y-101093452D01*
X55245238Y-100998214D01*
X55340476Y-100902976D01*
X55388095Y-100807738D01*
X55102380Y-102236309D02*
X55102380Y-102045833D01*
X55150000Y-101950595D01*
X55197619Y-101902976D01*
X55340476Y-101807738D01*
X55530952Y-101760119D01*
X55911904Y-101760119D01*
X56007142Y-101807738D01*
X56054761Y-101855357D01*
X56102380Y-101950595D01*
X56102380Y-102141071D01*
X56054761Y-102236309D01*
X56007142Y-102283928D01*
X55911904Y-102331547D01*
X55673809Y-102331547D01*
X55578571Y-102283928D01*
X55530952Y-102236309D01*
X55483333Y-102141071D01*
X55483333Y-101950595D01*
X55530952Y-101855357D01*
X55578571Y-101807738D01*
X55673809Y-101760119D01*
D11*
G04 #@! TO.C,S1*
X129101547Y-99044880D02*
X129162023Y-99226309D01*
X129162023Y-99528690D01*
X129101547Y-99649642D01*
X129041071Y-99710119D01*
X128920119Y-99770595D01*
X128799166Y-99770595D01*
X128678214Y-99710119D01*
X128617738Y-99649642D01*
X128557261Y-99528690D01*
X128496785Y-99286785D01*
X128436309Y-99165833D01*
X128375833Y-99105357D01*
X128254880Y-99044880D01*
X128133928Y-99044880D01*
X128012976Y-99105357D01*
X127952500Y-99165833D01*
X127892023Y-99286785D01*
X127892023Y-99589166D01*
X127952500Y-99770595D01*
X129162023Y-100980119D02*
X129162023Y-100254404D01*
X129162023Y-100617261D02*
X127892023Y-100617261D01*
X128073452Y-100496309D01*
X128194404Y-100375357D01*
X128254880Y-100254404D01*
G04 #@! TO.C,S2*
X33851547Y-99044880D02*
X33912023Y-99226309D01*
X33912023Y-99528690D01*
X33851547Y-99649642D01*
X33791071Y-99710119D01*
X33670119Y-99770595D01*
X33549166Y-99770595D01*
X33428214Y-99710119D01*
X33367738Y-99649642D01*
X33307261Y-99528690D01*
X33246785Y-99286785D01*
X33186309Y-99165833D01*
X33125833Y-99105357D01*
X33004880Y-99044880D01*
X32883928Y-99044880D01*
X32762976Y-99105357D01*
X32702500Y-99165833D01*
X32642023Y-99286785D01*
X32642023Y-99589166D01*
X32702500Y-99770595D01*
X32762976Y-100254404D02*
X32702500Y-100314880D01*
X32642023Y-100435833D01*
X32642023Y-100738214D01*
X32702500Y-100859166D01*
X32762976Y-100919642D01*
X32883928Y-100980119D01*
X33004880Y-100980119D01*
X33186309Y-100919642D01*
X33912023Y-100193928D01*
X33912023Y-100980119D01*
D10*
G04 #@! TO.C,U1*
X42213809Y-113489166D02*
X42251904Y-113603452D01*
X42251904Y-113793928D01*
X42213809Y-113870119D01*
X42175714Y-113908214D01*
X42099523Y-113946309D01*
X42023333Y-113946309D01*
X41947142Y-113908214D01*
X41909047Y-113870119D01*
X41870952Y-113793928D01*
X41832857Y-113641547D01*
X41794761Y-113565357D01*
X41756666Y-113527261D01*
X41680476Y-113489166D01*
X41604285Y-113489166D01*
X41528095Y-113527261D01*
X41490000Y-113565357D01*
X41451904Y-113641547D01*
X41451904Y-113832023D01*
X41490000Y-113946309D01*
X41451904Y-114174880D02*
X41451904Y-114632023D01*
X42251904Y-114403452D02*
X41451904Y-114403452D01*
X36391904Y-120443895D02*
X36391904Y-120901038D01*
X37191904Y-120672467D02*
X36391904Y-120672467D01*
X36391904Y-121091514D02*
X37191904Y-121624848D01*
X36391904Y-121624848D02*
X37191904Y-121091514D01*
X36391904Y-122081991D02*
X36391904Y-122158181D01*
X36430000Y-122234372D01*
X36468095Y-122272467D01*
X36544285Y-122310562D01*
X36696666Y-122348657D01*
X36887142Y-122348657D01*
X37039523Y-122310562D01*
X37115714Y-122272467D01*
X37153809Y-122234372D01*
X37191904Y-122158181D01*
X37191904Y-122081991D01*
X37153809Y-122005800D01*
X37115714Y-121967705D01*
X37039523Y-121929610D01*
X36887142Y-121891514D01*
X36696666Y-121891514D01*
X36544285Y-121929610D01*
X36468095Y-121967705D01*
X36430000Y-122005800D01*
X36391904Y-122081991D01*
X36353809Y-123262943D02*
X37382380Y-122577229D01*
X37191904Y-123529610D02*
X36391904Y-123529610D01*
X36391904Y-123720086D01*
X36430000Y-123834372D01*
X36506190Y-123910562D01*
X36582380Y-123948657D01*
X36734761Y-123986752D01*
X36849047Y-123986752D01*
X37001428Y-123948657D01*
X37077619Y-123910562D01*
X37153809Y-123834372D01*
X37191904Y-123720086D01*
X37191904Y-123529610D01*
X36391904Y-124253419D02*
X36391904Y-124748657D01*
X36696666Y-124481991D01*
X36696666Y-124596276D01*
X36734761Y-124672467D01*
X36772857Y-124710562D01*
X36849047Y-124748657D01*
X37039523Y-124748657D01*
X37115714Y-124710562D01*
X37153809Y-124672467D01*
X37191904Y-124596276D01*
X37191904Y-124367705D01*
X37153809Y-124291514D01*
X37115714Y-124253419D01*
X62172857Y-113277690D02*
X62210952Y-113391976D01*
X62249047Y-113430071D01*
X62325238Y-113468166D01*
X62439523Y-113468166D01*
X62515714Y-113430071D01*
X62553809Y-113391976D01*
X62591904Y-113315785D01*
X62591904Y-113011023D01*
X61791904Y-113011023D01*
X61791904Y-113277690D01*
X61830000Y-113353880D01*
X61868095Y-113391976D01*
X61944285Y-113430071D01*
X62020476Y-113430071D01*
X62096666Y-113391976D01*
X62134761Y-113353880D01*
X62172857Y-113277690D01*
X62172857Y-113011023D01*
X61868095Y-113772928D02*
X61830000Y-113811023D01*
X61791904Y-113887214D01*
X61791904Y-114077690D01*
X61830000Y-114153880D01*
X61868095Y-114191976D01*
X61944285Y-114230071D01*
X62020476Y-114230071D01*
X62134761Y-114191976D01*
X62591904Y-113734833D01*
X62591904Y-114230071D01*
X54552857Y-113334833D02*
X54552857Y-113068166D01*
X54971904Y-113068166D02*
X54171904Y-113068166D01*
X54171904Y-113449119D01*
X54171904Y-113677690D02*
X54171904Y-114211023D01*
X54971904Y-113868166D01*
X52012857Y-113334833D02*
X52012857Y-113068166D01*
X52431904Y-113068166D02*
X51631904Y-113068166D01*
X51631904Y-113449119D01*
X51631904Y-114096738D02*
X51631904Y-113944357D01*
X51670000Y-113868166D01*
X51708095Y-113830071D01*
X51822380Y-113753880D01*
X51974761Y-113715785D01*
X52279523Y-113715785D01*
X52355714Y-113753880D01*
X52393809Y-113791976D01*
X52431904Y-113868166D01*
X52431904Y-114020547D01*
X52393809Y-114096738D01*
X52355714Y-114134833D01*
X52279523Y-114172928D01*
X52089047Y-114172928D01*
X52012857Y-114134833D01*
X51974761Y-114096738D01*
X51936666Y-114020547D01*
X51936666Y-113868166D01*
X51974761Y-113791976D01*
X52012857Y-113753880D01*
X52089047Y-113715785D01*
X49472857Y-113334833D02*
X49472857Y-113068166D01*
X49891904Y-113068166D02*
X49091904Y-113068166D01*
X49091904Y-113449119D01*
X49091904Y-114134833D02*
X49091904Y-113753880D01*
X49472857Y-113715785D01*
X49434761Y-113753880D01*
X49396666Y-113830071D01*
X49396666Y-114020547D01*
X49434761Y-114096738D01*
X49472857Y-114134833D01*
X49549047Y-114172928D01*
X49739523Y-114172928D01*
X49815714Y-114134833D01*
X49853809Y-114096738D01*
X49891904Y-114020547D01*
X49891904Y-113830071D01*
X49853809Y-113753880D01*
X49815714Y-113715785D01*
X37191904Y-113049119D02*
X36810952Y-112782452D01*
X37191904Y-112591976D02*
X36391904Y-112591976D01*
X36391904Y-112896738D01*
X36430000Y-112972928D01*
X36468095Y-113011023D01*
X36544285Y-113049119D01*
X36658571Y-113049119D01*
X36734761Y-113011023D01*
X36772857Y-112972928D01*
X36810952Y-112896738D01*
X36810952Y-112591976D01*
X36963333Y-113353880D02*
X36963333Y-113734833D01*
X37191904Y-113277690D02*
X36391904Y-113544357D01*
X37191904Y-113811023D01*
X36391904Y-114001500D02*
X37191904Y-114191976D01*
X36620476Y-114344357D01*
X37191904Y-114496738D01*
X36391904Y-114687214D01*
X38970000Y-112991976D02*
X38931904Y-112915785D01*
X38931904Y-112801500D01*
X38970000Y-112687214D01*
X39046190Y-112611023D01*
X39122380Y-112572928D01*
X39274761Y-112534833D01*
X39389047Y-112534833D01*
X39541428Y-112572928D01*
X39617619Y-112611023D01*
X39693809Y-112687214D01*
X39731904Y-112801500D01*
X39731904Y-112877690D01*
X39693809Y-112991976D01*
X39655714Y-113030071D01*
X39389047Y-113030071D01*
X39389047Y-112877690D01*
X39731904Y-113372928D02*
X38931904Y-113372928D01*
X39731904Y-113830071D01*
X38931904Y-113830071D01*
X39731904Y-114211023D02*
X38931904Y-114211023D01*
X38931904Y-114401500D01*
X38970000Y-114515785D01*
X39046190Y-114591976D01*
X39122380Y-114630071D01*
X39274761Y-114668166D01*
X39389047Y-114668166D01*
X39541428Y-114630071D01*
X39617619Y-114591976D01*
X39693809Y-114515785D01*
X39731904Y-114401500D01*
X39731904Y-114211023D01*
X44011904Y-112534833D02*
X44811904Y-112801500D01*
X44011904Y-113068166D01*
X44735714Y-113791976D02*
X44773809Y-113753880D01*
X44811904Y-113639595D01*
X44811904Y-113563404D01*
X44773809Y-113449119D01*
X44697619Y-113372928D01*
X44621428Y-113334833D01*
X44469047Y-113296738D01*
X44354761Y-113296738D01*
X44202380Y-113334833D01*
X44126190Y-113372928D01*
X44050000Y-113449119D01*
X44011904Y-113563404D01*
X44011904Y-113639595D01*
X44050000Y-113753880D01*
X44088095Y-113791976D01*
X44735714Y-114591976D02*
X44773809Y-114553880D01*
X44811904Y-114439595D01*
X44811904Y-114363404D01*
X44773809Y-114249119D01*
X44697619Y-114172928D01*
X44621428Y-114134833D01*
X44469047Y-114096738D01*
X44354761Y-114096738D01*
X44202380Y-114134833D01*
X44126190Y-114172928D01*
X44050000Y-114249119D01*
X44011904Y-114363404D01*
X44011904Y-114439595D01*
X44050000Y-114553880D01*
X44088095Y-114591976D01*
X46932857Y-113334833D02*
X46932857Y-113068166D01*
X47351904Y-113068166D02*
X46551904Y-113068166D01*
X46551904Y-113449119D01*
X46818571Y-114096738D02*
X47351904Y-114096738D01*
X46513809Y-113906261D02*
X47085238Y-113715785D01*
X47085238Y-114211023D01*
X57092857Y-113277690D02*
X57130952Y-113391976D01*
X57169047Y-113430071D01*
X57245238Y-113468166D01*
X57359523Y-113468166D01*
X57435714Y-113430071D01*
X57473809Y-113391976D01*
X57511904Y-113315785D01*
X57511904Y-113011023D01*
X56711904Y-113011023D01*
X56711904Y-113277690D01*
X56750000Y-113353880D01*
X56788095Y-113391976D01*
X56864285Y-113430071D01*
X56940476Y-113430071D01*
X57016666Y-113391976D01*
X57054761Y-113353880D01*
X57092857Y-113277690D01*
X57092857Y-113011023D01*
X57511904Y-114230071D02*
X57511904Y-113772928D01*
X57511904Y-114001500D02*
X56711904Y-114001500D01*
X56826190Y-113925309D01*
X56902380Y-113849119D01*
X56940476Y-113772928D01*
X59632857Y-113277690D02*
X59670952Y-113391976D01*
X59709047Y-113430071D01*
X59785238Y-113468166D01*
X59899523Y-113468166D01*
X59975714Y-113430071D01*
X60013809Y-113391976D01*
X60051904Y-113315785D01*
X60051904Y-113011023D01*
X59251904Y-113011023D01*
X59251904Y-113277690D01*
X59290000Y-113353880D01*
X59328095Y-113391976D01*
X59404285Y-113430071D01*
X59480476Y-113430071D01*
X59556666Y-113391976D01*
X59594761Y-113353880D01*
X59632857Y-113277690D01*
X59632857Y-113011023D01*
X59251904Y-113734833D02*
X59251904Y-114230071D01*
X59556666Y-113963404D01*
X59556666Y-114077690D01*
X59594761Y-114153880D01*
X59632857Y-114191976D01*
X59709047Y-114230071D01*
X59899523Y-114230071D01*
X59975714Y-114191976D01*
X60013809Y-114153880D01*
X60051904Y-114077690D01*
X60051904Y-113849119D01*
X60013809Y-113772928D01*
X59975714Y-113734833D01*
X64712857Y-113277690D02*
X64750952Y-113391976D01*
X64789047Y-113430071D01*
X64865238Y-113468166D01*
X64979523Y-113468166D01*
X65055714Y-113430071D01*
X65093809Y-113391976D01*
X65131904Y-113315785D01*
X65131904Y-113011023D01*
X64331904Y-113011023D01*
X64331904Y-113277690D01*
X64370000Y-113353880D01*
X64408095Y-113391976D01*
X64484285Y-113430071D01*
X64560476Y-113430071D01*
X64636666Y-113391976D01*
X64674761Y-113353880D01*
X64712857Y-113277690D01*
X64712857Y-113011023D01*
X64331904Y-114153880D02*
X64331904Y-114001500D01*
X64370000Y-113925309D01*
X64408095Y-113887214D01*
X64522380Y-113811023D01*
X64674761Y-113772928D01*
X64979523Y-113772928D01*
X65055714Y-113811023D01*
X65093809Y-113849119D01*
X65131904Y-113925309D01*
X65131904Y-114077690D01*
X65093809Y-114153880D01*
X65055714Y-114191976D01*
X64979523Y-114230071D01*
X64789047Y-114230071D01*
X64712857Y-114191976D01*
X64674761Y-114153880D01*
X64636666Y-114077690D01*
X64636666Y-113925309D01*
X64674761Y-113849119D01*
X64712857Y-113811023D01*
X64789047Y-113772928D01*
X64712857Y-124199690D02*
X64750952Y-124313976D01*
X64789047Y-124352071D01*
X64865238Y-124390166D01*
X64979523Y-124390166D01*
X65055714Y-124352071D01*
X65093809Y-124313976D01*
X65131904Y-124237785D01*
X65131904Y-123933023D01*
X64331904Y-123933023D01*
X64331904Y-124199690D01*
X64370000Y-124275880D01*
X64408095Y-124313976D01*
X64484285Y-124352071D01*
X64560476Y-124352071D01*
X64636666Y-124313976D01*
X64674761Y-124275880D01*
X64712857Y-124199690D01*
X64712857Y-123933023D01*
X64331904Y-125113976D02*
X64331904Y-124733023D01*
X64712857Y-124694928D01*
X64674761Y-124733023D01*
X64636666Y-124809214D01*
X64636666Y-124999690D01*
X64674761Y-125075880D01*
X64712857Y-125113976D01*
X64789047Y-125152071D01*
X64979523Y-125152071D01*
X65055714Y-125113976D01*
X65093809Y-125075880D01*
X65131904Y-124999690D01*
X65131904Y-124809214D01*
X65093809Y-124733023D01*
X65055714Y-124694928D01*
X62172857Y-124199690D02*
X62210952Y-124313976D01*
X62249047Y-124352071D01*
X62325238Y-124390166D01*
X62439523Y-124390166D01*
X62515714Y-124352071D01*
X62553809Y-124313976D01*
X62591904Y-124237785D01*
X62591904Y-123933023D01*
X61791904Y-123933023D01*
X61791904Y-124199690D01*
X61830000Y-124275880D01*
X61868095Y-124313976D01*
X61944285Y-124352071D01*
X62020476Y-124352071D01*
X62096666Y-124313976D01*
X62134761Y-124275880D01*
X62172857Y-124199690D01*
X62172857Y-123933023D01*
X62058571Y-125075880D02*
X62591904Y-125075880D01*
X61753809Y-124885404D02*
X62325238Y-124694928D01*
X62325238Y-125190166D01*
X59632857Y-123971119D02*
X59632857Y-124237785D01*
X60051904Y-124352071D02*
X60051904Y-123971119D01*
X59251904Y-123971119D01*
X59251904Y-124352071D01*
X59251904Y-125037785D02*
X59251904Y-124885404D01*
X59290000Y-124809214D01*
X59328095Y-124771119D01*
X59442380Y-124694928D01*
X59594761Y-124656833D01*
X59899523Y-124656833D01*
X59975714Y-124694928D01*
X60013809Y-124733023D01*
X60051904Y-124809214D01*
X60051904Y-124961595D01*
X60013809Y-125037785D01*
X59975714Y-125075880D01*
X59899523Y-125113976D01*
X59709047Y-125113976D01*
X59632857Y-125075880D01*
X59594761Y-125037785D01*
X59556666Y-124961595D01*
X59556666Y-124809214D01*
X59594761Y-124733023D01*
X59632857Y-124694928D01*
X59709047Y-124656833D01*
X57511904Y-123933023D02*
X56711904Y-123933023D01*
X56711904Y-124123500D01*
X56750000Y-124237785D01*
X56826190Y-124313976D01*
X56902380Y-124352071D01*
X57054761Y-124390166D01*
X57169047Y-124390166D01*
X57321428Y-124352071D01*
X57397619Y-124313976D01*
X57473809Y-124237785D01*
X57511904Y-124123500D01*
X57511904Y-123933023D01*
X56711904Y-124656833D02*
X56711904Y-125190166D01*
X57511904Y-124847309D01*
X54895714Y-124390166D02*
X54933809Y-124352071D01*
X54971904Y-124237785D01*
X54971904Y-124161595D01*
X54933809Y-124047309D01*
X54857619Y-123971119D01*
X54781428Y-123933023D01*
X54629047Y-123894928D01*
X54514761Y-123894928D01*
X54362380Y-123933023D01*
X54286190Y-123971119D01*
X54210000Y-124047309D01*
X54171904Y-124161595D01*
X54171904Y-124237785D01*
X54210000Y-124352071D01*
X54248095Y-124390166D01*
X54171904Y-125075880D02*
X54171904Y-124923500D01*
X54210000Y-124847309D01*
X54248095Y-124809214D01*
X54362380Y-124733023D01*
X54514761Y-124694928D01*
X54819523Y-124694928D01*
X54895714Y-124733023D01*
X54933809Y-124771119D01*
X54971904Y-124847309D01*
X54971904Y-124999690D01*
X54933809Y-125075880D01*
X54895714Y-125113976D01*
X54819523Y-125152071D01*
X54629047Y-125152071D01*
X54552857Y-125113976D01*
X54514761Y-125075880D01*
X54476666Y-124999690D01*
X54476666Y-124847309D01*
X54514761Y-124771119D01*
X54552857Y-124733023D01*
X54629047Y-124694928D01*
X52431904Y-123933023D02*
X51631904Y-123933023D01*
X51631904Y-124123500D01*
X51670000Y-124237785D01*
X51746190Y-124313976D01*
X51822380Y-124352071D01*
X51974761Y-124390166D01*
X52089047Y-124390166D01*
X52241428Y-124352071D01*
X52317619Y-124313976D01*
X52393809Y-124237785D01*
X52431904Y-124123500D01*
X52431904Y-123933023D01*
X51898571Y-125075880D02*
X52431904Y-125075880D01*
X51593809Y-124885404D02*
X52165238Y-124694928D01*
X52165238Y-125190166D01*
X41510000Y-123913976D02*
X41471904Y-123837785D01*
X41471904Y-123723500D01*
X41510000Y-123609214D01*
X41586190Y-123533023D01*
X41662380Y-123494928D01*
X41814761Y-123456833D01*
X41929047Y-123456833D01*
X42081428Y-123494928D01*
X42157619Y-123533023D01*
X42233809Y-123609214D01*
X42271904Y-123723500D01*
X42271904Y-123799690D01*
X42233809Y-123913976D01*
X42195714Y-123952071D01*
X41929047Y-123952071D01*
X41929047Y-123799690D01*
X42271904Y-124294928D02*
X41471904Y-124294928D01*
X42271904Y-124752071D01*
X41471904Y-124752071D01*
X42271904Y-125133023D02*
X41471904Y-125133023D01*
X41471904Y-125323500D01*
X41510000Y-125437785D01*
X41586190Y-125513976D01*
X41662380Y-125552071D01*
X41814761Y-125590166D01*
X41929047Y-125590166D01*
X42081428Y-125552071D01*
X42157619Y-125513976D01*
X42233809Y-125437785D01*
X42271904Y-125323500D01*
X42271904Y-125133023D01*
X44050000Y-123913976D02*
X44011904Y-123837785D01*
X44011904Y-123723500D01*
X44050000Y-123609214D01*
X44126190Y-123533023D01*
X44202380Y-123494928D01*
X44354761Y-123456833D01*
X44469047Y-123456833D01*
X44621428Y-123494928D01*
X44697619Y-123533023D01*
X44773809Y-123609214D01*
X44811904Y-123723500D01*
X44811904Y-123799690D01*
X44773809Y-123913976D01*
X44735714Y-123952071D01*
X44469047Y-123952071D01*
X44469047Y-123799690D01*
X44811904Y-124294928D02*
X44011904Y-124294928D01*
X44811904Y-124752071D01*
X44011904Y-124752071D01*
X44811904Y-125133023D02*
X44011904Y-125133023D01*
X44011904Y-125323500D01*
X44050000Y-125437785D01*
X44126190Y-125513976D01*
X44202380Y-125552071D01*
X44354761Y-125590166D01*
X44469047Y-125590166D01*
X44621428Y-125552071D01*
X44697619Y-125513976D01*
X44773809Y-125437785D01*
X44811904Y-125323500D01*
X44811904Y-125133023D01*
X47351904Y-123933023D02*
X46551904Y-123933023D01*
X46551904Y-124123500D01*
X46590000Y-124237785D01*
X46666190Y-124313976D01*
X46742380Y-124352071D01*
X46894761Y-124390166D01*
X47009047Y-124390166D01*
X47161428Y-124352071D01*
X47237619Y-124313976D01*
X47313809Y-124237785D01*
X47351904Y-124123500D01*
X47351904Y-123933023D01*
X47351904Y-125152071D02*
X47351904Y-124694928D01*
X47351904Y-124923500D02*
X46551904Y-124923500D01*
X46666190Y-124847309D01*
X46742380Y-124771119D01*
X46780476Y-124694928D01*
X49891904Y-123933023D02*
X49091904Y-123933023D01*
X49091904Y-124123500D01*
X49130000Y-124237785D01*
X49206190Y-124313976D01*
X49282380Y-124352071D01*
X49434761Y-124390166D01*
X49549047Y-124390166D01*
X49701428Y-124352071D01*
X49777619Y-124313976D01*
X49853809Y-124237785D01*
X49891904Y-124123500D01*
X49891904Y-123933023D01*
X49091904Y-124885404D02*
X49091904Y-124961595D01*
X49130000Y-125037785D01*
X49168095Y-125075880D01*
X49244285Y-125113976D01*
X49396666Y-125152071D01*
X49587142Y-125152071D01*
X49739523Y-125113976D01*
X49815714Y-125075880D01*
X49853809Y-125037785D01*
X49891904Y-124961595D01*
X49891904Y-124885404D01*
X49853809Y-124809214D01*
X49815714Y-124771119D01*
X49739523Y-124733023D01*
X49587142Y-124694928D01*
X49396666Y-124694928D01*
X49244285Y-124733023D01*
X49168095Y-124771119D01*
X49130000Y-124809214D01*
X49091904Y-124885404D01*
X39731904Y-123933023D02*
X38931904Y-123933023D01*
X38931904Y-124123500D01*
X38970000Y-124237785D01*
X39046190Y-124313976D01*
X39122380Y-124352071D01*
X39274761Y-124390166D01*
X39389047Y-124390166D01*
X39541428Y-124352071D01*
X39617619Y-124313976D01*
X39693809Y-124237785D01*
X39731904Y-124123500D01*
X39731904Y-123933023D01*
X39008095Y-124694928D02*
X38970000Y-124733023D01*
X38931904Y-124809214D01*
X38931904Y-124999690D01*
X38970000Y-125075880D01*
X39008095Y-125113976D01*
X39084285Y-125152071D01*
X39160476Y-125152071D01*
X39274761Y-125113976D01*
X39731904Y-124656833D01*
X39731904Y-125152071D01*
G04 #@! TO.C,SW1*
X90939880Y-122372619D02*
X90463690Y-122039285D01*
X90939880Y-121801190D02*
X89939880Y-121801190D01*
X89939880Y-122182142D01*
X89987500Y-122277380D01*
X90035119Y-122325000D01*
X90130357Y-122372619D01*
X90273214Y-122372619D01*
X90368452Y-122325000D01*
X90416071Y-122277380D01*
X90463690Y-122182142D01*
X90463690Y-121801190D01*
X90416071Y-122801190D02*
X90416071Y-123134523D01*
X90939880Y-123277380D02*
X90939880Y-122801190D01*
X89939880Y-122801190D01*
X89939880Y-123277380D01*
X90892261Y-123658333D02*
X90939880Y-123801190D01*
X90939880Y-124039285D01*
X90892261Y-124134523D01*
X90844642Y-124182142D01*
X90749404Y-124229761D01*
X90654166Y-124229761D01*
X90558928Y-124182142D01*
X90511309Y-124134523D01*
X90463690Y-124039285D01*
X90416071Y-123848809D01*
X90368452Y-123753571D01*
X90320833Y-123705952D01*
X90225595Y-123658333D01*
X90130357Y-123658333D01*
X90035119Y-123705952D01*
X89987500Y-123753571D01*
X89939880Y-123848809D01*
X89939880Y-124086904D01*
X89987500Y-124229761D01*
X90416071Y-124658333D02*
X90416071Y-124991666D01*
X90939880Y-125134523D02*
X90939880Y-124658333D01*
X89939880Y-124658333D01*
X89939880Y-125134523D01*
X89939880Y-125420238D02*
X89939880Y-125991666D01*
X90939880Y-125705952D02*
X89939880Y-125705952D01*
G04 #@! TO.C,LED25*
X120457738Y-135477380D02*
X120933928Y-135477380D01*
X120933928Y-134477380D01*
X120124404Y-134953571D02*
X119791071Y-134953571D01*
X119648214Y-135477380D02*
X120124404Y-135477380D01*
X120124404Y-134477380D01*
X119648214Y-134477380D01*
X119219642Y-135477380D02*
X119219642Y-134477380D01*
X118981547Y-134477380D01*
X118838690Y-134525000D01*
X118743452Y-134620238D01*
X118695833Y-134715476D01*
X118648214Y-134905952D01*
X118648214Y-135048809D01*
X118695833Y-135239285D01*
X118743452Y-135334523D01*
X118838690Y-135429761D01*
X118981547Y-135477380D01*
X119219642Y-135477380D01*
X118267261Y-134572619D02*
X118219642Y-134525000D01*
X118124404Y-134477380D01*
X117886309Y-134477380D01*
X117791071Y-134525000D01*
X117743452Y-134572619D01*
X117695833Y-134667857D01*
X117695833Y-134763095D01*
X117743452Y-134905952D01*
X118314880Y-135477380D01*
X117695833Y-135477380D01*
X116791071Y-134477380D02*
X117267261Y-134477380D01*
X117314880Y-134953571D01*
X117267261Y-134905952D01*
X117172023Y-134858333D01*
X116933928Y-134858333D01*
X116838690Y-134905952D01*
X116791071Y-134953571D01*
X116743452Y-135048809D01*
X116743452Y-135286904D01*
X116791071Y-135382142D01*
X116838690Y-135429761D01*
X116933928Y-135477380D01*
X117172023Y-135477380D01*
X117267261Y-135429761D01*
X117314880Y-135382142D01*
G04 #@! TO.C,LED24*
X101407738Y-135277380D02*
X101883928Y-135277380D01*
X101883928Y-134277380D01*
X101074404Y-134753571D02*
X100741071Y-134753571D01*
X100598214Y-135277380D02*
X101074404Y-135277380D01*
X101074404Y-134277380D01*
X100598214Y-134277380D01*
X100169642Y-135277380D02*
X100169642Y-134277380D01*
X99931547Y-134277380D01*
X99788690Y-134325000D01*
X99693452Y-134420238D01*
X99645833Y-134515476D01*
X99598214Y-134705952D01*
X99598214Y-134848809D01*
X99645833Y-135039285D01*
X99693452Y-135134523D01*
X99788690Y-135229761D01*
X99931547Y-135277380D01*
X100169642Y-135277380D01*
X99217261Y-134372619D02*
X99169642Y-134325000D01*
X99074404Y-134277380D01*
X98836309Y-134277380D01*
X98741071Y-134325000D01*
X98693452Y-134372619D01*
X98645833Y-134467857D01*
X98645833Y-134563095D01*
X98693452Y-134705952D01*
X99264880Y-135277380D01*
X98645833Y-135277380D01*
X97788690Y-134610714D02*
X97788690Y-135277380D01*
X98026785Y-134229761D02*
X98264880Y-134944047D01*
X97645833Y-134944047D01*
G04 #@! TO.C,LED23*
X82357738Y-135277380D02*
X82833928Y-135277380D01*
X82833928Y-134277380D01*
X82024404Y-134753571D02*
X81691071Y-134753571D01*
X81548214Y-135277380D02*
X82024404Y-135277380D01*
X82024404Y-134277380D01*
X81548214Y-134277380D01*
X81119642Y-135277380D02*
X81119642Y-134277380D01*
X80881547Y-134277380D01*
X80738690Y-134325000D01*
X80643452Y-134420238D01*
X80595833Y-134515476D01*
X80548214Y-134705952D01*
X80548214Y-134848809D01*
X80595833Y-135039285D01*
X80643452Y-135134523D01*
X80738690Y-135229761D01*
X80881547Y-135277380D01*
X81119642Y-135277380D01*
X80167261Y-134372619D02*
X80119642Y-134325000D01*
X80024404Y-134277380D01*
X79786309Y-134277380D01*
X79691071Y-134325000D01*
X79643452Y-134372619D01*
X79595833Y-134467857D01*
X79595833Y-134563095D01*
X79643452Y-134705952D01*
X80214880Y-135277380D01*
X79595833Y-135277380D01*
X79262500Y-134277380D02*
X78643452Y-134277380D01*
X78976785Y-134658333D01*
X78833928Y-134658333D01*
X78738690Y-134705952D01*
X78691071Y-134753571D01*
X78643452Y-134848809D01*
X78643452Y-135086904D01*
X78691071Y-135182142D01*
X78738690Y-135229761D01*
X78833928Y-135277380D01*
X79119642Y-135277380D01*
X79214880Y-135229761D01*
X79262500Y-135182142D01*
G04 #@! TO.C,LED22*
X63307738Y-135277380D02*
X63783928Y-135277380D01*
X63783928Y-134277380D01*
X62974404Y-134753571D02*
X62641071Y-134753571D01*
X62498214Y-135277380D02*
X62974404Y-135277380D01*
X62974404Y-134277380D01*
X62498214Y-134277380D01*
X62069642Y-135277380D02*
X62069642Y-134277380D01*
X61831547Y-134277380D01*
X61688690Y-134325000D01*
X61593452Y-134420238D01*
X61545833Y-134515476D01*
X61498214Y-134705952D01*
X61498214Y-134848809D01*
X61545833Y-135039285D01*
X61593452Y-135134523D01*
X61688690Y-135229761D01*
X61831547Y-135277380D01*
X62069642Y-135277380D01*
X61117261Y-134372619D02*
X61069642Y-134325000D01*
X60974404Y-134277380D01*
X60736309Y-134277380D01*
X60641071Y-134325000D01*
X60593452Y-134372619D01*
X60545833Y-134467857D01*
X60545833Y-134563095D01*
X60593452Y-134705952D01*
X61164880Y-135277380D01*
X60545833Y-135277380D01*
X60164880Y-134372619D02*
X60117261Y-134325000D01*
X60022023Y-134277380D01*
X59783928Y-134277380D01*
X59688690Y-134325000D01*
X59641071Y-134372619D01*
X59593452Y-134467857D01*
X59593452Y-134563095D01*
X59641071Y-134705952D01*
X60212500Y-135277380D01*
X59593452Y-135277380D01*
G04 #@! TO.C,LED21*
X44257738Y-135277380D02*
X44733928Y-135277380D01*
X44733928Y-134277380D01*
X43924404Y-134753571D02*
X43591071Y-134753571D01*
X43448214Y-135277380D02*
X43924404Y-135277380D01*
X43924404Y-134277380D01*
X43448214Y-134277380D01*
X43019642Y-135277380D02*
X43019642Y-134277380D01*
X42781547Y-134277380D01*
X42638690Y-134325000D01*
X42543452Y-134420238D01*
X42495833Y-134515476D01*
X42448214Y-134705952D01*
X42448214Y-134848809D01*
X42495833Y-135039285D01*
X42543452Y-135134523D01*
X42638690Y-135229761D01*
X42781547Y-135277380D01*
X43019642Y-135277380D01*
X42067261Y-134372619D02*
X42019642Y-134325000D01*
X41924404Y-134277380D01*
X41686309Y-134277380D01*
X41591071Y-134325000D01*
X41543452Y-134372619D01*
X41495833Y-134467857D01*
X41495833Y-134563095D01*
X41543452Y-134705952D01*
X42114880Y-135277380D01*
X41495833Y-135277380D01*
X40543452Y-135277380D02*
X41114880Y-135277380D01*
X40829166Y-135277380D02*
X40829166Y-134277380D01*
X40924404Y-134420238D01*
X41019642Y-134515476D01*
X41114880Y-134563095D01*
G04 #@! TO.C,LED20*
X129127380Y-98617261D02*
X129127380Y-98141071D01*
X128127380Y-98141071D01*
X128603571Y-98950595D02*
X128603571Y-99283928D01*
X129127380Y-99426785D02*
X129127380Y-98950595D01*
X128127380Y-98950595D01*
X128127380Y-99426785D01*
X129127380Y-99855357D02*
X128127380Y-99855357D01*
X128127380Y-100093452D01*
X128175000Y-100236309D01*
X128270238Y-100331547D01*
X128365476Y-100379166D01*
X128555952Y-100426785D01*
X128698809Y-100426785D01*
X128889285Y-100379166D01*
X128984523Y-100331547D01*
X129079761Y-100236309D01*
X129127380Y-100093452D01*
X129127380Y-99855357D01*
X128222619Y-100807738D02*
X128175000Y-100855357D01*
X128127380Y-100950595D01*
X128127380Y-101188690D01*
X128175000Y-101283928D01*
X128222619Y-101331547D01*
X128317857Y-101379166D01*
X128413095Y-101379166D01*
X128555952Y-101331547D01*
X129127380Y-100760119D01*
X129127380Y-101379166D01*
X128127380Y-101998214D02*
X128127380Y-102093452D01*
X128175000Y-102188690D01*
X128222619Y-102236309D01*
X128317857Y-102283928D01*
X128508333Y-102331547D01*
X128746428Y-102331547D01*
X128936904Y-102283928D01*
X129032142Y-102236309D01*
X129079761Y-102188690D01*
X129127380Y-102093452D01*
X129127380Y-101998214D01*
X129079761Y-101902976D01*
X129032142Y-101855357D01*
X128936904Y-101807738D01*
X128746428Y-101760119D01*
X128508333Y-101760119D01*
X128317857Y-101807738D01*
X128222619Y-101855357D01*
X128175000Y-101902976D01*
X128127380Y-101998214D01*
G04 #@! TO.C,LED19*
X101407738Y-116427380D02*
X101883928Y-116427380D01*
X101883928Y-115427380D01*
X101074404Y-115903571D02*
X100741071Y-115903571D01*
X100598214Y-116427380D02*
X101074404Y-116427380D01*
X101074404Y-115427380D01*
X100598214Y-115427380D01*
X100169642Y-116427380D02*
X100169642Y-115427380D01*
X99931547Y-115427380D01*
X99788690Y-115475000D01*
X99693452Y-115570238D01*
X99645833Y-115665476D01*
X99598214Y-115855952D01*
X99598214Y-115998809D01*
X99645833Y-116189285D01*
X99693452Y-116284523D01*
X99788690Y-116379761D01*
X99931547Y-116427380D01*
X100169642Y-116427380D01*
X98645833Y-116427380D02*
X99217261Y-116427380D01*
X98931547Y-116427380D02*
X98931547Y-115427380D01*
X99026785Y-115570238D01*
X99122023Y-115665476D01*
X99217261Y-115713095D01*
X98169642Y-116427380D02*
X97979166Y-116427380D01*
X97883928Y-116379761D01*
X97836309Y-116332142D01*
X97741071Y-116189285D01*
X97693452Y-115998809D01*
X97693452Y-115617857D01*
X97741071Y-115522619D01*
X97788690Y-115475000D01*
X97883928Y-115427380D01*
X98074404Y-115427380D01*
X98169642Y-115475000D01*
X98217261Y-115522619D01*
X98264880Y-115617857D01*
X98264880Y-115855952D01*
X98217261Y-115951190D01*
X98169642Y-115998809D01*
X98074404Y-116046428D01*
X97883928Y-116046428D01*
X97788690Y-115998809D01*
X97741071Y-115951190D01*
X97693452Y-115855952D01*
G04 #@! TO.C,LED18*
X82357738Y-116427380D02*
X82833928Y-116427380D01*
X82833928Y-115427380D01*
X82024404Y-115903571D02*
X81691071Y-115903571D01*
X81548214Y-116427380D02*
X82024404Y-116427380D01*
X82024404Y-115427380D01*
X81548214Y-115427380D01*
X81119642Y-116427380D02*
X81119642Y-115427380D01*
X80881547Y-115427380D01*
X80738690Y-115475000D01*
X80643452Y-115570238D01*
X80595833Y-115665476D01*
X80548214Y-115855952D01*
X80548214Y-115998809D01*
X80595833Y-116189285D01*
X80643452Y-116284523D01*
X80738690Y-116379761D01*
X80881547Y-116427380D01*
X81119642Y-116427380D01*
X79595833Y-116427380D02*
X80167261Y-116427380D01*
X79881547Y-116427380D02*
X79881547Y-115427380D01*
X79976785Y-115570238D01*
X80072023Y-115665476D01*
X80167261Y-115713095D01*
X79024404Y-115855952D02*
X79119642Y-115808333D01*
X79167261Y-115760714D01*
X79214880Y-115665476D01*
X79214880Y-115617857D01*
X79167261Y-115522619D01*
X79119642Y-115475000D01*
X79024404Y-115427380D01*
X78833928Y-115427380D01*
X78738690Y-115475000D01*
X78691071Y-115522619D01*
X78643452Y-115617857D01*
X78643452Y-115665476D01*
X78691071Y-115760714D01*
X78738690Y-115808333D01*
X78833928Y-115855952D01*
X79024404Y-115855952D01*
X79119642Y-115903571D01*
X79167261Y-115951190D01*
X79214880Y-116046428D01*
X79214880Y-116236904D01*
X79167261Y-116332142D01*
X79119642Y-116379761D01*
X79024404Y-116427380D01*
X78833928Y-116427380D01*
X78738690Y-116379761D01*
X78691071Y-116332142D01*
X78643452Y-116236904D01*
X78643452Y-116046428D01*
X78691071Y-115951190D01*
X78738690Y-115903571D01*
X78833928Y-115855952D01*
G04 #@! TO.C,LED17*
X63307738Y-116427380D02*
X63783928Y-116427380D01*
X63783928Y-115427380D01*
X62974404Y-115903571D02*
X62641071Y-115903571D01*
X62498214Y-116427380D02*
X62974404Y-116427380D01*
X62974404Y-115427380D01*
X62498214Y-115427380D01*
X62069642Y-116427380D02*
X62069642Y-115427380D01*
X61831547Y-115427380D01*
X61688690Y-115475000D01*
X61593452Y-115570238D01*
X61545833Y-115665476D01*
X61498214Y-115855952D01*
X61498214Y-115998809D01*
X61545833Y-116189285D01*
X61593452Y-116284523D01*
X61688690Y-116379761D01*
X61831547Y-116427380D01*
X62069642Y-116427380D01*
X60545833Y-116427380D02*
X61117261Y-116427380D01*
X60831547Y-116427380D02*
X60831547Y-115427380D01*
X60926785Y-115570238D01*
X61022023Y-115665476D01*
X61117261Y-115713095D01*
X60212500Y-115427380D02*
X59545833Y-115427380D01*
X59974404Y-116427380D01*
G04 #@! TO.C,LED15*
X120457738Y-97377380D02*
X120933928Y-97377380D01*
X120933928Y-96377380D01*
X120124404Y-96853571D02*
X119791071Y-96853571D01*
X119648214Y-97377380D02*
X120124404Y-97377380D01*
X120124404Y-96377380D01*
X119648214Y-96377380D01*
X119219642Y-97377380D02*
X119219642Y-96377380D01*
X118981547Y-96377380D01*
X118838690Y-96425000D01*
X118743452Y-96520238D01*
X118695833Y-96615476D01*
X118648214Y-96805952D01*
X118648214Y-96948809D01*
X118695833Y-97139285D01*
X118743452Y-97234523D01*
X118838690Y-97329761D01*
X118981547Y-97377380D01*
X119219642Y-97377380D01*
X117695833Y-97377380D02*
X118267261Y-97377380D01*
X117981547Y-97377380D02*
X117981547Y-96377380D01*
X118076785Y-96520238D01*
X118172023Y-96615476D01*
X118267261Y-96663095D01*
X116791071Y-96377380D02*
X117267261Y-96377380D01*
X117314880Y-96853571D01*
X117267261Y-96805952D01*
X117172023Y-96758333D01*
X116933928Y-96758333D01*
X116838690Y-96805952D01*
X116791071Y-96853571D01*
X116743452Y-96948809D01*
X116743452Y-97186904D01*
X116791071Y-97282142D01*
X116838690Y-97329761D01*
X116933928Y-97377380D01*
X117172023Y-97377380D01*
X117267261Y-97329761D01*
X117314880Y-97282142D01*
G04 #@! TO.C,LED14*
X101407738Y-97377380D02*
X101883928Y-97377380D01*
X101883928Y-96377380D01*
X101074404Y-96853571D02*
X100741071Y-96853571D01*
X100598214Y-97377380D02*
X101074404Y-97377380D01*
X101074404Y-96377380D01*
X100598214Y-96377380D01*
X100169642Y-97377380D02*
X100169642Y-96377380D01*
X99931547Y-96377380D01*
X99788690Y-96425000D01*
X99693452Y-96520238D01*
X99645833Y-96615476D01*
X99598214Y-96805952D01*
X99598214Y-96948809D01*
X99645833Y-97139285D01*
X99693452Y-97234523D01*
X99788690Y-97329761D01*
X99931547Y-97377380D01*
X100169642Y-97377380D01*
X98645833Y-97377380D02*
X99217261Y-97377380D01*
X98931547Y-97377380D02*
X98931547Y-96377380D01*
X99026785Y-96520238D01*
X99122023Y-96615476D01*
X99217261Y-96663095D01*
X97788690Y-96710714D02*
X97788690Y-97377380D01*
X98026785Y-96329761D02*
X98264880Y-97044047D01*
X97645833Y-97044047D01*
G04 #@! TO.C,LED6*
X43781547Y-78327380D02*
X44257738Y-78327380D01*
X44257738Y-77327380D01*
X43448214Y-77803571D02*
X43114880Y-77803571D01*
X42972023Y-78327380D02*
X43448214Y-78327380D01*
X43448214Y-77327380D01*
X42972023Y-77327380D01*
X42543452Y-78327380D02*
X42543452Y-77327380D01*
X42305357Y-77327380D01*
X42162500Y-77375000D01*
X42067261Y-77470238D01*
X42019642Y-77565476D01*
X41972023Y-77755952D01*
X41972023Y-77898809D01*
X42019642Y-78089285D01*
X42067261Y-78184523D01*
X42162500Y-78279761D01*
X42305357Y-78327380D01*
X42543452Y-78327380D01*
X41114880Y-77327380D02*
X41305357Y-77327380D01*
X41400595Y-77375000D01*
X41448214Y-77422619D01*
X41543452Y-77565476D01*
X41591071Y-77755952D01*
X41591071Y-78136904D01*
X41543452Y-78232142D01*
X41495833Y-78279761D01*
X41400595Y-78327380D01*
X41210119Y-78327380D01*
X41114880Y-78279761D01*
X41067261Y-78232142D01*
X41019642Y-78136904D01*
X41019642Y-77898809D01*
X41067261Y-77803571D01*
X41114880Y-77755952D01*
X41210119Y-77708333D01*
X41400595Y-77708333D01*
X41495833Y-77755952D01*
X41543452Y-77803571D01*
X41591071Y-77898809D01*
G04 #@! TO.C,LED5*
X119981547Y-59277380D02*
X120457738Y-59277380D01*
X120457738Y-58277380D01*
X119648214Y-58753571D02*
X119314880Y-58753571D01*
X119172023Y-59277380D02*
X119648214Y-59277380D01*
X119648214Y-58277380D01*
X119172023Y-58277380D01*
X118743452Y-59277380D02*
X118743452Y-58277380D01*
X118505357Y-58277380D01*
X118362500Y-58325000D01*
X118267261Y-58420238D01*
X118219642Y-58515476D01*
X118172023Y-58705952D01*
X118172023Y-58848809D01*
X118219642Y-59039285D01*
X118267261Y-59134523D01*
X118362500Y-59229761D01*
X118505357Y-59277380D01*
X118743452Y-59277380D01*
X117267261Y-58277380D02*
X117743452Y-58277380D01*
X117791071Y-58753571D01*
X117743452Y-58705952D01*
X117648214Y-58658333D01*
X117410119Y-58658333D01*
X117314880Y-58705952D01*
X117267261Y-58753571D01*
X117219642Y-58848809D01*
X117219642Y-59086904D01*
X117267261Y-59182142D01*
X117314880Y-59229761D01*
X117410119Y-59277380D01*
X117648214Y-59277380D01*
X117743452Y-59229761D01*
X117791071Y-59182142D01*
G04 #@! TO.C,LED13*
X82357738Y-97377380D02*
X82833928Y-97377380D01*
X82833928Y-96377380D01*
X82024404Y-96853571D02*
X81691071Y-96853571D01*
X81548214Y-97377380D02*
X82024404Y-97377380D01*
X82024404Y-96377380D01*
X81548214Y-96377380D01*
X81119642Y-97377380D02*
X81119642Y-96377380D01*
X80881547Y-96377380D01*
X80738690Y-96425000D01*
X80643452Y-96520238D01*
X80595833Y-96615476D01*
X80548214Y-96805952D01*
X80548214Y-96948809D01*
X80595833Y-97139285D01*
X80643452Y-97234523D01*
X80738690Y-97329761D01*
X80881547Y-97377380D01*
X81119642Y-97377380D01*
X79595833Y-97377380D02*
X80167261Y-97377380D01*
X79881547Y-97377380D02*
X79881547Y-96377380D01*
X79976785Y-96520238D01*
X80072023Y-96615476D01*
X80167261Y-96663095D01*
X79262500Y-96377380D02*
X78643452Y-96377380D01*
X78976785Y-96758333D01*
X78833928Y-96758333D01*
X78738690Y-96805952D01*
X78691071Y-96853571D01*
X78643452Y-96948809D01*
X78643452Y-97186904D01*
X78691071Y-97282142D01*
X78738690Y-97329761D01*
X78833928Y-97377380D01*
X79119642Y-97377380D01*
X79214880Y-97329761D01*
X79262500Y-97282142D01*
G04 #@! TO.C,LED4*
X101300347Y-59277380D02*
X101776538Y-59277380D01*
X101776538Y-58277380D01*
X100967014Y-58753571D02*
X100633680Y-58753571D01*
X100490823Y-59277380D02*
X100967014Y-59277380D01*
X100967014Y-58277380D01*
X100490823Y-58277380D01*
X100062252Y-59277380D02*
X100062252Y-58277380D01*
X99824157Y-58277380D01*
X99681300Y-58325000D01*
X99586061Y-58420238D01*
X99538442Y-58515476D01*
X99490823Y-58705952D01*
X99490823Y-58848809D01*
X99538442Y-59039285D01*
X99586061Y-59134523D01*
X99681300Y-59229761D01*
X99824157Y-59277380D01*
X100062252Y-59277380D01*
X98633680Y-58610714D02*
X98633680Y-59277380D01*
X98871776Y-58229761D02*
X99109871Y-58944047D01*
X98490823Y-58944047D01*
G04 #@! TO.C,LED3*
X81881547Y-59277380D02*
X82357738Y-59277380D01*
X82357738Y-58277380D01*
X81548214Y-58753571D02*
X81214880Y-58753571D01*
X81072023Y-59277380D02*
X81548214Y-59277380D01*
X81548214Y-58277380D01*
X81072023Y-58277380D01*
X80643452Y-59277380D02*
X80643452Y-58277380D01*
X80405357Y-58277380D01*
X80262500Y-58325000D01*
X80167261Y-58420238D01*
X80119642Y-58515476D01*
X80072023Y-58705952D01*
X80072023Y-58848809D01*
X80119642Y-59039285D01*
X80167261Y-59134523D01*
X80262500Y-59229761D01*
X80405357Y-59277380D01*
X80643452Y-59277380D01*
X79738690Y-58277380D02*
X79119642Y-58277380D01*
X79452976Y-58658333D01*
X79310119Y-58658333D01*
X79214880Y-58705952D01*
X79167261Y-58753571D01*
X79119642Y-58848809D01*
X79119642Y-59086904D01*
X79167261Y-59182142D01*
X79214880Y-59229761D01*
X79310119Y-59277380D01*
X79595833Y-59277380D01*
X79691071Y-59229761D01*
X79738690Y-59182142D01*
G04 #@! TO.C,LED2*
X62831547Y-59277380D02*
X63307738Y-59277380D01*
X63307738Y-58277380D01*
X62498214Y-58753571D02*
X62164880Y-58753571D01*
X62022023Y-59277380D02*
X62498214Y-59277380D01*
X62498214Y-58277380D01*
X62022023Y-58277380D01*
X61593452Y-59277380D02*
X61593452Y-58277380D01*
X61355357Y-58277380D01*
X61212500Y-58325000D01*
X61117261Y-58420238D01*
X61069642Y-58515476D01*
X61022023Y-58705952D01*
X61022023Y-58848809D01*
X61069642Y-59039285D01*
X61117261Y-59134523D01*
X61212500Y-59229761D01*
X61355357Y-59277380D01*
X61593452Y-59277380D01*
X60641071Y-58372619D02*
X60593452Y-58325000D01*
X60498214Y-58277380D01*
X60260119Y-58277380D01*
X60164880Y-58325000D01*
X60117261Y-58372619D01*
X60069642Y-58467857D01*
X60069642Y-58563095D01*
X60117261Y-58705952D01*
X60688690Y-59277380D01*
X60069642Y-59277380D01*
G04 #@! TO.C,LED1*
X43781547Y-59277380D02*
X44257738Y-59277380D01*
X44257738Y-58277380D01*
X43448214Y-58753571D02*
X43114880Y-58753571D01*
X42972023Y-59277380D02*
X43448214Y-59277380D01*
X43448214Y-58277380D01*
X42972023Y-58277380D01*
X42543452Y-59277380D02*
X42543452Y-58277380D01*
X42305357Y-58277380D01*
X42162500Y-58325000D01*
X42067261Y-58420238D01*
X42019642Y-58515476D01*
X41972023Y-58705952D01*
X41972023Y-58848809D01*
X42019642Y-59039285D01*
X42067261Y-59134523D01*
X42162500Y-59229761D01*
X42305357Y-59277380D01*
X42543452Y-59277380D01*
X41019642Y-59277380D02*
X41591071Y-59277380D01*
X41305357Y-59277380D02*
X41305357Y-58277380D01*
X41400595Y-58420238D01*
X41495833Y-58515476D01*
X41591071Y-58563095D01*
G04 #@! TO.C,LED12*
X63307738Y-97377380D02*
X63783928Y-97377380D01*
X63783928Y-96377380D01*
X62974404Y-96853571D02*
X62641071Y-96853571D01*
X62498214Y-97377380D02*
X62974404Y-97377380D01*
X62974404Y-96377380D01*
X62498214Y-96377380D01*
X62069642Y-97377380D02*
X62069642Y-96377380D01*
X61831547Y-96377380D01*
X61688690Y-96425000D01*
X61593452Y-96520238D01*
X61545833Y-96615476D01*
X61498214Y-96805952D01*
X61498214Y-96948809D01*
X61545833Y-97139285D01*
X61593452Y-97234523D01*
X61688690Y-97329761D01*
X61831547Y-97377380D01*
X62069642Y-97377380D01*
X60545833Y-97377380D02*
X61117261Y-97377380D01*
X60831547Y-97377380D02*
X60831547Y-96377380D01*
X60926785Y-96520238D01*
X61022023Y-96615476D01*
X61117261Y-96663095D01*
X60164880Y-96472619D02*
X60117261Y-96425000D01*
X60022023Y-96377380D01*
X59783928Y-96377380D01*
X59688690Y-96425000D01*
X59641071Y-96472619D01*
X59593452Y-96567857D01*
X59593452Y-96663095D01*
X59641071Y-96805952D01*
X60212500Y-97377380D01*
X59593452Y-97377380D01*
G04 #@! TO.C,LED11*
X44257738Y-97377380D02*
X44733928Y-97377380D01*
X44733928Y-96377380D01*
X43924404Y-96853571D02*
X43591071Y-96853571D01*
X43448214Y-97377380D02*
X43924404Y-97377380D01*
X43924404Y-96377380D01*
X43448214Y-96377380D01*
X43019642Y-97377380D02*
X43019642Y-96377380D01*
X42781547Y-96377380D01*
X42638690Y-96425000D01*
X42543452Y-96520238D01*
X42495833Y-96615476D01*
X42448214Y-96805952D01*
X42448214Y-96948809D01*
X42495833Y-97139285D01*
X42543452Y-97234523D01*
X42638690Y-97329761D01*
X42781547Y-97377380D01*
X43019642Y-97377380D01*
X41495833Y-97377380D02*
X42067261Y-97377380D01*
X41781547Y-97377380D02*
X41781547Y-96377380D01*
X41876785Y-96520238D01*
X41972023Y-96615476D01*
X42067261Y-96663095D01*
X40543452Y-97377380D02*
X41114880Y-97377380D01*
X40829166Y-97377380D02*
X40829166Y-96377380D01*
X40924404Y-96520238D01*
X41019642Y-96615476D01*
X41114880Y-96663095D01*
G04 #@! TO.C,LED10*
X120457738Y-78327380D02*
X120933928Y-78327380D01*
X120933928Y-77327380D01*
X120124404Y-77803571D02*
X119791071Y-77803571D01*
X119648214Y-78327380D02*
X120124404Y-78327380D01*
X120124404Y-77327380D01*
X119648214Y-77327380D01*
X119219642Y-78327380D02*
X119219642Y-77327380D01*
X118981547Y-77327380D01*
X118838690Y-77375000D01*
X118743452Y-77470238D01*
X118695833Y-77565476D01*
X118648214Y-77755952D01*
X118648214Y-77898809D01*
X118695833Y-78089285D01*
X118743452Y-78184523D01*
X118838690Y-78279761D01*
X118981547Y-78327380D01*
X119219642Y-78327380D01*
X117695833Y-78327380D02*
X118267261Y-78327380D01*
X117981547Y-78327380D02*
X117981547Y-77327380D01*
X118076785Y-77470238D01*
X118172023Y-77565476D01*
X118267261Y-77613095D01*
X117076785Y-77327380D02*
X116981547Y-77327380D01*
X116886309Y-77375000D01*
X116838690Y-77422619D01*
X116791071Y-77517857D01*
X116743452Y-77708333D01*
X116743452Y-77946428D01*
X116791071Y-78136904D01*
X116838690Y-78232142D01*
X116886309Y-78279761D01*
X116981547Y-78327380D01*
X117076785Y-78327380D01*
X117172023Y-78279761D01*
X117219642Y-78232142D01*
X117267261Y-78136904D01*
X117314880Y-77946428D01*
X117314880Y-77708333D01*
X117267261Y-77517857D01*
X117219642Y-77422619D01*
X117172023Y-77375000D01*
X117076785Y-77327380D01*
G04 #@! TO.C,LED9*
X100931547Y-78327380D02*
X101407738Y-78327380D01*
X101407738Y-77327380D01*
X100598214Y-77803571D02*
X100264880Y-77803571D01*
X100122023Y-78327380D02*
X100598214Y-78327380D01*
X100598214Y-77327380D01*
X100122023Y-77327380D01*
X99693452Y-78327380D02*
X99693452Y-77327380D01*
X99455357Y-77327380D01*
X99312500Y-77375000D01*
X99217261Y-77470238D01*
X99169642Y-77565476D01*
X99122023Y-77755952D01*
X99122023Y-77898809D01*
X99169642Y-78089285D01*
X99217261Y-78184523D01*
X99312500Y-78279761D01*
X99455357Y-78327380D01*
X99693452Y-78327380D01*
X98645833Y-78327380D02*
X98455357Y-78327380D01*
X98360119Y-78279761D01*
X98312500Y-78232142D01*
X98217261Y-78089285D01*
X98169642Y-77898809D01*
X98169642Y-77517857D01*
X98217261Y-77422619D01*
X98264880Y-77375000D01*
X98360119Y-77327380D01*
X98550595Y-77327380D01*
X98645833Y-77375000D01*
X98693452Y-77422619D01*
X98741071Y-77517857D01*
X98741071Y-77755952D01*
X98693452Y-77851190D01*
X98645833Y-77898809D01*
X98550595Y-77946428D01*
X98360119Y-77946428D01*
X98264880Y-77898809D01*
X98217261Y-77851190D01*
X98169642Y-77755952D01*
G04 #@! TO.C,LED8*
X81881547Y-78327380D02*
X82357738Y-78327380D01*
X82357738Y-77327380D01*
X81548214Y-77803571D02*
X81214880Y-77803571D01*
X81072023Y-78327380D02*
X81548214Y-78327380D01*
X81548214Y-77327380D01*
X81072023Y-77327380D01*
X80643452Y-78327380D02*
X80643452Y-77327380D01*
X80405357Y-77327380D01*
X80262500Y-77375000D01*
X80167261Y-77470238D01*
X80119642Y-77565476D01*
X80072023Y-77755952D01*
X80072023Y-77898809D01*
X80119642Y-78089285D01*
X80167261Y-78184523D01*
X80262500Y-78279761D01*
X80405357Y-78327380D01*
X80643452Y-78327380D01*
X79500595Y-77755952D02*
X79595833Y-77708333D01*
X79643452Y-77660714D01*
X79691071Y-77565476D01*
X79691071Y-77517857D01*
X79643452Y-77422619D01*
X79595833Y-77375000D01*
X79500595Y-77327380D01*
X79310119Y-77327380D01*
X79214880Y-77375000D01*
X79167261Y-77422619D01*
X79119642Y-77517857D01*
X79119642Y-77565476D01*
X79167261Y-77660714D01*
X79214880Y-77708333D01*
X79310119Y-77755952D01*
X79500595Y-77755952D01*
X79595833Y-77803571D01*
X79643452Y-77851190D01*
X79691071Y-77946428D01*
X79691071Y-78136904D01*
X79643452Y-78232142D01*
X79595833Y-78279761D01*
X79500595Y-78327380D01*
X79310119Y-78327380D01*
X79214880Y-78279761D01*
X79167261Y-78232142D01*
X79119642Y-78136904D01*
X79119642Y-77946428D01*
X79167261Y-77851190D01*
X79214880Y-77803571D01*
X79310119Y-77755952D01*
G04 #@! TO.C,LED7*
X62831547Y-78327380D02*
X63307738Y-78327380D01*
X63307738Y-77327380D01*
X62498214Y-77803571D02*
X62164880Y-77803571D01*
X62022023Y-78327380D02*
X62498214Y-78327380D01*
X62498214Y-77327380D01*
X62022023Y-77327380D01*
X61593452Y-78327380D02*
X61593452Y-77327380D01*
X61355357Y-77327380D01*
X61212500Y-77375000D01*
X61117261Y-77470238D01*
X61069642Y-77565476D01*
X61022023Y-77755952D01*
X61022023Y-77898809D01*
X61069642Y-78089285D01*
X61117261Y-78184523D01*
X61212500Y-78279761D01*
X61355357Y-78327380D01*
X61593452Y-78327380D01*
X60688690Y-77327380D02*
X60022023Y-77327380D01*
X60450595Y-78327380D01*
D12*
G04 #@! TO.C,LED16*
X46300000Y-96112500D02*
X46300000Y-103912500D01*
X42600000Y-103912500D02*
X42600000Y-96112500D01*
X44700000Y-96112500D02*
X46300000Y-96112500D01*
D13*
G04 #@! TO.C,S1*
X122037500Y-103762500D02*
G75*
G03*
X122137500Y-103762500I50000J0D01*
G01*
X122137500Y-103762500D02*
G75*
G03*
X122037500Y-103762500I-50000J0D01*
G01*
X122037500Y-103762500D02*
X122137500Y-103762500D01*
X122137500Y-103762500D02*
X122137500Y-103762500D01*
X122037500Y-103762500D02*
X122037500Y-103762500D01*
X122887500Y-107187500D02*
X122887500Y-104612500D01*
X127987500Y-107187500D02*
X122887500Y-107187500D01*
X127987500Y-106412500D02*
X127987500Y-107187500D01*
X127987500Y-95812500D02*
X127987500Y-104212500D01*
X127987500Y-92837500D02*
X127987500Y-93612500D01*
X122887500Y-92837500D02*
X127987500Y-92837500D01*
X122887500Y-95412500D02*
X122887500Y-92837500D01*
G04 #@! TO.C,S2*
X39887500Y-96262500D02*
G75*
G03*
X39787500Y-96262500I-50000J0D01*
G01*
X39787500Y-96262500D02*
G75*
G03*
X39887500Y-96262500I50000J0D01*
G01*
X39887500Y-96262500D02*
X39787500Y-96262500D01*
X39787500Y-96262500D02*
X39787500Y-96262500D01*
X39887500Y-96262500D02*
X39887500Y-96262500D01*
X39037500Y-92837500D02*
X39037500Y-95412500D01*
X33937500Y-92837500D02*
X39037500Y-92837500D01*
X33937500Y-93612500D02*
X33937500Y-92837500D01*
X33937500Y-104212500D02*
X33937500Y-95812500D01*
X33937500Y-107187500D02*
X33937500Y-106412500D01*
X39037500Y-107187500D02*
X33937500Y-107187500D01*
X39037500Y-104612500D02*
X39037500Y-107187500D01*
D14*
G04 #@! TO.C,U1*
X35560000Y-125412500D02*
X35560000Y-127952500D01*
X33020000Y-110172500D02*
X33020000Y-127952500D01*
X33020000Y-127952500D02*
X66040000Y-127952500D01*
X66040000Y-127952500D02*
X66040000Y-110172500D01*
X66040000Y-110172500D02*
X33020000Y-110172500D01*
D10*
X41449030Y-113217865D02*
X41549030Y-113217865D01*
X41549030Y-113217865D02*
X41549030Y-112717865D01*
X41549030Y-112717865D02*
X41449030Y-112717865D01*
X41449030Y-112717865D02*
X41449030Y-113217865D01*
G36*
X41549030Y-113217865D02*
G01*
X41449030Y-113217865D01*
X41449030Y-112717865D01*
X41549030Y-112717865D01*
X41549030Y-113217865D01*
G37*
X41549030Y-113217865D02*
X41449030Y-113217865D01*
X41449030Y-112717865D01*
X41549030Y-112717865D01*
X41549030Y-113217865D01*
X41449030Y-113217865D02*
X41749030Y-113217865D01*
X41749030Y-113217865D02*
X41749030Y-113117865D01*
X41749030Y-113117865D02*
X41449030Y-113117865D01*
X41449030Y-113117865D02*
X41449030Y-113217865D01*
G36*
X41749030Y-113217865D02*
G01*
X41449030Y-113217865D01*
X41449030Y-113117865D01*
X41749030Y-113117865D01*
X41749030Y-113217865D01*
G37*
X41749030Y-113217865D02*
X41449030Y-113217865D01*
X41449030Y-113117865D01*
X41749030Y-113117865D01*
X41749030Y-113217865D01*
X42049030Y-113217865D02*
X42249030Y-113217865D01*
X42249030Y-113217865D02*
X42249030Y-113117865D01*
X42249030Y-113117865D02*
X42049030Y-113117865D01*
X42049030Y-113117865D02*
X42049030Y-113217865D01*
G36*
X42249030Y-113217865D02*
G01*
X42049030Y-113217865D01*
X42049030Y-113117865D01*
X42249030Y-113117865D01*
X42249030Y-113217865D01*
G37*
X42249030Y-113217865D02*
X42049030Y-113217865D01*
X42049030Y-113117865D01*
X42249030Y-113117865D01*
X42249030Y-113217865D01*
X41449030Y-112817865D02*
X42249030Y-112817865D01*
X42249030Y-112817865D02*
X42249030Y-112717865D01*
X42249030Y-112717865D02*
X41449030Y-112717865D01*
X41449030Y-112717865D02*
X41449030Y-112817865D01*
G36*
X42249030Y-112817865D02*
G01*
X41449030Y-112817865D01*
X41449030Y-112717865D01*
X42249030Y-112717865D01*
X42249030Y-112817865D01*
G37*
X42249030Y-112817865D02*
X41449030Y-112817865D01*
X41449030Y-112717865D01*
X42249030Y-112717865D01*
X42249030Y-112817865D01*
X41849030Y-113017865D02*
X41949030Y-113017865D01*
X41949030Y-113017865D02*
X41949030Y-112917865D01*
X41949030Y-112917865D02*
X41849030Y-112917865D01*
X41849030Y-112917865D02*
X41849030Y-113017865D01*
G36*
X41949030Y-113017865D02*
G01*
X41849030Y-113017865D01*
X41849030Y-112917865D01*
X41949030Y-112917865D01*
X41949030Y-113017865D01*
G37*
X41949030Y-113017865D02*
X41849030Y-113017865D01*
X41849030Y-112917865D01*
X41949030Y-112917865D01*
X41949030Y-113017865D01*
D14*
X35560000Y-125412500D02*
X38100000Y-125412500D01*
X38100000Y-125412500D02*
X38100000Y-127952500D01*
D15*
G04 #@! TO.C,SW28*
X123312500Y-112662500D02*
X122062500Y-112662500D01*
D16*
X113612500Y-117762500D02*
X116062500Y-117762500D01*
D17*
X118262500Y-115662500D02*
G75*
G03*
X116046182Y-117541029I-65000J-2170000D01*
G01*
D10*
X115262499Y-112462500D02*
G75*
G03*
X113162500Y-114362501I-99999J-2000000D01*
G01*
X118662500Y-116062500D02*
G75*
G03*
X116446182Y-117941029I-65000J-2170000D01*
G01*
X123462500Y-112462500D02*
X115262499Y-112462500D01*
X118662500Y-116062500D02*
X123462500Y-116062500D01*
X113412500Y-117962500D02*
X116442500Y-117962500D01*
X113162500Y-114362500D02*
X113162500Y-115112500D01*
X113412500Y-113512500D02*
X113412500Y-117962500D01*
X113162500Y-115112500D02*
X113362500Y-115112500D01*
X123442500Y-115062500D02*
X123442500Y-112812500D01*
X123462500Y-116062500D02*
X123462500Y-112462500D01*
D18*
X121662500Y-114262500D02*
X114962500Y-114262500D01*
D17*
X122962500Y-113062500D02*
X122962500Y-115562500D01*
D16*
X123262500Y-115812500D02*
X121962500Y-115762500D01*
D19*
X114892500Y-113962500D02*
X114892500Y-116202500D01*
D20*
X113762500Y-117462500D02*
X113762500Y-115662501D01*
D21*
X113262500Y-115012500D02*
X113262500Y-114362500D01*
D15*
G04 #@! TO.C,SW27*
X104262500Y-112662500D02*
X103012500Y-112662500D01*
D16*
X94562500Y-117762500D02*
X97012500Y-117762500D01*
D17*
X99212500Y-115662500D02*
G75*
G03*
X96996182Y-117541029I-65000J-2170000D01*
G01*
D10*
X96212499Y-112462500D02*
G75*
G03*
X94112500Y-114362501I-99999J-2000000D01*
G01*
X99612500Y-116062500D02*
G75*
G03*
X97396182Y-117941029I-65000J-2170000D01*
G01*
X104412500Y-112462500D02*
X96212499Y-112462500D01*
X99612500Y-116062500D02*
X104412500Y-116062500D01*
X94362500Y-117962500D02*
X97392500Y-117962500D01*
X94112500Y-114362500D02*
X94112500Y-115112500D01*
X94362500Y-113512500D02*
X94362500Y-117962500D01*
X94112500Y-115112500D02*
X94312500Y-115112500D01*
X104392500Y-115062500D02*
X104392500Y-112812500D01*
X104412500Y-116062500D02*
X104412500Y-112462500D01*
D18*
X102612500Y-114262500D02*
X95912500Y-114262500D01*
D17*
X103912500Y-113062500D02*
X103912500Y-115562500D01*
D16*
X104212500Y-115812500D02*
X102912500Y-115762500D01*
D19*
X95842500Y-113962500D02*
X95842500Y-116202500D01*
D20*
X94712500Y-117462500D02*
X94712500Y-115662501D01*
D21*
X94212500Y-115012500D02*
X94212500Y-114362500D01*
G04 #@! TO.C,SW26*
X75162500Y-115012500D02*
X75162500Y-114362500D01*
D20*
X75662500Y-117462500D02*
X75662500Y-115662501D01*
D19*
X76792500Y-113962500D02*
X76792500Y-116202500D01*
D16*
X85162500Y-115812500D02*
X83862500Y-115762500D01*
D17*
X84862500Y-113062500D02*
X84862500Y-115562500D01*
D18*
X83562500Y-114262500D02*
X76862500Y-114262500D01*
D10*
X85362500Y-116062500D02*
X85362500Y-112462500D01*
X85342500Y-115062500D02*
X85342500Y-112812500D01*
X75062500Y-115112500D02*
X75262500Y-115112500D01*
X75312500Y-113512500D02*
X75312500Y-117962500D01*
X75062500Y-114362500D02*
X75062500Y-115112500D01*
X75312500Y-117962500D02*
X78342500Y-117962500D01*
X80562500Y-116062500D02*
X85362500Y-116062500D01*
X85362500Y-112462500D02*
X77162499Y-112462500D01*
X80562500Y-116062500D02*
G75*
G03*
X78346182Y-117941029I-65000J-2170000D01*
G01*
X77162499Y-112462500D02*
G75*
G03*
X75062500Y-114362501I-99999J-2000000D01*
G01*
D17*
X80162500Y-115662500D02*
G75*
G03*
X77946182Y-117541029I-65000J-2170000D01*
G01*
D16*
X75512500Y-117762500D02*
X77962500Y-117762500D01*
D15*
X85212500Y-112662500D02*
X83962500Y-112662500D01*
D21*
G04 #@! TO.C,SW22*
X94212500Y-95962500D02*
X94212500Y-95312500D01*
D20*
X94712500Y-98412500D02*
X94712500Y-96612501D01*
D19*
X95842500Y-94912500D02*
X95842500Y-97152500D01*
D16*
X104212500Y-96762500D02*
X102912500Y-96712500D01*
D17*
X103912500Y-94012500D02*
X103912500Y-96512500D01*
D18*
X102612500Y-95212500D02*
X95912500Y-95212500D01*
D10*
X104412500Y-97012500D02*
X104412500Y-93412500D01*
X104392500Y-96012500D02*
X104392500Y-93762500D01*
X94112500Y-96062500D02*
X94312500Y-96062500D01*
X94362500Y-94462500D02*
X94362500Y-98912500D01*
X94112500Y-95312500D02*
X94112500Y-96062500D01*
X94362500Y-98912500D02*
X97392500Y-98912500D01*
X99612500Y-97012500D02*
X104412500Y-97012500D01*
X104412500Y-93412500D02*
X96212499Y-93412500D01*
X99612500Y-97012500D02*
G75*
G03*
X97396182Y-98891029I-65000J-2170000D01*
G01*
X96212499Y-93412500D02*
G75*
G03*
X94112500Y-95312501I-99999J-2000000D01*
G01*
D17*
X99212500Y-96612500D02*
G75*
G03*
X96996182Y-98491029I-65000J-2170000D01*
G01*
D16*
X94562500Y-98712500D02*
X97012500Y-98712500D01*
D15*
X104262500Y-93612500D02*
X103012500Y-93612500D01*
D21*
G04 #@! TO.C,SW21*
X75162500Y-95962500D02*
X75162500Y-95312500D01*
D20*
X75662500Y-98412500D02*
X75662500Y-96612501D01*
D19*
X76792500Y-94912500D02*
X76792500Y-97152500D01*
D16*
X85162500Y-96762500D02*
X83862500Y-96712500D01*
D17*
X84862500Y-94012500D02*
X84862500Y-96512500D01*
D18*
X83562500Y-95212500D02*
X76862500Y-95212500D01*
D10*
X85362500Y-97012500D02*
X85362500Y-93412500D01*
X85342500Y-96012500D02*
X85342500Y-93762500D01*
X75062500Y-96062500D02*
X75262500Y-96062500D01*
X75312500Y-94462500D02*
X75312500Y-98912500D01*
X75062500Y-95312500D02*
X75062500Y-96062500D01*
X75312500Y-98912500D02*
X78342500Y-98912500D01*
X80562500Y-97012500D02*
X85362500Y-97012500D01*
X85362500Y-93412500D02*
X77162499Y-93412500D01*
X80562500Y-97012500D02*
G75*
G03*
X78346182Y-98891029I-65000J-2170000D01*
G01*
X77162499Y-93412500D02*
G75*
G03*
X75062500Y-95312501I-99999J-2000000D01*
G01*
D17*
X80162500Y-96612500D02*
G75*
G03*
X77946182Y-98491029I-65000J-2170000D01*
G01*
D16*
X75512500Y-98712500D02*
X77962500Y-98712500D01*
D15*
X85212500Y-93612500D02*
X83962500Y-93612500D01*
D21*
G04 #@! TO.C,SW20*
X56080000Y-95962500D02*
X56080000Y-95312500D01*
D20*
X56580000Y-98412500D02*
X56580000Y-96612501D01*
D19*
X57710000Y-94912500D02*
X57710000Y-97152500D01*
D16*
X66080000Y-96762500D02*
X64780000Y-96712500D01*
D17*
X65780000Y-94012500D02*
X65780000Y-96512500D01*
D18*
X64480000Y-95212500D02*
X57780000Y-95212500D01*
D10*
X66280000Y-97012500D02*
X66280000Y-93412500D01*
X66260000Y-96012500D02*
X66260000Y-93762500D01*
X55980000Y-96062500D02*
X56180000Y-96062500D01*
X56230000Y-94462500D02*
X56230000Y-98912500D01*
X55980000Y-95312500D02*
X55980000Y-96062500D01*
X56230000Y-98912500D02*
X59260000Y-98912500D01*
X61480000Y-97012500D02*
X66280000Y-97012500D01*
X66280000Y-93412500D02*
X58079999Y-93412500D01*
X61480000Y-97012500D02*
G75*
G03*
X59263682Y-98891029I-65000J-2170000D01*
G01*
X58079999Y-93412500D02*
G75*
G03*
X55980000Y-95312501I-99999J-2000000D01*
G01*
D17*
X61080000Y-96612500D02*
G75*
G03*
X58863682Y-98491029I-65000J-2170000D01*
G01*
D16*
X56430000Y-98712500D02*
X58880000Y-98712500D01*
D15*
X66130000Y-93612500D02*
X64880000Y-93612500D01*
D21*
G04 #@! TO.C,SW18*
X113262500Y-76912500D02*
X113262500Y-76262500D01*
D20*
X113762500Y-79362500D02*
X113762500Y-77562501D01*
D19*
X114892500Y-75862500D02*
X114892500Y-78102500D01*
D16*
X123262500Y-77712500D02*
X121962500Y-77662500D01*
D17*
X122962500Y-74962500D02*
X122962500Y-77462500D01*
D18*
X121662500Y-76162500D02*
X114962500Y-76162500D01*
D10*
X123462500Y-77962500D02*
X123462500Y-74362500D01*
X123442500Y-76962500D02*
X123442500Y-74712500D01*
X113162500Y-77012500D02*
X113362500Y-77012500D01*
X113412500Y-75412500D02*
X113412500Y-79862500D01*
X113162500Y-76262500D02*
X113162500Y-77012500D01*
X113412500Y-79862500D02*
X116442500Y-79862500D01*
X118662500Y-77962500D02*
X123462500Y-77962500D01*
X123462500Y-74362500D02*
X115262499Y-74362500D01*
X118662500Y-77962500D02*
G75*
G03*
X116446182Y-79841029I-65000J-2170000D01*
G01*
X115262499Y-74362500D02*
G75*
G03*
X113162500Y-76262501I-99999J-2000000D01*
G01*
D17*
X118262500Y-77562500D02*
G75*
G03*
X116046182Y-79441029I-65000J-2170000D01*
G01*
D16*
X113612500Y-79662500D02*
X116062500Y-79662500D01*
D15*
X123312500Y-74562500D02*
X122062500Y-74562500D01*
D21*
G04 #@! TO.C,SW17*
X94212500Y-76912500D02*
X94212500Y-76262500D01*
D20*
X94712500Y-79362500D02*
X94712500Y-77562501D01*
D19*
X95842500Y-75862500D02*
X95842500Y-78102500D01*
D16*
X104212500Y-77712500D02*
X102912500Y-77662500D01*
D17*
X103912500Y-74962500D02*
X103912500Y-77462500D01*
D18*
X102612500Y-76162500D02*
X95912500Y-76162500D01*
D10*
X104412500Y-77962500D02*
X104412500Y-74362500D01*
X104392500Y-76962500D02*
X104392500Y-74712500D01*
X94112500Y-77012500D02*
X94312500Y-77012500D01*
X94362500Y-75412500D02*
X94362500Y-79862500D01*
X94112500Y-76262500D02*
X94112500Y-77012500D01*
X94362500Y-79862500D02*
X97392500Y-79862500D01*
X99612500Y-77962500D02*
X104412500Y-77962500D01*
X104412500Y-74362500D02*
X96212499Y-74362500D01*
X99612500Y-77962500D02*
G75*
G03*
X97396182Y-79841029I-65000J-2170000D01*
G01*
X96212499Y-74362500D02*
G75*
G03*
X94112500Y-76262501I-99999J-2000000D01*
G01*
D17*
X99212500Y-77562500D02*
G75*
G03*
X96996182Y-79441029I-65000J-2170000D01*
G01*
D16*
X94562500Y-79662500D02*
X97012500Y-79662500D01*
D15*
X104262500Y-74562500D02*
X103012500Y-74562500D01*
D21*
G04 #@! TO.C,SW16*
X75162500Y-76912500D02*
X75162500Y-76262500D01*
D20*
X75662500Y-79362500D02*
X75662500Y-77562501D01*
D19*
X76792500Y-75862500D02*
X76792500Y-78102500D01*
D16*
X85162500Y-77712500D02*
X83862500Y-77662500D01*
D17*
X84862500Y-74962500D02*
X84862500Y-77462500D01*
D18*
X83562500Y-76162500D02*
X76862500Y-76162500D01*
D10*
X85362500Y-77962500D02*
X85362500Y-74362500D01*
X85342500Y-76962500D02*
X85342500Y-74712500D01*
X75062500Y-77012500D02*
X75262500Y-77012500D01*
X75312500Y-75412500D02*
X75312500Y-79862500D01*
X75062500Y-76262500D02*
X75062500Y-77012500D01*
X75312500Y-79862500D02*
X78342500Y-79862500D01*
X80562500Y-77962500D02*
X85362500Y-77962500D01*
X85362500Y-74362500D02*
X77162499Y-74362500D01*
X80562500Y-77962500D02*
G75*
G03*
X78346182Y-79841029I-65000J-2170000D01*
G01*
X77162499Y-74362500D02*
G75*
G03*
X75062500Y-76262501I-99999J-2000000D01*
G01*
D17*
X80162500Y-77562500D02*
G75*
G03*
X77946182Y-79441029I-65000J-2170000D01*
G01*
D16*
X75512500Y-79662500D02*
X77962500Y-79662500D01*
D15*
X85212500Y-74562500D02*
X83962500Y-74562500D01*
D21*
G04 #@! TO.C,SW15*
X56112500Y-76912500D02*
X56112500Y-76262500D01*
D20*
X56612500Y-79362500D02*
X56612500Y-77562501D01*
D19*
X57742500Y-75862500D02*
X57742500Y-78102500D01*
D16*
X66112500Y-77712500D02*
X64812500Y-77662500D01*
D17*
X65812500Y-74962500D02*
X65812500Y-77462500D01*
D18*
X64512500Y-76162500D02*
X57812500Y-76162500D01*
D10*
X66312500Y-77962500D02*
X66312500Y-74362500D01*
X66292500Y-76962500D02*
X66292500Y-74712500D01*
X56012500Y-77012500D02*
X56212500Y-77012500D01*
X56262500Y-75412500D02*
X56262500Y-79862500D01*
X56012500Y-76262500D02*
X56012500Y-77012500D01*
X56262500Y-79862500D02*
X59292500Y-79862500D01*
X61512500Y-77962500D02*
X66312500Y-77962500D01*
X66312500Y-74362500D02*
X58112499Y-74362500D01*
X61512500Y-77962500D02*
G75*
G03*
X59296182Y-79841029I-65000J-2170000D01*
G01*
X58112499Y-74362500D02*
G75*
G03*
X56012500Y-76262501I-99999J-2000000D01*
G01*
D17*
X61112500Y-77562500D02*
G75*
G03*
X58896182Y-79441029I-65000J-2170000D01*
G01*
D16*
X56462500Y-79662500D02*
X58912500Y-79662500D01*
D15*
X66162500Y-74562500D02*
X64912500Y-74562500D01*
D21*
G04 #@! TO.C,SW14*
X37062500Y-76912500D02*
X37062500Y-76262500D01*
D20*
X37562500Y-79362500D02*
X37562500Y-77562501D01*
D19*
X38692500Y-75862500D02*
X38692500Y-78102500D01*
D16*
X47062500Y-77712500D02*
X45762500Y-77662500D01*
D17*
X46762500Y-74962500D02*
X46762500Y-77462500D01*
D18*
X45462500Y-76162500D02*
X38762500Y-76162500D01*
D10*
X47262500Y-77962500D02*
X47262500Y-74362500D01*
X47242500Y-76962500D02*
X47242500Y-74712500D01*
X36962500Y-77012500D02*
X37162500Y-77012500D01*
X37212500Y-75412500D02*
X37212500Y-79862500D01*
X36962500Y-76262500D02*
X36962500Y-77012500D01*
X37212500Y-79862500D02*
X40242500Y-79862500D01*
X42462500Y-77962500D02*
X47262500Y-77962500D01*
X47262500Y-74362500D02*
X39062499Y-74362500D01*
X42462500Y-77962500D02*
G75*
G03*
X40246182Y-79841029I-65000J-2170000D01*
G01*
X39062499Y-74362500D02*
G75*
G03*
X36962500Y-76262501I-99999J-2000000D01*
G01*
D17*
X42062500Y-77562500D02*
G75*
G03*
X39846182Y-79441029I-65000J-2170000D01*
G01*
D16*
X37412500Y-79662500D02*
X39862500Y-79662500D01*
D15*
X47112500Y-74562500D02*
X45862500Y-74562500D01*
D21*
G04 #@! TO.C,SW13*
X113262500Y-57862500D02*
X113262500Y-57212500D01*
D20*
X113762500Y-60312500D02*
X113762500Y-58512501D01*
D19*
X114892500Y-56812500D02*
X114892500Y-59052500D01*
D16*
X123262500Y-58662500D02*
X121962500Y-58612500D01*
D17*
X122962500Y-55912500D02*
X122962500Y-58412500D01*
D18*
X121662500Y-57112500D02*
X114962500Y-57112500D01*
D10*
X123462500Y-58912500D02*
X123462500Y-55312500D01*
X123442500Y-57912500D02*
X123442500Y-55662500D01*
X113162500Y-57962500D02*
X113362500Y-57962500D01*
X113412500Y-56362500D02*
X113412500Y-60812500D01*
X113162500Y-57212500D02*
X113162500Y-57962500D01*
X113412500Y-60812500D02*
X116442500Y-60812500D01*
X118662500Y-58912500D02*
X123462500Y-58912500D01*
X123462500Y-55312500D02*
X115262499Y-55312500D01*
X118662500Y-58912500D02*
G75*
G03*
X116446182Y-60791029I-65000J-2170000D01*
G01*
X115262499Y-55312500D02*
G75*
G03*
X113162500Y-57212501I-99999J-2000000D01*
G01*
D17*
X118262500Y-58512500D02*
G75*
G03*
X116046182Y-60391029I-65000J-2170000D01*
G01*
D16*
X113612500Y-60612500D02*
X116062500Y-60612500D01*
D15*
X123312500Y-55512500D02*
X122062500Y-55512500D01*
G04 #@! TO.C,SW12*
X104262500Y-55512500D02*
X103012500Y-55512500D01*
D16*
X94562500Y-60612500D02*
X97012500Y-60612500D01*
D17*
X99212500Y-58512500D02*
G75*
G03*
X96996182Y-60391029I-65000J-2170000D01*
G01*
D10*
X96212499Y-55312500D02*
G75*
G03*
X94112500Y-57212501I-99999J-2000000D01*
G01*
X99612500Y-58912500D02*
G75*
G03*
X97396182Y-60791029I-65000J-2170000D01*
G01*
X104412500Y-55312500D02*
X96212499Y-55312500D01*
X99612500Y-58912500D02*
X104412500Y-58912500D01*
X94362500Y-60812500D02*
X97392500Y-60812500D01*
X94112500Y-57212500D02*
X94112500Y-57962500D01*
X94362500Y-56362500D02*
X94362500Y-60812500D01*
X94112500Y-57962500D02*
X94312500Y-57962500D01*
X104392500Y-57912500D02*
X104392500Y-55662500D01*
X104412500Y-58912500D02*
X104412500Y-55312500D01*
D18*
X102612500Y-57112500D02*
X95912500Y-57112500D01*
D17*
X103912500Y-55912500D02*
X103912500Y-58412500D01*
D16*
X104212500Y-58662500D02*
X102912500Y-58612500D01*
D19*
X95842500Y-56812500D02*
X95842500Y-59052500D01*
D20*
X94712500Y-60312500D02*
X94712500Y-58512501D01*
D21*
X94212500Y-57862500D02*
X94212500Y-57212500D01*
D15*
G04 #@! TO.C,SW11*
X85212500Y-55512500D02*
X83962500Y-55512500D01*
D16*
X75512500Y-60612500D02*
X77962500Y-60612500D01*
D17*
X80162500Y-58512500D02*
G75*
G03*
X77946182Y-60391029I-65000J-2170000D01*
G01*
D10*
X77162499Y-55312500D02*
G75*
G03*
X75062500Y-57212501I-99999J-2000000D01*
G01*
X80562500Y-58912500D02*
G75*
G03*
X78346182Y-60791029I-65000J-2170000D01*
G01*
X85362500Y-55312500D02*
X77162499Y-55312500D01*
X80562500Y-58912500D02*
X85362500Y-58912500D01*
X75312500Y-60812500D02*
X78342500Y-60812500D01*
X75062500Y-57212500D02*
X75062500Y-57962500D01*
X75312500Y-56362500D02*
X75312500Y-60812500D01*
X75062500Y-57962500D02*
X75262500Y-57962500D01*
X85342500Y-57912500D02*
X85342500Y-55662500D01*
X85362500Y-58912500D02*
X85362500Y-55312500D01*
D18*
X83562500Y-57112500D02*
X76862500Y-57112500D01*
D17*
X84862500Y-55912500D02*
X84862500Y-58412500D01*
D16*
X85162500Y-58662500D02*
X83862500Y-58612500D01*
D19*
X76792500Y-56812500D02*
X76792500Y-59052500D01*
D20*
X75662500Y-60312500D02*
X75662500Y-58512501D01*
D21*
X75162500Y-57862500D02*
X75162500Y-57212500D01*
D15*
G04 #@! TO.C,SW10*
X66162500Y-55512500D02*
X64912500Y-55512500D01*
D16*
X56462500Y-60612500D02*
X58912500Y-60612500D01*
D17*
X61112500Y-58512500D02*
G75*
G03*
X58896182Y-60391029I-65000J-2170000D01*
G01*
D10*
X58112499Y-55312500D02*
G75*
G03*
X56012500Y-57212501I-99999J-2000000D01*
G01*
X61512500Y-58912500D02*
G75*
G03*
X59296182Y-60791029I-65000J-2170000D01*
G01*
X66312500Y-55312500D02*
X58112499Y-55312500D01*
X61512500Y-58912500D02*
X66312500Y-58912500D01*
X56262500Y-60812500D02*
X59292500Y-60812500D01*
X56012500Y-57212500D02*
X56012500Y-57962500D01*
X56262500Y-56362500D02*
X56262500Y-60812500D01*
X56012500Y-57962500D02*
X56212500Y-57962500D01*
X66292500Y-57912500D02*
X66292500Y-55662500D01*
X66312500Y-58912500D02*
X66312500Y-55312500D01*
D18*
X64512500Y-57112500D02*
X57812500Y-57112500D01*
D17*
X65812500Y-55912500D02*
X65812500Y-58412500D01*
D16*
X66112500Y-58662500D02*
X64812500Y-58612500D01*
D19*
X57742500Y-56812500D02*
X57742500Y-59052500D01*
D20*
X56612500Y-60312500D02*
X56612500Y-58512501D01*
D21*
X56112500Y-57862500D02*
X56112500Y-57212500D01*
D15*
G04 #@! TO.C,SW9*
X47112500Y-55512500D02*
X45862500Y-55512500D01*
D16*
X37412500Y-60612500D02*
X39862500Y-60612500D01*
D17*
X42062500Y-58512500D02*
G75*
G03*
X39846182Y-60391029I-65000J-2170000D01*
G01*
D10*
X39062499Y-55312500D02*
G75*
G03*
X36962500Y-57212501I-99999J-2000000D01*
G01*
X42462500Y-58912500D02*
G75*
G03*
X40246182Y-60791029I-65000J-2170000D01*
G01*
X47262500Y-55312500D02*
X39062499Y-55312500D01*
X42462500Y-58912500D02*
X47262500Y-58912500D01*
X37212500Y-60812500D02*
X40242500Y-60812500D01*
X36962500Y-57212500D02*
X36962500Y-57962500D01*
X37212500Y-56362500D02*
X37212500Y-60812500D01*
X36962500Y-57962500D02*
X37162500Y-57962500D01*
X47242500Y-57912500D02*
X47242500Y-55662500D01*
X47262500Y-58912500D02*
X47262500Y-55312500D01*
D18*
X45462500Y-57112500D02*
X38762500Y-57112500D01*
D17*
X46762500Y-55912500D02*
X46762500Y-58412500D01*
D16*
X47062500Y-58662500D02*
X45762500Y-58612500D01*
D19*
X38692500Y-56812500D02*
X38692500Y-59052500D01*
D20*
X37562500Y-60312500D02*
X37562500Y-58512501D01*
D21*
X37062500Y-57862500D02*
X37062500Y-57212500D01*
G04 #@! TO.C,SW8*
X113262500Y-38812500D02*
X113262500Y-38162500D01*
D20*
X113762500Y-41262500D02*
X113762500Y-39462501D01*
D19*
X114892500Y-37762500D02*
X114892500Y-40002500D01*
D16*
X123262500Y-39612500D02*
X121962500Y-39562500D01*
D17*
X122962500Y-36862500D02*
X122962500Y-39362500D01*
D18*
X121662500Y-38062500D02*
X114962500Y-38062500D01*
D10*
X123462500Y-39862500D02*
X123462500Y-36262500D01*
X123442500Y-38862500D02*
X123442500Y-36612500D01*
X113162500Y-38912500D02*
X113362500Y-38912500D01*
X113412500Y-37312500D02*
X113412500Y-41762500D01*
X113162500Y-38162500D02*
X113162500Y-38912500D01*
X113412500Y-41762500D02*
X116442500Y-41762500D01*
X118662500Y-39862500D02*
X123462500Y-39862500D01*
X123462500Y-36262500D02*
X115262499Y-36262500D01*
X118662500Y-39862500D02*
G75*
G03*
X116446182Y-41741029I-65000J-2170000D01*
G01*
X115262499Y-36262500D02*
G75*
G03*
X113162500Y-38162501I-99999J-2000000D01*
G01*
D17*
X118262500Y-39462500D02*
G75*
G03*
X116046182Y-41341029I-65000J-2170000D01*
G01*
D16*
X113612500Y-41562500D02*
X116062500Y-41562500D01*
D15*
X123312500Y-36462500D02*
X122062500Y-36462500D01*
D21*
G04 #@! TO.C,SW7*
X94212500Y-38812500D02*
X94212500Y-38162500D01*
D20*
X94712500Y-41262500D02*
X94712500Y-39462501D01*
D19*
X95842500Y-37762500D02*
X95842500Y-40002500D01*
D16*
X104212500Y-39612500D02*
X102912500Y-39562500D01*
D17*
X103912500Y-36862500D02*
X103912500Y-39362500D01*
D18*
X102612500Y-38062500D02*
X95912500Y-38062500D01*
D10*
X104412500Y-39862500D02*
X104412500Y-36262500D01*
X104392500Y-38862500D02*
X104392500Y-36612500D01*
X94112500Y-38912500D02*
X94312500Y-38912500D01*
X94362500Y-37312500D02*
X94362500Y-41762500D01*
X94112500Y-38162500D02*
X94112500Y-38912500D01*
X94362500Y-41762500D02*
X97392500Y-41762500D01*
X99612500Y-39862500D02*
X104412500Y-39862500D01*
X104412500Y-36262500D02*
X96212499Y-36262500D01*
X99612500Y-39862500D02*
G75*
G03*
X97396182Y-41741029I-65000J-2170000D01*
G01*
X96212499Y-36262500D02*
G75*
G03*
X94112500Y-38162501I-99999J-2000000D01*
G01*
D17*
X99212500Y-39462500D02*
G75*
G03*
X96996182Y-41341029I-65000J-2170000D01*
G01*
D16*
X94562500Y-41562500D02*
X97012500Y-41562500D01*
D15*
X104262500Y-36462500D02*
X103012500Y-36462500D01*
D21*
G04 #@! TO.C,SW6*
X75162500Y-38812500D02*
X75162500Y-38162500D01*
D20*
X75662500Y-41262500D02*
X75662500Y-39462501D01*
D19*
X76792500Y-37762500D02*
X76792500Y-40002500D01*
D16*
X85162500Y-39612500D02*
X83862500Y-39562500D01*
D17*
X84862500Y-36862500D02*
X84862500Y-39362500D01*
D18*
X83562500Y-38062500D02*
X76862500Y-38062500D01*
D10*
X85362500Y-39862500D02*
X85362500Y-36262500D01*
X85342500Y-38862500D02*
X85342500Y-36612500D01*
X75062500Y-38912500D02*
X75262500Y-38912500D01*
X75312500Y-37312500D02*
X75312500Y-41762500D01*
X75062500Y-38162500D02*
X75062500Y-38912500D01*
X75312500Y-41762500D02*
X78342500Y-41762500D01*
X80562500Y-39862500D02*
X85362500Y-39862500D01*
X85362500Y-36262500D02*
X77162499Y-36262500D01*
X80562500Y-39862500D02*
G75*
G03*
X78346182Y-41741029I-65000J-2170000D01*
G01*
X77162499Y-36262500D02*
G75*
G03*
X75062500Y-38162501I-99999J-2000000D01*
G01*
D17*
X80162500Y-39462500D02*
G75*
G03*
X77946182Y-41341029I-65000J-2170000D01*
G01*
D16*
X75512500Y-41562500D02*
X77962500Y-41562500D01*
D15*
X85212500Y-36462500D02*
X83962500Y-36462500D01*
D21*
G04 #@! TO.C,SW5*
X56112500Y-38812500D02*
X56112500Y-38162500D01*
D20*
X56612500Y-41262500D02*
X56612500Y-39462501D01*
D19*
X57742500Y-37762500D02*
X57742500Y-40002500D01*
D16*
X66112500Y-39612500D02*
X64812500Y-39562500D01*
D17*
X65812500Y-36862500D02*
X65812500Y-39362500D01*
D18*
X64512500Y-38062500D02*
X57812500Y-38062500D01*
D10*
X66312500Y-39862500D02*
X66312500Y-36262500D01*
X66292500Y-38862500D02*
X66292500Y-36612500D01*
X56012500Y-38912500D02*
X56212500Y-38912500D01*
X56262500Y-37312500D02*
X56262500Y-41762500D01*
X56012500Y-38162500D02*
X56012500Y-38912500D01*
X56262500Y-41762500D02*
X59292500Y-41762500D01*
X61512500Y-39862500D02*
X66312500Y-39862500D01*
X66312500Y-36262500D02*
X58112499Y-36262500D01*
X61512500Y-39862500D02*
G75*
G03*
X59296182Y-41741029I-65000J-2170000D01*
G01*
X58112499Y-36262500D02*
G75*
G03*
X56012500Y-38162501I-99999J-2000000D01*
G01*
D17*
X61112500Y-39462500D02*
G75*
G03*
X58896182Y-41341029I-65000J-2170000D01*
G01*
D16*
X56462500Y-41562500D02*
X58912500Y-41562500D01*
D15*
X66162500Y-36462500D02*
X64912500Y-36462500D01*
G04 #@! TO.C,SW4*
X47112500Y-36462500D02*
X45862500Y-36462500D01*
D16*
X37412500Y-41562500D02*
X39862500Y-41562500D01*
D17*
X42062500Y-39462500D02*
G75*
G03*
X39846182Y-41341029I-65000J-2170000D01*
G01*
D10*
X39062499Y-36262500D02*
G75*
G03*
X36962500Y-38162501I-99999J-2000000D01*
G01*
X42462500Y-39862500D02*
G75*
G03*
X40246182Y-41741029I-65000J-2170000D01*
G01*
X47262500Y-36262500D02*
X39062499Y-36262500D01*
X42462500Y-39862500D02*
X47262500Y-39862500D01*
X37212500Y-41762500D02*
X40242500Y-41762500D01*
X36962500Y-38162500D02*
X36962500Y-38912500D01*
X37212500Y-37312500D02*
X37212500Y-41762500D01*
X36962500Y-38912500D02*
X37162500Y-38912500D01*
X47242500Y-38862500D02*
X47242500Y-36612500D01*
X47262500Y-39862500D02*
X47262500Y-36262500D01*
D18*
X45462500Y-38062500D02*
X38762500Y-38062500D01*
D17*
X46762500Y-36862500D02*
X46762500Y-39362500D01*
D16*
X47062500Y-39612500D02*
X45762500Y-39562500D01*
D19*
X38692500Y-37762500D02*
X38692500Y-40002500D01*
D20*
X37562500Y-41262500D02*
X37562500Y-39462501D01*
D21*
X37062500Y-38812500D02*
X37062500Y-38162500D01*
D10*
G04 #@! TO.C,D14*
X80562500Y-88900000D02*
X81462500Y-89400000D01*
X81462500Y-89400000D02*
X81462500Y-88400000D01*
X81462500Y-88400000D02*
X80562500Y-88900000D01*
X80462500Y-89400000D02*
X80462500Y-88400000D01*
G04 #@! TO.C,D13*
X61512500Y-88900000D02*
X62412500Y-89400000D01*
X62412500Y-89400000D02*
X62412500Y-88400000D01*
X62412500Y-88400000D02*
X61512500Y-88900000D01*
X61412500Y-89400000D02*
X61412500Y-88400000D01*
G04 #@! TO.C,D12*
X42462500Y-88900000D02*
X43362500Y-89400000D01*
X43362500Y-89400000D02*
X43362500Y-88400000D01*
X43362500Y-88400000D02*
X42462500Y-88900000D01*
X42362500Y-89400000D02*
X42362500Y-88400000D01*
G04 #@! TO.C,D10*
X118662500Y-69850000D02*
X119562500Y-70350000D01*
X119562500Y-70350000D02*
X119562500Y-69350000D01*
X119562500Y-69350000D02*
X118662500Y-69850000D01*
X118562500Y-70350000D02*
X118562500Y-69350000D01*
G04 #@! TO.C,D9*
X99612500Y-69850000D02*
X100512500Y-70350000D01*
X100512500Y-70350000D02*
X100512500Y-69350000D01*
X100512500Y-69350000D02*
X99612500Y-69850000D01*
X99512500Y-70350000D02*
X99512500Y-69350000D01*
G04 #@! TO.C,D8*
X80562500Y-69850000D02*
X81462500Y-70350000D01*
X81462500Y-70350000D02*
X81462500Y-69350000D01*
X81462500Y-69350000D02*
X80562500Y-69850000D01*
X80462500Y-70350000D02*
X80462500Y-69350000D01*
G04 #@! TO.C,D7*
X61512500Y-69850000D02*
X62412500Y-70350000D01*
X62412500Y-70350000D02*
X62412500Y-69350000D01*
X62412500Y-69350000D02*
X61512500Y-69850000D01*
X61412500Y-70350000D02*
X61412500Y-69350000D01*
G04 #@! TO.C,D6*
X42462500Y-69850000D02*
X43362500Y-70350000D01*
X43362500Y-70350000D02*
X43362500Y-69350000D01*
X43362500Y-69350000D02*
X42462500Y-69850000D01*
X42362500Y-70350000D02*
X42362500Y-69350000D01*
G04 #@! TO.C,D5*
X118562500Y-51300000D02*
X118562500Y-50300000D01*
X119562500Y-50300000D02*
X118662500Y-50800000D01*
X119562500Y-51300000D02*
X119562500Y-50300000D01*
X118662500Y-50800000D02*
X119562500Y-51300000D01*
G04 #@! TO.C,D4*
X99612500Y-50800000D02*
X100512500Y-51300000D01*
X100512500Y-51300000D02*
X100512500Y-50300000D01*
X100512500Y-50300000D02*
X99612500Y-50800000D01*
X99512500Y-51300000D02*
X99512500Y-50300000D01*
G04 #@! TO.C,D3*
X80562500Y-50800000D02*
X81462500Y-51300000D01*
X81462500Y-51300000D02*
X81462500Y-50300000D01*
X81462500Y-50300000D02*
X80562500Y-50800000D01*
X80462500Y-51300000D02*
X80462500Y-50300000D01*
G04 #@! TO.C,D2*
X61412500Y-51300000D02*
X61412500Y-50300000D01*
X62412500Y-50300000D02*
X61512500Y-50800000D01*
X62412500Y-51300000D02*
X62412500Y-50300000D01*
X61512500Y-50800000D02*
X62412500Y-51300000D01*
G04 #@! TO.C,D1*
X42462500Y-50800000D02*
X43362500Y-51300000D01*
X43362500Y-51300000D02*
X43362500Y-50300000D01*
X43362500Y-50300000D02*
X42462500Y-50800000D01*
X42362500Y-51300000D02*
X42362500Y-50300000D01*
G04 #@! TO.C,D11*
X113212500Y-106862500D02*
X112212500Y-106862500D01*
X112212500Y-105862500D02*
X112712500Y-106762500D01*
X113212500Y-105862500D02*
X112212500Y-105862500D01*
X112712500Y-106762500D02*
X113212500Y-105862500D01*
G04 #@! TO.C,D31*
X118662500Y-127000000D02*
X119562500Y-127500000D01*
X119562500Y-127500000D02*
X119562500Y-126500000D01*
X119562500Y-126500000D02*
X118662500Y-127000000D01*
X118562500Y-127500000D02*
X118562500Y-126500000D01*
G04 #@! TO.C,D30*
X99612500Y-127000000D02*
X100512500Y-127500000D01*
X100512500Y-127500000D02*
X100512500Y-126500000D01*
X100512500Y-126500000D02*
X99612500Y-127000000D01*
X99512500Y-127500000D02*
X99512500Y-126500000D01*
G04 #@! TO.C,D29*
X80562500Y-127000000D02*
X81462500Y-127500000D01*
X81462500Y-127500000D02*
X81462500Y-126500000D01*
X81462500Y-126500000D02*
X80562500Y-127000000D01*
X80462500Y-127500000D02*
X80462500Y-126500000D01*
G04 #@! TO.C,D28*
X53975000Y-119462500D02*
X54475000Y-118562500D01*
X54475000Y-118562500D02*
X53475000Y-118562500D01*
X53475000Y-118562500D02*
X53975000Y-119462500D01*
X54475000Y-119562500D02*
X53475000Y-119562500D01*
G04 #@! TO.C,D27*
X50800000Y-119462500D02*
X51300000Y-118562500D01*
X51300000Y-118562500D02*
X50300000Y-118562500D01*
X50300000Y-118562500D02*
X50800000Y-119462500D01*
X51300000Y-119562500D02*
X50300000Y-119562500D01*
G04 #@! TO.C,D26*
X49212500Y-106762500D02*
X49712500Y-105862500D01*
X49712500Y-105862500D02*
X48712500Y-105862500D01*
X48712500Y-105862500D02*
X49212500Y-106762500D01*
X49712500Y-106862500D02*
X48712500Y-106862500D01*
G04 #@! TO.C,D25*
X52387500Y-90887500D02*
X52887500Y-89987500D01*
X52887500Y-89987500D02*
X51887500Y-89987500D01*
X51887500Y-89987500D02*
X52387500Y-90887500D01*
X52887500Y-90987500D02*
X51887500Y-90987500D01*
G04 #@! TO.C,D24*
X52387500Y-103587500D02*
X52887500Y-102687500D01*
X52887500Y-102687500D02*
X51887500Y-102687500D01*
X51887500Y-102687500D02*
X52387500Y-103587500D01*
X52887500Y-103687500D02*
X51887500Y-103687500D01*
G04 #@! TO.C,D23*
X113212500Y-94162500D02*
X112212500Y-94162500D01*
X112212500Y-93162500D02*
X112712500Y-94062500D01*
X113212500Y-93162500D02*
X112212500Y-93162500D01*
X112712500Y-94062500D02*
X113212500Y-93162500D01*
G04 #@! TO.C,D22*
X99612500Y-107950000D02*
X100512500Y-108450000D01*
X100512500Y-108450000D02*
X100512500Y-107450000D01*
X100512500Y-107450000D02*
X99612500Y-107950000D01*
X99512500Y-108450000D02*
X99512500Y-107450000D01*
G04 #@! TO.C,D21*
X80562500Y-107950000D02*
X81462500Y-108450000D01*
X81462500Y-108450000D02*
X81462500Y-107450000D01*
X81462500Y-107450000D02*
X80562500Y-107950000D01*
X80462500Y-108450000D02*
X80462500Y-107450000D01*
G04 #@! TO.C,D20*
X61512500Y-107950000D02*
X62412500Y-108450000D01*
X62412500Y-108450000D02*
X62412500Y-107450000D01*
X62412500Y-107450000D02*
X61512500Y-107950000D01*
X61412500Y-108450000D02*
X61412500Y-107450000D01*
G04 #@! TO.C,D19*
X49712500Y-94162500D02*
X48712500Y-94162500D01*
X48712500Y-93162500D02*
X49212500Y-94062500D01*
X49712500Y-93162500D02*
X48712500Y-93162500D01*
X49212500Y-94062500D02*
X49712500Y-93162500D01*
G04 #@! TO.C,D18*
X110037500Y-106862500D02*
X109037500Y-106862500D01*
X109037500Y-105862500D02*
X109537500Y-106762500D01*
X110037500Y-105862500D02*
X109037500Y-105862500D01*
X109537500Y-106762500D02*
X110037500Y-105862500D01*
G04 #@! TO.C,D17*
X110037500Y-94162500D02*
X109037500Y-94162500D01*
X109037500Y-93162500D02*
X109537500Y-94062500D01*
X110037500Y-93162500D02*
X109037500Y-93162500D01*
X109537500Y-94062500D02*
X110037500Y-93162500D01*
G04 #@! TO.C,D16*
X118662500Y-88900000D02*
X119562500Y-89400000D01*
X119562500Y-89400000D02*
X119562500Y-88400000D01*
X119562500Y-88400000D02*
X118662500Y-88900000D01*
X118562500Y-89400000D02*
X118562500Y-88400000D01*
G04 #@! TO.C,D15*
X99612500Y-88900000D02*
X100512500Y-89400000D01*
X100512500Y-89400000D02*
X100512500Y-88400000D01*
X100512500Y-88400000D02*
X99612500Y-88900000D01*
X99512500Y-89400000D02*
X99512500Y-88400000D01*
G04 #@! TO.C,SW1*
X92237500Y-120825000D02*
X91987500Y-120825000D01*
X92237500Y-126825000D02*
X92237500Y-120825000D01*
X92237500Y-126825000D02*
X91987500Y-126825000D01*
X88737500Y-126825000D02*
X88987500Y-126825000D01*
X88737500Y-120825000D02*
X88987500Y-120825000D01*
X88737500Y-126825000D02*
X88737500Y-120825000D01*
D12*
G04 #@! TO.C,LED25*
X122962500Y-124075000D02*
X122962500Y-125675000D01*
X115162500Y-121975000D02*
X122962500Y-121975000D01*
X122962500Y-125675000D02*
X115162500Y-125675000D01*
G04 #@! TO.C,LED24*
X103912500Y-123875000D02*
X103912500Y-125475000D01*
X96112500Y-121775000D02*
X103912500Y-121775000D01*
X103912500Y-125475000D02*
X96112500Y-125475000D01*
G04 #@! TO.C,LED23*
X84862500Y-123875000D02*
X84862500Y-125475000D01*
X77062500Y-121775000D02*
X84862500Y-121775000D01*
X84862500Y-125475000D02*
X77062500Y-125475000D01*
G04 #@! TO.C,LED22*
X65812500Y-123875000D02*
X65812500Y-125475000D01*
X58012500Y-121775000D02*
X65812500Y-121775000D01*
X65812500Y-125475000D02*
X58012500Y-125475000D01*
G04 #@! TO.C,LED21*
X46762500Y-123875000D02*
X46762500Y-125475000D01*
X38962500Y-121775000D02*
X46762500Y-121775000D01*
X46762500Y-125475000D02*
X38962500Y-125475000D01*
G04 #@! TO.C,LED20*
X117725000Y-96112500D02*
X119325000Y-96112500D01*
X115625000Y-103912500D02*
X115625000Y-96112500D01*
X119325000Y-96112500D02*
X119325000Y-103912500D01*
G04 #@! TO.C,LED19*
X103912500Y-106625000D02*
X96112500Y-106625000D01*
X96112500Y-102925000D02*
X103912500Y-102925000D01*
X103912500Y-105025000D02*
X103912500Y-106625000D01*
G04 #@! TO.C,LED18*
X84862500Y-106625000D02*
X77062500Y-106625000D01*
X77062500Y-102925000D02*
X84862500Y-102925000D01*
X84862500Y-105025000D02*
X84862500Y-106625000D01*
G04 #@! TO.C,LED17*
X65812500Y-106625000D02*
X58012500Y-106625000D01*
X58012500Y-102925000D02*
X65812500Y-102925000D01*
X65812500Y-105025000D02*
X65812500Y-106625000D01*
G04 #@! TO.C,LED15*
X122962500Y-87575000D02*
X115162500Y-87575000D01*
X115162500Y-83875000D02*
X122962500Y-83875000D01*
X122962500Y-85975000D02*
X122962500Y-87575000D01*
G04 #@! TO.C,LED14*
X103912500Y-87575000D02*
X96112500Y-87575000D01*
X96112500Y-83875000D02*
X103912500Y-83875000D01*
X103912500Y-85975000D02*
X103912500Y-87575000D01*
G04 #@! TO.C,LED6*
X46762500Y-68525000D02*
X38962500Y-68525000D01*
X38962500Y-64825000D02*
X46762500Y-64825000D01*
X46762500Y-66925000D02*
X46762500Y-68525000D01*
G04 #@! TO.C,LED5*
X122962500Y-49475000D02*
X115162500Y-49475000D01*
X115162500Y-45775000D02*
X122962500Y-45775000D01*
X122962500Y-47875000D02*
X122962500Y-49475000D01*
G04 #@! TO.C,LED13*
X84862500Y-87575000D02*
X77062500Y-87575000D01*
X77062500Y-83875000D02*
X84862500Y-83875000D01*
X84862500Y-85975000D02*
X84862500Y-87575000D01*
G04 #@! TO.C,LED4*
X104281300Y-47875000D02*
X104281300Y-49475000D01*
X96481300Y-45775000D02*
X104281300Y-45775000D01*
X104281300Y-49475000D02*
X96481300Y-49475000D01*
G04 #@! TO.C,LED3*
X84862500Y-47875000D02*
X84862500Y-49475000D01*
X77062500Y-45775000D02*
X84862500Y-45775000D01*
X84862500Y-49475000D02*
X77062500Y-49475000D01*
G04 #@! TO.C,LED2*
X65812500Y-47875000D02*
X65812500Y-49475000D01*
X58012500Y-45775000D02*
X65812500Y-45775000D01*
X65812500Y-49475000D02*
X58012500Y-49475000D01*
G04 #@! TO.C,LED1*
X46762500Y-49475000D02*
X38962500Y-49475000D01*
X38962500Y-45775000D02*
X46762500Y-45775000D01*
X46762500Y-47875000D02*
X46762500Y-49475000D01*
G04 #@! TO.C,LED12*
X65812500Y-87575000D02*
X58012500Y-87575000D01*
X58012500Y-83875000D02*
X65812500Y-83875000D01*
X65812500Y-85975000D02*
X65812500Y-87575000D01*
G04 #@! TO.C,LED11*
X46762500Y-87575000D02*
X38962500Y-87575000D01*
X38962500Y-83875000D02*
X46762500Y-83875000D01*
X46762500Y-85975000D02*
X46762500Y-87575000D01*
G04 #@! TO.C,LED10*
X122962500Y-68525000D02*
X115162500Y-68525000D01*
X115162500Y-64825000D02*
X122962500Y-64825000D01*
X122962500Y-66925000D02*
X122962500Y-68525000D01*
G04 #@! TO.C,LED9*
X103912500Y-68525000D02*
X96112500Y-68525000D01*
X96112500Y-64825000D02*
X103912500Y-64825000D01*
X103912500Y-66925000D02*
X103912500Y-68525000D01*
G04 #@! TO.C,LED8*
X84862500Y-68525000D02*
X77062500Y-68525000D01*
X77062500Y-64825000D02*
X84862500Y-64825000D01*
X84862500Y-66925000D02*
X84862500Y-68525000D01*
G04 #@! TO.C,LED7*
X65812500Y-68525000D02*
X58012500Y-68525000D01*
X58012500Y-64825000D02*
X65812500Y-64825000D01*
X65812500Y-66925000D02*
X65812500Y-68525000D01*
G04 #@! TD*
D22*
G04 #@! TO.C,U1*
X36830000Y-111213900D03*
X64770000Y-126453900D03*
X39370000Y-111671100D03*
X41910000Y-111213900D03*
X44450000Y-111671100D03*
X46990000Y-111213900D03*
X49530000Y-111671100D03*
X52070000Y-111213900D03*
X54610000Y-111671100D03*
X57150000Y-111213900D03*
X59690000Y-111671100D03*
X62230000Y-111213900D03*
X64770000Y-111671100D03*
X62230000Y-126911100D03*
X59690000Y-126453900D03*
X57150000Y-126911100D03*
X54610000Y-126453900D03*
X52070000Y-126911100D03*
X49530000Y-126453900D03*
X46990000Y-126911100D03*
X44450000Y-126453900D03*
X41910000Y-126911100D03*
X39370000Y-126453900D03*
D23*
X36830000Y-126911100D03*
G04 #@! TD*
D24*
G04 #@! TO.C,SW1*
X90487500Y-127075000D03*
X90487500Y-120575000D03*
G04 #@! TD*
M02*
