G04 #@! TF.GenerationSoftware,KiCad,Pcbnew,(6.0.1)*
G04 #@! TF.CreationDate,2022-02-24T19:14:04+09:00*
G04 #@! TF.ProjectId,xipher_kbd,78697068-6572-45f6-9b62-642e6b696361,rev?*
G04 #@! TF.SameCoordinates,Original*
G04 #@! TF.FileFunction,Soldermask,Bot*
G04 #@! TF.FilePolarity,Negative*
%FSLAX46Y46*%
G04 Gerber Fmt 4.6, Leading zero omitted, Abs format (unit mm)*
G04 Created by KiCad (PCBNEW (6.0.1)) date 2022-02-24 19:14:04*
%MOMM*%
%LPD*%
G01*
G04 APERTURE LIST*
%ADD10C,3.800000*%
%ADD11R,1.000000X1.700000*%
%ADD12C,2.000000*%
%ADD13O,2.000000X3.400000*%
%ADD14R,2.000000X2.000000*%
%ADD15O,2.500000X2.000000*%
%ADD16C,1.900000*%
%ADD17C,4.000000*%
%ADD18C,1.200000*%
%ADD19R,1.600000X1.000000*%
%ADD20R,1.100000X1.600000*%
%ADD21C,1.752600*%
%ADD22R,1.752600X1.752600*%
%ADD23R,2.550000X2.500000*%
%ADD24C,4.100000*%
%ADD25C,3.000000*%
%ADD26R,1.400000X1.300000*%
%ADD27R,1.300000X1.400000*%
%ADD28R,1.700000X1.000000*%
G04 APERTURE END LIST*
D10*
G04 #@! TO.C,REF4*
X71437500Y-127000000D03*
G04 #@! TD*
G04 #@! TO.C,REF3*
X109537500Y-127000000D03*
G04 #@! TD*
G04 #@! TO.C,REF2*
X34925000Y-50800000D03*
G04 #@! TD*
G04 #@! TO.C,REF1*
X127000000Y-50800000D03*
G04 #@! TD*
D11*
G04 #@! TO.C,LED16*
X43750000Y-97262500D03*
X45150000Y-97262500D03*
X43750000Y-102762500D03*
X45150000Y-102762500D03*
G04 #@! TD*
D12*
G04 #@! TO.C,SW2*
X121562500Y-93012500D03*
X116562500Y-93012500D03*
D13*
X113462500Y-100012500D03*
D12*
X121562500Y-107512500D03*
X119062500Y-107512500D03*
D14*
X116562500Y-107512500D03*
G04 #@! TD*
D12*
G04 #@! TO.C,SW3*
X45362500Y-93012500D03*
X40362500Y-93012500D03*
D13*
X48462500Y-100012500D03*
D12*
X45362500Y-107512500D03*
X42862500Y-107512500D03*
D14*
X40362500Y-107512500D03*
G04 #@! TD*
D15*
G04 #@! TO.C,SW25*
X58102500Y-116522500D03*
X64452500Y-113982500D03*
D16*
X66992500Y-119062500D03*
X56832500Y-119062500D03*
D17*
X61912500Y-119062500D03*
G04 #@! TD*
G04 #@! TO.C,SW24*
X42862500Y-119062500D03*
D16*
X37782500Y-119062500D03*
X47942500Y-119062500D03*
D15*
X45402500Y-113982500D03*
X39052500Y-116522500D03*
G04 #@! TD*
D18*
G04 #@! TO.C,S1*
X125187500Y-100012500D03*
X129187500Y-100012500D03*
D19*
X123487500Y-100762500D03*
D20*
X128287500Y-105312500D03*
D19*
X123487500Y-96262500D03*
D20*
X128287500Y-94712500D03*
D19*
X123487500Y-97762500D03*
X123487500Y-99262500D03*
X123487500Y-102262500D03*
X123487500Y-103762500D03*
G04 #@! TD*
D18*
G04 #@! TO.C,S2*
X36737500Y-100012500D03*
X32737500Y-100012500D03*
D19*
X38437500Y-99262500D03*
D20*
X33637500Y-94712500D03*
D19*
X38437500Y-103762500D03*
D20*
X33637500Y-105312500D03*
D19*
X38437500Y-102262500D03*
X38437500Y-100762500D03*
X38437500Y-97762500D03*
X38437500Y-96262500D03*
G04 #@! TD*
D21*
G04 #@! TO.C,U1*
X36830000Y-111213900D03*
X64770000Y-126453900D03*
X39370000Y-111671100D03*
X41910000Y-111213900D03*
X44450000Y-111671100D03*
X46990000Y-111213900D03*
X49530000Y-111671100D03*
X52070000Y-111213900D03*
X54610000Y-111671100D03*
X57150000Y-111213900D03*
X59690000Y-111671100D03*
X62230000Y-111213900D03*
X64770000Y-111671100D03*
X62230000Y-126911100D03*
X59690000Y-126453900D03*
X57150000Y-126911100D03*
X54610000Y-126453900D03*
X52070000Y-126911100D03*
X49530000Y-126453900D03*
X46990000Y-126911100D03*
X44450000Y-126453900D03*
X41910000Y-126911100D03*
X39370000Y-126453900D03*
D22*
X36830000Y-126911100D03*
G04 #@! TD*
D23*
G04 #@! TO.C,SW28*
X111977500Y-116522500D03*
D24*
X119062500Y-119062500D03*
D16*
X124142500Y-119062500D03*
X113982500Y-119062500D03*
D23*
X124904500Y-113982500D03*
D25*
X115252500Y-116522500D03*
X121602500Y-113982500D03*
G04 #@! TD*
D23*
G04 #@! TO.C,SW27*
X92927500Y-116522500D03*
D24*
X100012500Y-119062500D03*
D16*
X105092500Y-119062500D03*
X94932500Y-119062500D03*
D23*
X105854500Y-113982500D03*
D25*
X96202500Y-116522500D03*
X102552500Y-113982500D03*
G04 #@! TD*
G04 #@! TO.C,SW26*
X83502500Y-113982500D03*
X77152500Y-116522500D03*
D23*
X86804500Y-113982500D03*
D16*
X75882500Y-119062500D03*
X86042500Y-119062500D03*
D24*
X80962500Y-119062500D03*
D23*
X73877500Y-116522500D03*
G04 #@! TD*
D25*
G04 #@! TO.C,SW22*
X102552500Y-94932500D03*
X96202500Y-97472500D03*
D23*
X105854500Y-94932500D03*
D16*
X94932500Y-100012500D03*
X105092500Y-100012500D03*
D24*
X100012500Y-100012500D03*
D23*
X92927500Y-97472500D03*
G04 #@! TD*
D25*
G04 #@! TO.C,SW21*
X83502500Y-94932500D03*
X77152500Y-97472500D03*
D23*
X86804500Y-94932500D03*
D16*
X75882500Y-100012500D03*
X86042500Y-100012500D03*
D24*
X80962500Y-100012500D03*
D23*
X73877500Y-97472500D03*
G04 #@! TD*
D25*
G04 #@! TO.C,SW20*
X64420000Y-94932500D03*
X58070000Y-97472500D03*
D23*
X67722000Y-94932500D03*
D16*
X56800000Y-100012500D03*
X66960000Y-100012500D03*
D24*
X61880000Y-100012500D03*
D23*
X54795000Y-97472500D03*
G04 #@! TD*
D25*
G04 #@! TO.C,SW18*
X121602500Y-75882500D03*
X115252500Y-78422500D03*
D23*
X124904500Y-75882500D03*
D16*
X113982500Y-80962500D03*
X124142500Y-80962500D03*
D24*
X119062500Y-80962500D03*
D23*
X111977500Y-78422500D03*
G04 #@! TD*
D25*
G04 #@! TO.C,SW17*
X102552500Y-75882500D03*
X96202500Y-78422500D03*
D23*
X105854500Y-75882500D03*
D16*
X94932500Y-80962500D03*
X105092500Y-80962500D03*
D24*
X100012500Y-80962500D03*
D23*
X92927500Y-78422500D03*
G04 #@! TD*
D25*
G04 #@! TO.C,SW16*
X83502500Y-75882500D03*
X77152500Y-78422500D03*
D23*
X86804500Y-75882500D03*
D16*
X75882500Y-80962500D03*
X86042500Y-80962500D03*
D24*
X80962500Y-80962500D03*
D23*
X73877500Y-78422500D03*
G04 #@! TD*
D25*
G04 #@! TO.C,SW15*
X64452500Y-75882500D03*
X58102500Y-78422500D03*
D23*
X67754500Y-75882500D03*
D16*
X56832500Y-80962500D03*
X66992500Y-80962500D03*
D24*
X61912500Y-80962500D03*
D23*
X54827500Y-78422500D03*
G04 #@! TD*
D25*
G04 #@! TO.C,SW14*
X45402500Y-75882500D03*
X39052500Y-78422500D03*
D23*
X48704500Y-75882500D03*
D16*
X37782500Y-80962500D03*
X47942500Y-80962500D03*
D24*
X42862500Y-80962500D03*
D23*
X35777500Y-78422500D03*
G04 #@! TD*
D25*
G04 #@! TO.C,SW13*
X121602500Y-56832500D03*
X115252500Y-59372500D03*
D23*
X124904500Y-56832500D03*
D16*
X113982500Y-61912500D03*
X124142500Y-61912500D03*
D24*
X119062500Y-61912500D03*
D23*
X111977500Y-59372500D03*
G04 #@! TD*
G04 #@! TO.C,SW12*
X92927500Y-59372500D03*
D24*
X100012500Y-61912500D03*
D16*
X105092500Y-61912500D03*
X94932500Y-61912500D03*
D23*
X105854500Y-56832500D03*
D25*
X96202500Y-59372500D03*
X102552500Y-56832500D03*
G04 #@! TD*
D23*
G04 #@! TO.C,SW11*
X73877500Y-59372500D03*
D24*
X80962500Y-61912500D03*
D16*
X86042500Y-61912500D03*
X75882500Y-61912500D03*
D23*
X86804500Y-56832500D03*
D25*
X77152500Y-59372500D03*
X83502500Y-56832500D03*
G04 #@! TD*
D23*
G04 #@! TO.C,SW10*
X54827500Y-59372500D03*
D24*
X61912500Y-61912500D03*
D16*
X66992500Y-61912500D03*
X56832500Y-61912500D03*
D23*
X67754500Y-56832500D03*
D25*
X58102500Y-59372500D03*
X64452500Y-56832500D03*
G04 #@! TD*
D23*
G04 #@! TO.C,SW9*
X35777500Y-59372500D03*
D24*
X42862500Y-61912500D03*
D16*
X47942500Y-61912500D03*
X37782500Y-61912500D03*
D23*
X48704500Y-56832500D03*
D25*
X39052500Y-59372500D03*
X45402500Y-56832500D03*
G04 #@! TD*
G04 #@! TO.C,SW8*
X121602500Y-37782500D03*
X115252500Y-40322500D03*
D23*
X124904500Y-37782500D03*
D16*
X113982500Y-42862500D03*
X124142500Y-42862500D03*
D24*
X119062500Y-42862500D03*
D23*
X111977500Y-40322500D03*
G04 #@! TD*
D25*
G04 #@! TO.C,SW7*
X102552500Y-37782500D03*
X96202500Y-40322500D03*
D23*
X105854500Y-37782500D03*
D16*
X94932500Y-42862500D03*
X105092500Y-42862500D03*
D24*
X100012500Y-42862500D03*
D23*
X92927500Y-40322500D03*
G04 #@! TD*
D25*
G04 #@! TO.C,SW6*
X83502500Y-37782500D03*
X77152500Y-40322500D03*
D23*
X86804500Y-37782500D03*
D16*
X75882500Y-42862500D03*
X86042500Y-42862500D03*
D24*
X80962500Y-42862500D03*
D23*
X73877500Y-40322500D03*
G04 #@! TD*
D25*
G04 #@! TO.C,SW5*
X64452500Y-37782500D03*
X58102500Y-40322500D03*
D23*
X67754500Y-37782500D03*
D16*
X56832500Y-42862500D03*
X66992500Y-42862500D03*
D24*
X61912500Y-42862500D03*
D23*
X54827500Y-40322500D03*
G04 #@! TD*
G04 #@! TO.C,SW4*
X35777500Y-40322500D03*
D24*
X42862500Y-42862500D03*
D16*
X47942500Y-42862500D03*
X37782500Y-42862500D03*
D23*
X48704500Y-37782500D03*
D25*
X39052500Y-40322500D03*
X45402500Y-37782500D03*
G04 #@! TD*
D26*
G04 #@! TO.C,D14*
X79187500Y-88900000D03*
X82737500Y-88900000D03*
G04 #@! TD*
G04 #@! TO.C,D13*
X60137500Y-88900000D03*
X63687500Y-88900000D03*
G04 #@! TD*
G04 #@! TO.C,D12*
X41087500Y-88900000D03*
X44637500Y-88900000D03*
G04 #@! TD*
G04 #@! TO.C,D10*
X117287500Y-69850000D03*
X120837500Y-69850000D03*
G04 #@! TD*
G04 #@! TO.C,D9*
X98237500Y-69850000D03*
X101787500Y-69850000D03*
G04 #@! TD*
G04 #@! TO.C,D8*
X79187500Y-69850000D03*
X82737500Y-69850000D03*
G04 #@! TD*
G04 #@! TO.C,D7*
X60137500Y-69850000D03*
X63687500Y-69850000D03*
G04 #@! TD*
G04 #@! TO.C,D6*
X41087500Y-69850000D03*
X44637500Y-69850000D03*
G04 #@! TD*
G04 #@! TO.C,D5*
X120837500Y-50800000D03*
X117287500Y-50800000D03*
G04 #@! TD*
G04 #@! TO.C,D4*
X98237500Y-50800000D03*
X101787500Y-50800000D03*
G04 #@! TD*
G04 #@! TO.C,D3*
X79187500Y-50800000D03*
X82737500Y-50800000D03*
G04 #@! TD*
G04 #@! TO.C,D2*
X63687500Y-50800000D03*
X60137500Y-50800000D03*
G04 #@! TD*
G04 #@! TO.C,D1*
X41087500Y-50800000D03*
X44637500Y-50800000D03*
G04 #@! TD*
D27*
G04 #@! TO.C,D11*
X112712500Y-104587500D03*
X112712500Y-108137500D03*
G04 #@! TD*
D26*
G04 #@! TO.C,D31*
X117287500Y-127000000D03*
X120837500Y-127000000D03*
G04 #@! TD*
G04 #@! TO.C,D30*
X98237500Y-127000000D03*
X101787500Y-127000000D03*
G04 #@! TD*
G04 #@! TO.C,D29*
X79187500Y-127000000D03*
X82737500Y-127000000D03*
G04 #@! TD*
D27*
G04 #@! TO.C,D28*
X53975000Y-120837500D03*
X53975000Y-117287500D03*
G04 #@! TD*
G04 #@! TO.C,D27*
X50800000Y-120837500D03*
X50800000Y-117287500D03*
G04 #@! TD*
G04 #@! TO.C,D26*
X49212500Y-108137500D03*
X49212500Y-104587500D03*
G04 #@! TD*
G04 #@! TO.C,D25*
X52387500Y-92262500D03*
X52387500Y-88712500D03*
G04 #@! TD*
G04 #@! TO.C,D24*
X52387500Y-104962500D03*
X52387500Y-101412500D03*
G04 #@! TD*
G04 #@! TO.C,D23*
X112712500Y-91887500D03*
X112712500Y-95437500D03*
G04 #@! TD*
D26*
G04 #@! TO.C,D22*
X98237500Y-107950000D03*
X101787500Y-107950000D03*
G04 #@! TD*
G04 #@! TO.C,D21*
X79187500Y-107950000D03*
X82737500Y-107950000D03*
G04 #@! TD*
G04 #@! TO.C,D20*
X60137500Y-107950000D03*
X63687500Y-107950000D03*
G04 #@! TD*
D27*
G04 #@! TO.C,D19*
X49212500Y-91887500D03*
X49212500Y-95437500D03*
G04 #@! TD*
G04 #@! TO.C,D18*
X109537500Y-104587500D03*
X109537500Y-108137500D03*
G04 #@! TD*
G04 #@! TO.C,D17*
X109537500Y-91887500D03*
X109537500Y-95437500D03*
G04 #@! TD*
D26*
G04 #@! TO.C,D16*
X117287500Y-88900000D03*
X120837500Y-88900000D03*
G04 #@! TD*
G04 #@! TO.C,D15*
X98237500Y-88900000D03*
X101787500Y-88900000D03*
G04 #@! TD*
D12*
G04 #@! TO.C,SW1*
X90487500Y-127075000D03*
X90487500Y-120575000D03*
G04 #@! TD*
D28*
G04 #@! TO.C,LED25*
X116312500Y-124525000D03*
X116312500Y-123125000D03*
X121812500Y-124525000D03*
X121812500Y-123125000D03*
G04 #@! TD*
G04 #@! TO.C,LED24*
X97262500Y-124325000D03*
X97262500Y-122925000D03*
X102762500Y-124325000D03*
X102762500Y-122925000D03*
G04 #@! TD*
G04 #@! TO.C,LED23*
X78212500Y-124325000D03*
X78212500Y-122925000D03*
X83712500Y-124325000D03*
X83712500Y-122925000D03*
G04 #@! TD*
G04 #@! TO.C,LED22*
X59162500Y-124325000D03*
X59162500Y-122925000D03*
X64662500Y-124325000D03*
X64662500Y-122925000D03*
G04 #@! TD*
G04 #@! TO.C,LED21*
X40112500Y-124325000D03*
X40112500Y-122925000D03*
X45612500Y-124325000D03*
X45612500Y-122925000D03*
G04 #@! TD*
D11*
G04 #@! TO.C,LED20*
X118175000Y-102762500D03*
X116775000Y-102762500D03*
X118175000Y-97262500D03*
X116775000Y-97262500D03*
G04 #@! TD*
D28*
G04 #@! TO.C,LED19*
X102762500Y-104075000D03*
X102762500Y-105475000D03*
X97262500Y-104075000D03*
X97262500Y-105475000D03*
G04 #@! TD*
G04 #@! TO.C,LED18*
X83712500Y-104075000D03*
X83712500Y-105475000D03*
X78212500Y-104075000D03*
X78212500Y-105475000D03*
G04 #@! TD*
G04 #@! TO.C,LED17*
X64662500Y-104075000D03*
X64662500Y-105475000D03*
X59162500Y-104075000D03*
X59162500Y-105475000D03*
G04 #@! TD*
G04 #@! TO.C,LED15*
X121812500Y-85025000D03*
X121812500Y-86425000D03*
X116312500Y-85025000D03*
X116312500Y-86425000D03*
G04 #@! TD*
G04 #@! TO.C,LED14*
X102762500Y-85025000D03*
X102762500Y-86425000D03*
X97262500Y-85025000D03*
X97262500Y-86425000D03*
G04 #@! TD*
G04 #@! TO.C,LED6*
X45612500Y-65975000D03*
X45612500Y-67375000D03*
X40112500Y-65975000D03*
X40112500Y-67375000D03*
G04 #@! TD*
G04 #@! TO.C,LED5*
X121812500Y-46925000D03*
X121812500Y-48325000D03*
X116312500Y-46925000D03*
X116312500Y-48325000D03*
G04 #@! TD*
G04 #@! TO.C,LED13*
X83712500Y-85025000D03*
X83712500Y-86425000D03*
X78212500Y-85025000D03*
X78212500Y-86425000D03*
G04 #@! TD*
G04 #@! TO.C,LED4*
X97631300Y-48325000D03*
X97631300Y-46925000D03*
X103131300Y-48325000D03*
X103131300Y-46925000D03*
G04 #@! TD*
G04 #@! TO.C,LED3*
X78212500Y-48325000D03*
X78212500Y-46925000D03*
X83712500Y-48325000D03*
X83712500Y-46925000D03*
G04 #@! TD*
G04 #@! TO.C,LED2*
X59162500Y-48325000D03*
X59162500Y-46925000D03*
X64662500Y-48325000D03*
X64662500Y-46925000D03*
G04 #@! TD*
G04 #@! TO.C,LED1*
X45612500Y-46925000D03*
X45612500Y-48325000D03*
X40112500Y-46925000D03*
X40112500Y-48325000D03*
G04 #@! TD*
G04 #@! TO.C,LED12*
X64662500Y-85025000D03*
X64662500Y-86425000D03*
X59162500Y-85025000D03*
X59162500Y-86425000D03*
G04 #@! TD*
G04 #@! TO.C,LED11*
X45612500Y-85025000D03*
X45612500Y-86425000D03*
X40112500Y-85025000D03*
X40112500Y-86425000D03*
G04 #@! TD*
G04 #@! TO.C,LED10*
X121812500Y-65975000D03*
X121812500Y-67375000D03*
X116312500Y-65975000D03*
X116312500Y-67375000D03*
G04 #@! TD*
G04 #@! TO.C,LED9*
X102762500Y-65975000D03*
X102762500Y-67375000D03*
X97262500Y-65975000D03*
X97262500Y-67375000D03*
G04 #@! TD*
G04 #@! TO.C,LED8*
X83712500Y-65975000D03*
X83712500Y-67375000D03*
X78212500Y-65975000D03*
X78212500Y-67375000D03*
G04 #@! TD*
G04 #@! TO.C,LED7*
X64662500Y-65975000D03*
X64662500Y-67375000D03*
X59162500Y-65975000D03*
X59162500Y-67375000D03*
G04 #@! TD*
M02*
