M48
; DRILL file {KiCad (6.0.1)} date Thu Feb 24 19:14:16 2022
; FORMAT={-:-/ absolute / inch / decimal}
; #@! TF.CreationDate,2022-02-24T19:14:16+09:00
; #@! TF.GenerationSoftware,Kicad,Pcbnew,(6.0.1)
; #@! TF.FileFunction,MixedPlating,1,2
FMAT,2
INCH
; #@! TA.AperFunction,Plated,PTH,ViaDrill
T1C0.0157
; #@! TA.AperFunction,Plated,PTH,ComponentDrill
T2C0.0315
; #@! TA.AperFunction,Plated,PTH,ComponentDrill
T3C0.0320
; #@! TA.AperFunction,Plated,PTH,ComponentDrill
T4C0.0394
; #@! TA.AperFunction,Plated,PTH,ComponentDrill
T5C0.0430
; #@! TA.AperFunction,Plated,PTH,ComponentDrill
T6C0.0512
; #@! TA.AperFunction,Plated,PTH,ComponentDrill
T7C0.0551
; #@! TA.AperFunction,Plated,PTH,ComponentDrill
T8C0.0866
; #@! TA.AperFunction,NonPlated,NPTH,ComponentDrill
T9C0.0472
; #@! TA.AperFunction,NonPlated,NPTH,ComponentDrill
T10C0.0748
; #@! TA.AperFunction,NonPlated,NPTH,ComponentDrill
T11C0.1181
; #@! TA.AperFunction,NonPlated,NPTH,ComponentDrill
T12C0.1575
; #@! TA.AperFunction,NonPlated,NPTH,ComponentDrill
T13C0.1614
%
G90
G05
T1
X1.5689Y-4.0267
X1.57Y-3.7996
X1.571Y-4.0717
X1.5792Y-2.6988
X1.6704Y-4.4668
X1.7313Y-3.7702
X1.7958Y-3.298
X1.9006Y-2.5158
X2.0572Y-4.5049
X2.0674Y-3.8672
X2.091Y-4.2481
X2.2691Y-3.3864
X2.2702Y-4.1314
X2.3274Y-1.9483
X2.3484Y-2.548
X2.4159Y-2.7116
X2.5484Y-4.6783
X2.8769Y-4.259
X2.9905Y-1.8491
X3.033Y-3.3011
X3.0792Y-2.6983
X3.1057Y-3.2688
X3.1241Y-4.7805
X3.2958Y-2.541
X3.342Y-4.0387
X3.353Y-4.8933
X3.5516Y-4.3072
X3.6379Y-3.9572
X3.9156Y-2.7112
X4.0266Y-4.944
X4.0458Y-3.3011
X4.092Y-2.548
X4.1256Y-4.3062
X4.1697Y-3.4452
X4.1883Y-4.0725
X4.2561Y-2.1758
X4.43Y-4.4634
X4.4473Y-2.0735
X4.4842Y-2.8299
X4.4946Y-3.4778
X4.7819Y-2.548
X4.7885Y-3.298
X4.8054Y-4.0694
X4.8064Y-3.9062
X4.9334Y-3.8666
T3
X1.5694Y-2.0
X1.5694Y-2.75
X1.5694Y-3.5
X1.8056Y-2.0
X1.8056Y-2.75
X1.8056Y-3.5
X1.9375Y-3.5694
X1.9375Y-3.8056
X1.9375Y-4.0694
X1.9375Y-4.3056
X2.0Y-4.5694
X2.0Y-4.8056
X2.0625Y-3.4444
X2.0625Y-3.6806
X2.0625Y-3.9444
X2.0625Y-4.1806
X2.125Y-4.5694
X2.125Y-4.8056
X2.3194Y-2.0
X2.3194Y-2.75
X2.3194Y-3.5
X2.3194Y-4.25
X2.5556Y-2.0
X2.5556Y-2.75
X2.5556Y-3.5
X2.5556Y-4.25
X3.0694Y-2.0
X3.0694Y-2.75
X3.0694Y-3.5
X3.0694Y-4.25
X3.0694Y-5.0
X3.3056Y-2.0
X3.3056Y-2.75
X3.3056Y-3.5
X3.3056Y-4.25
X3.3056Y-5.0
X3.8194Y-2.0
X3.8194Y-2.75
X3.8194Y-3.5
X3.8194Y-4.25
X3.8194Y-5.0
X4.0556Y-2.0
X4.0556Y-2.75
X4.0556Y-3.5
X4.0556Y-4.25
X4.0556Y-5.0
X4.3125Y-3.5694
X4.3125Y-3.8056
X4.3125Y-4.0694
X4.3125Y-4.3056
X4.4375Y-3.5694
X4.4375Y-3.8056
X4.4375Y-4.0694
X4.4375Y-4.3056
X4.5694Y-2.0
X4.5694Y-2.75
X4.5694Y-3.5
X4.5694Y-5.0
X4.8056Y-2.0
X4.8056Y-2.75
X4.8056Y-3.5
X4.8056Y-5.0
T4
X1.5891Y-3.6619
X1.5891Y-4.2328
X1.6875Y-4.2328
X1.7859Y-3.6619
X1.7859Y-4.2328
X4.5891Y-3.6619
X4.5891Y-4.2328
X4.6875Y-4.2328
X4.7859Y-3.6619
X4.7859Y-4.2328
T5
X1.45Y-4.3785
X1.45Y-4.9965
X1.55Y-4.3965
X1.55Y-4.9785
X1.65Y-4.3785
X1.65Y-4.9965
X1.75Y-4.3965
X1.75Y-4.9785
X1.85Y-4.3785
X1.85Y-4.9965
X1.95Y-4.3965
X1.95Y-4.9785
X2.05Y-4.3785
X2.05Y-4.9965
X2.15Y-4.3965
X2.15Y-4.9785
X2.25Y-4.3785
X2.25Y-4.9965
X2.35Y-4.3965
X2.35Y-4.9785
X2.45Y-4.3785
X2.45Y-4.9965
X2.55Y-4.3965
X2.55Y-4.9785
T6
X3.5625Y-4.747
X3.5625Y-5.003
T8
X1.375Y-2.0
X2.8125Y-5.0
X4.3125Y-5.0
X5.0Y-2.0
T9
X1.2889Y-3.9375
X1.4464Y-3.9375
X4.9286Y-3.9375
X5.0861Y-3.9375
T10
X1.4875Y-1.6875
X1.4875Y-2.4375
X1.4875Y-3.1875
X1.4875Y-4.6875
X1.8875Y-1.6875
X1.8875Y-2.4375
X1.8875Y-3.1875
X1.8875Y-4.6875
X2.2362Y-3.9375
X2.2375Y-1.6875
X2.2375Y-2.4375
X2.2375Y-3.1875
X2.2375Y-4.6875
X2.6362Y-3.9375
X2.6375Y-1.6875
X2.6375Y-2.4375
X2.6375Y-3.1875
X2.6375Y-4.6875
X2.9875Y-1.6875
X2.9875Y-2.4375
X2.9875Y-3.1875
X2.9875Y-3.9375
X2.9875Y-4.6875
X3.3875Y-1.6875
X3.3875Y-2.4375
X3.3875Y-3.1875
X3.3875Y-3.9375
X3.3875Y-4.6875
X3.7375Y-1.6875
X3.7375Y-2.4375
X3.7375Y-3.1875
X3.7375Y-3.9375
X3.7375Y-4.6875
X4.1375Y-1.6875
X4.1375Y-2.4375
X4.1375Y-3.1875
X4.1375Y-3.9375
X4.1375Y-4.6875
X4.4875Y-1.6875
X4.4875Y-2.4375
X4.4875Y-3.1875
X4.4875Y-4.6875
X4.8875Y-1.6875
X4.8875Y-2.4375
X4.8875Y-3.1875
X4.8875Y-4.6875
T11
X1.5375Y-1.5875
X1.5375Y-2.3375
X1.5375Y-3.0875
X1.7875Y-1.4875
X1.7875Y-2.2375
X1.7875Y-2.9875
X2.2862Y-3.8375
X2.2875Y-1.5875
X2.2875Y-2.3375
X2.2875Y-3.0875
X2.5362Y-3.7375
X2.5375Y-1.4875
X2.5375Y-2.2375
X2.5375Y-2.9875
X3.0375Y-1.5875
X3.0375Y-2.3375
X3.0375Y-3.0875
X3.0375Y-3.8375
X3.0375Y-4.5875
X3.2875Y-1.4875
X3.2875Y-2.2375
X3.2875Y-2.9875
X3.2875Y-3.7375
X3.2875Y-4.4875
X3.7875Y-1.5875
X3.7875Y-2.3375
X3.7875Y-3.0875
X3.7875Y-3.8375
X3.7875Y-4.5875
X4.0375Y-1.4875
X4.0375Y-2.2375
X4.0375Y-2.9875
X4.0375Y-3.7375
X4.0375Y-4.4875
X4.5375Y-1.5875
X4.5375Y-2.3375
X4.5375Y-3.0875
X4.5375Y-4.5875
X4.7875Y-1.4875
X4.7875Y-2.2375
X4.7875Y-2.9875
X4.7875Y-4.4875
T12
X1.6875Y-4.6875
X2.4375Y-4.6875
T13
X1.6875Y-1.6875
X1.6875Y-2.4375
X1.6875Y-3.1875
X2.4362Y-3.9375
X2.4375Y-1.6875
X2.4375Y-2.4375
X2.4375Y-3.1875
X3.1875Y-1.6875
X3.1875Y-2.4375
X3.1875Y-3.1875
X3.1875Y-3.9375
X3.1875Y-4.6875
X3.9375Y-1.6875
X3.9375Y-2.4375
X3.9375Y-3.1875
X3.9375Y-3.9375
X3.9375Y-4.6875
X4.6875Y-1.6875
X4.6875Y-2.4375
X4.6875Y-3.1875
X4.6875Y-4.6875
T2
G00X1.5296Y-4.5875
M15
G01X1.5454Y-4.5875
M16
G05
G00X1.7796Y-4.4875
M15
G01X1.7954Y-4.4875
M16
G05
G00X2.2796Y-4.5875
M15
G01X2.2954Y-4.5875
M16
G05
G00X2.5296Y-4.4875
M15
G01X2.5454Y-4.4875
M16
G05
T7
G00X1.908Y-3.9651
M15
G01X1.908Y-3.9099
M16
G05
G00X4.467Y-3.9651
M15
G01X4.467Y-3.9099
M16
G05
T0
M30
