G04 #@! TF.GenerationSoftware,KiCad,Pcbnew,(6.0.1)*
G04 #@! TF.CreationDate,2022-02-24T19:14:04+09:00*
G04 #@! TF.ProjectId,xipher_kbd,78697068-6572-45f6-9b62-642e6b696361,rev?*
G04 #@! TF.SameCoordinates,Original*
G04 #@! TF.FileFunction,Profile,NP*
%FSLAX46Y46*%
G04 Gerber Fmt 4.6, Leading zero omitted, Abs format (unit mm)*
G04 Created by KiCad (PCBNEW (6.0.1)) date 2022-02-24 19:14:04*
%MOMM*%
%LPD*%
G01*
G04 APERTURE LIST*
G04 #@! TA.AperFunction,Profile*
%ADD10C,0.100000*%
G04 #@! TD*
G04 #@! TA.AperFunction,Profile*
%ADD11C,0.120000*%
G04 #@! TD*
G04 APERTURE END LIST*
D10*
X130175000Y-34925000D02*
X130175000Y-127000000D01*
X31750000Y-34925000D02*
X31750000Y-127000000D01*
X127000000Y-31750000D02*
X34925000Y-31750000D01*
X34925000Y-130175000D02*
X127000000Y-130175000D01*
X31750000Y-127000000D02*
G75*
G03*
X34925000Y-130175000I3175000J0D01*
G01*
X127000000Y-130175000D02*
G75*
G03*
X130175000Y-127000000I0J3175000D01*
G01*
X34925000Y-31750000D02*
G75*
G03*
X31750000Y-34925000I0J-3175000D01*
G01*
X130175000Y-34925000D02*
G75*
G03*
X127000000Y-31750000I-3175000J0D01*
G01*
D11*
G04 #@! TO.C,LED16*
X42900000Y-98212500D02*
X46000000Y-98212500D01*
X46000000Y-98212500D02*
X46000000Y-101812500D01*
X46000000Y-101812500D02*
X42900000Y-101812500D01*
X42900000Y-101812500D02*
X42900000Y-98212500D01*
G04 #@! TO.C,LED25*
X117262500Y-122275000D02*
X120862500Y-122275000D01*
X117262500Y-125375000D02*
X117262500Y-122275000D01*
X120862500Y-125375000D02*
X117262500Y-125375000D01*
X120862500Y-122275000D02*
X120862500Y-125375000D01*
G04 #@! TO.C,LED24*
X98212500Y-122075000D02*
X101812500Y-122075000D01*
X98212500Y-125175000D02*
X98212500Y-122075000D01*
X101812500Y-125175000D02*
X98212500Y-125175000D01*
X101812500Y-122075000D02*
X101812500Y-125175000D01*
G04 #@! TO.C,LED23*
X79162500Y-122075000D02*
X82762500Y-122075000D01*
X79162500Y-125175000D02*
X79162500Y-122075000D01*
X82762500Y-125175000D02*
X79162500Y-125175000D01*
X82762500Y-122075000D02*
X82762500Y-125175000D01*
G04 #@! TO.C,LED22*
X60112500Y-122075000D02*
X63712500Y-122075000D01*
X60112500Y-125175000D02*
X60112500Y-122075000D01*
X63712500Y-125175000D02*
X60112500Y-125175000D01*
X63712500Y-122075000D02*
X63712500Y-125175000D01*
G04 #@! TO.C,LED21*
X41062500Y-122075000D02*
X44662500Y-122075000D01*
X41062500Y-125175000D02*
X41062500Y-122075000D01*
X44662500Y-125175000D02*
X41062500Y-125175000D01*
X44662500Y-122075000D02*
X44662500Y-125175000D01*
G04 #@! TO.C,LED20*
X115925000Y-101812500D02*
X115925000Y-98212500D01*
X119025000Y-101812500D02*
X115925000Y-101812500D01*
X119025000Y-98212500D02*
X119025000Y-101812500D01*
X115925000Y-98212500D02*
X119025000Y-98212500D01*
G04 #@! TO.C,LED19*
X101812500Y-103225000D02*
X101812500Y-106325000D01*
X101812500Y-106325000D02*
X98212500Y-106325000D01*
X98212500Y-106325000D02*
X98212500Y-103225000D01*
X98212500Y-103225000D02*
X101812500Y-103225000D01*
G04 #@! TO.C,LED18*
X82762500Y-103225000D02*
X82762500Y-106325000D01*
X82762500Y-106325000D02*
X79162500Y-106325000D01*
X79162500Y-106325000D02*
X79162500Y-103225000D01*
X79162500Y-103225000D02*
X82762500Y-103225000D01*
G04 #@! TO.C,LED17*
X63712500Y-103225000D02*
X63712500Y-106325000D01*
X63712500Y-106325000D02*
X60112500Y-106325000D01*
X60112500Y-106325000D02*
X60112500Y-103225000D01*
X60112500Y-103225000D02*
X63712500Y-103225000D01*
G04 #@! TO.C,LED15*
X120862500Y-84175000D02*
X120862500Y-87275000D01*
X120862500Y-87275000D02*
X117262500Y-87275000D01*
X117262500Y-87275000D02*
X117262500Y-84175000D01*
X117262500Y-84175000D02*
X120862500Y-84175000D01*
G04 #@! TO.C,LED14*
X101812500Y-84175000D02*
X101812500Y-87275000D01*
X101812500Y-87275000D02*
X98212500Y-87275000D01*
X98212500Y-87275000D02*
X98212500Y-84175000D01*
X98212500Y-84175000D02*
X101812500Y-84175000D01*
G04 #@! TO.C,LED6*
X44662500Y-65125000D02*
X44662500Y-68225000D01*
X44662500Y-68225000D02*
X41062500Y-68225000D01*
X41062500Y-68225000D02*
X41062500Y-65125000D01*
X41062500Y-65125000D02*
X44662500Y-65125000D01*
G04 #@! TO.C,LED5*
X120862500Y-46075000D02*
X120862500Y-49175000D01*
X120862500Y-49175000D02*
X117262500Y-49175000D01*
X117262500Y-49175000D02*
X117262500Y-46075000D01*
X117262500Y-46075000D02*
X120862500Y-46075000D01*
G04 #@! TO.C,LED13*
X82762500Y-84175000D02*
X82762500Y-87275000D01*
X82762500Y-87275000D02*
X79162500Y-87275000D01*
X79162500Y-87275000D02*
X79162500Y-84175000D01*
X79162500Y-84175000D02*
X82762500Y-84175000D01*
G04 #@! TO.C,LED4*
X98581300Y-46075000D02*
X102181300Y-46075000D01*
X98581300Y-49175000D02*
X98581300Y-46075000D01*
X102181300Y-49175000D02*
X98581300Y-49175000D01*
X102181300Y-46075000D02*
X102181300Y-49175000D01*
G04 #@! TO.C,LED3*
X79162500Y-46075000D02*
X82762500Y-46075000D01*
X79162500Y-49175000D02*
X79162500Y-46075000D01*
X82762500Y-49175000D02*
X79162500Y-49175000D01*
X82762500Y-46075000D02*
X82762500Y-49175000D01*
G04 #@! TO.C,LED2*
X60112500Y-46075000D02*
X63712500Y-46075000D01*
X60112500Y-49175000D02*
X60112500Y-46075000D01*
X63712500Y-49175000D02*
X60112500Y-49175000D01*
X63712500Y-46075000D02*
X63712500Y-49175000D01*
G04 #@! TO.C,LED1*
X44662500Y-46075000D02*
X44662500Y-49175000D01*
X44662500Y-49175000D02*
X41062500Y-49175000D01*
X41062500Y-49175000D02*
X41062500Y-46075000D01*
X41062500Y-46075000D02*
X44662500Y-46075000D01*
G04 #@! TO.C,LED12*
X63712500Y-84175000D02*
X63712500Y-87275000D01*
X63712500Y-87275000D02*
X60112500Y-87275000D01*
X60112500Y-87275000D02*
X60112500Y-84175000D01*
X60112500Y-84175000D02*
X63712500Y-84175000D01*
G04 #@! TO.C,LED11*
X44662500Y-84175000D02*
X44662500Y-87275000D01*
X44662500Y-87275000D02*
X41062500Y-87275000D01*
X41062500Y-87275000D02*
X41062500Y-84175000D01*
X41062500Y-84175000D02*
X44662500Y-84175000D01*
G04 #@! TO.C,LED10*
X120862500Y-65125000D02*
X120862500Y-68225000D01*
X120862500Y-68225000D02*
X117262500Y-68225000D01*
X117262500Y-68225000D02*
X117262500Y-65125000D01*
X117262500Y-65125000D02*
X120862500Y-65125000D01*
G04 #@! TO.C,LED9*
X101812500Y-65125000D02*
X101812500Y-68225000D01*
X101812500Y-68225000D02*
X98212500Y-68225000D01*
X98212500Y-68225000D02*
X98212500Y-65125000D01*
X98212500Y-65125000D02*
X101812500Y-65125000D01*
G04 #@! TO.C,LED8*
X82762500Y-65125000D02*
X82762500Y-68225000D01*
X82762500Y-68225000D02*
X79162500Y-68225000D01*
X79162500Y-68225000D02*
X79162500Y-65125000D01*
X79162500Y-65125000D02*
X82762500Y-65125000D01*
G04 #@! TO.C,LED7*
X63712500Y-65125000D02*
X63712500Y-68225000D01*
X63712500Y-68225000D02*
X60112500Y-68225000D01*
X60112500Y-68225000D02*
X60112500Y-65125000D01*
X60112500Y-65125000D02*
X63712500Y-65125000D01*
G04 #@! TD*
M02*
